<?xml version="1.0" encoding="UTF-8" standalone="no"?>
<!DOCTYPE svg PUBLIC "-//W3C//DTD SVG 1.1//EN" "http://www.w3.org/Graphics/SVG/1.1/DTD/svg11.dtd">
<svg width="100%" height="100%" viewBox="0 0 1920 1920" version="1.1" xmlns="http://www.w3.org/2000/svg" xmlns:xlink="http://www.w3.org/1999/xlink" xml:space="preserve" xmlns:serif="http://www.serif.com/" style="fill-rule:evenodd;clip-rule:evenodd;stroke-linejoin:round;stroke-miterlimit:2;">
    <g transform="matrix(1,0,0,1,-1970,0)">
        <rect id="Artboard2" x="1970" y="0" width="1920" height="1920" style="fill:none;"/>
        <g id="Artboard21" serif:id="Artboard2">
            <g transform="matrix(2.853857,0,0,2.853857,2194.097895,1279.844008)">
                <path d="M143.125,5.672C118.102,5.672 96.5,0.219 78.312,-10.688C60.133,-21.594 46.242,-36.281 36.641,-54.75C27.047,-73.227 22.25,-93.375 22.25,-115.188C22.25,-136.426 27.191,-156.426 37.078,-175.188C46.973,-193.957 61.008,-209.086 79.188,-220.578C97.375,-232.066 118.102,-237.812 141.375,-237.812C163.77,-237.812 184.129,-232.57 202.453,-222.094C220.785,-211.625 235.188,-197.078 245.656,-178.453C256.133,-159.836 261.375,-138.895 261.375,-115.625L261.375,-113.453L52.797,-113.453C53.379,-95.703 57.523,-79.988 65.234,-66.312C72.941,-52.645 83.484,-42.031 96.859,-34.469C110.242,-26.906 125.664,-23.125 143.125,-23.125C163.77,-23.125 180.641,-27.922 193.734,-37.516C206.828,-47.117 218.461,-60.211 228.641,-76.797L253.516,-63.703C242.172,-41.891 227.113,-24.875 208.344,-12.656C189.582,-0.438 167.844,5.672 143.125,5.672ZM228.641,-139.625C222.828,-162.602 212.141,-179.91 196.578,-191.547C181.016,-203.191 162.758,-209.016 141.812,-209.016C120.57,-209.016 102.609,-203.266 87.922,-191.766C73.234,-180.273 62.547,-162.895 55.859,-139.625L228.641,-139.625Z" style="fill:rgb(30,30,30);fill-rule:nonzero;"/>
            </g>
            <g transform="matrix(2.853857,0,0,2.853857,2901.399708,1279.844008)">
                <path d="M197.656,-231.703L229.516,-231.703L126.109,0L115.625,0L11.344,-231.703L43.203,-231.703L120.875,-58.031L197.656,-231.703Z" style="fill:rgb(30,30,30);fill-rule:nonzero;"/>
            </g>
            <g transform="matrix(1.54874,0,0,1.54874,3197.022807,584.385233)">
                <rect x="0.762" y="0.082" width="80.465" height="80.465" style="fill:rgb(214,66,56);fill-rule:nonzero;"/>
            </g>
        </g>
    </g>
</svg>
