<?xml version="1.0" encoding="UTF-8" standalone="no"?>
<!DOCTYPE svg PUBLIC "-//W3C//DTD SVG 1.1//EN" "http://www.w3.org/Graphics/SVG/1.1/DTD/svg11.dtd">
<svg width="100%" height="100%" viewBox="0 0 1545 454" version="1.1" xmlns="http://www.w3.org/2000/svg" xmlns:xlink="http://www.w3.org/1999/xlink" xml:space="preserve" xmlns:serif="http://www.serif.com/" style="fill-rule:evenodd;clip-rule:evenodd;stroke-linejoin:round;stroke-miterlimit:2;">
    <g transform="matrix(1,0,0,1,-170.596221,-734.796107)">
        <g transform="matrix(1.333333,0,0,1.333333,162.833333,546.666711)">
            <g transform="matrix(1,0,0,1,-16.427834,459.190797)">
                <path d="M143.125,5.672C118.102,5.672 96.5,0.219 78.312,-10.688C60.133,-21.594 46.242,-36.281 36.641,-54.75C27.047,-73.227 22.25,-93.375 22.25,-115.188C22.25,-136.426 27.191,-156.426 37.078,-175.188C46.973,-193.957 61.008,-209.086 79.188,-220.578C97.375,-232.066 118.102,-237.812 141.375,-237.812C163.77,-237.812 184.129,-232.57 202.453,-222.094C220.785,-211.625 235.188,-197.078 245.656,-178.453C256.133,-159.836 261.375,-138.895 261.375,-115.625L261.375,-113.453L52.797,-113.453C53.379,-95.703 57.523,-79.988 65.234,-66.312C72.941,-52.645 83.484,-42.031 96.859,-34.469C110.242,-26.906 125.664,-23.125 143.125,-23.125C163.77,-23.125 180.641,-27.922 193.734,-37.516C206.828,-47.117 218.461,-60.211 228.641,-76.797L253.516,-63.703C242.172,-41.891 227.113,-24.875 208.344,-12.656C189.582,-0.438 167.844,5.672 143.125,5.672ZM228.641,-139.625C222.828,-162.602 212.141,-179.91 196.578,-191.547C181.016,-203.191 162.758,-209.016 141.812,-209.016C120.57,-209.016 102.609,-203.266 87.922,-191.766C73.234,-180.273 62.547,-162.895 55.859,-139.625L228.641,-139.625Z" style="fill:rgb(30,30,30);fill-rule:nonzero;"/>
            </g>
        </g>
        <g transform="matrix(1.333333,0,0,1.333333,162.833333,546.666711)">
            <g transform="matrix(1,0,0,1,231.412798,459.190797)">
                <path d="M197.656,-231.703L229.516,-231.703L126.109,0L115.625,0L11.344,-231.703L43.203,-231.703L120.875,-58.031L197.656,-231.703Z" style="fill:rgb(30,30,30);fill-rule:nonzero;"/>
            </g>
        </g>
        <g transform="matrix(1.333333,0,0,1.333333,162.833333,546.666711)">
            <g transform="matrix(1,0,0,1,437.36478,459.190797)">
                <path d="M143.125,5.672C118.102,5.672 96.5,0.219 78.312,-10.688C60.133,-21.594 46.242,-36.281 36.641,-54.75C27.047,-73.227 22.25,-93.375 22.25,-115.188C22.25,-136.426 27.191,-156.426 37.078,-175.188C46.973,-193.957 61.008,-209.086 79.188,-220.578C97.375,-232.066 118.102,-237.812 141.375,-237.812C163.77,-237.812 184.129,-232.57 202.453,-222.094C220.785,-211.625 235.188,-197.078 245.656,-178.453C256.133,-159.836 261.375,-138.895 261.375,-115.625L261.375,-113.453L52.797,-113.453C53.379,-95.703 57.523,-79.988 65.234,-66.312C72.941,-52.645 83.484,-42.031 96.859,-34.469C110.242,-26.906 125.664,-23.125 143.125,-23.125C163.77,-23.125 180.641,-27.922 193.734,-37.516C206.828,-47.117 218.461,-60.211 228.641,-76.797L253.516,-63.703C242.172,-41.891 227.113,-24.875 208.344,-12.656C189.582,-0.438 167.844,5.672 143.125,5.672ZM228.641,-139.625C222.828,-162.602 212.141,-179.91 196.578,-191.547C181.016,-203.191 162.758,-209.016 141.812,-209.016C120.57,-209.016 102.609,-203.266 87.922,-191.766C73.234,-180.273 62.547,-162.895 55.859,-139.625L228.641,-139.625Z" style="fill:rgb(30,30,30);fill-rule:nonzero;"/>
            </g>
        </g>
        <g transform="matrix(1.333333,0,0,1.333333,162.833333,546.666711)">
            <g transform="matrix(1,0,0,1,685.205412,459.190797)">
                <path d="M64.578,-231.703L64.578,-190.25C88.723,-221.957 117.664,-237.812 151.406,-237.812C168.57,-237.812 183.625,-233.812 196.562,-225.812C209.508,-217.812 219.547,-205.738 226.672,-189.594C233.805,-173.445 237.375,-153.594 237.375,-130.031L237.375,0L207.703,0L207.703,-126.109C207.703,-154.316 202.828,-175.473 193.078,-189.578C183.336,-203.691 167.555,-210.75 145.734,-210.75C131.484,-210.75 118.176,-206.82 105.812,-198.969C93.445,-191.113 83.484,-179.695 75.922,-164.719C68.359,-149.738 64.578,-131.922 64.578,-111.266L64.578,0L34.906,0L34.906,-231.703L64.578,-231.703Z" style="fill:rgb(30,30,30);fill-rule:nonzero;"/>
            </g>
        </g>
        <g transform="matrix(1.333333,0,0,1.333333,162.833333,546.666711)">
            <g transform="matrix(1,0,0,1,917.337828,459.190797)">
                <path d="M59.781,-205.516L18.766,-205.516L18.766,-231.703L59.781,-231.703L59.781,-318.094L89.453,-318.094L89.453,-231.703L137.016,-231.703L137.016,-205.516L89.453,-205.516L89.453,0L59.781,0L59.781,-205.516Z" style="fill:rgb(30,30,30);fill-rule:nonzero;"/>
            </g>
        </g>
        <g transform="matrix(1.333333,0,0,1.333333,1636.166667,769.333378)">
            <g transform="matrix(1.048485,0,0,1.076021,-19.855949,-28.49061)">
                <path d="M-1.844,24.828C-1.844,19.898 -0.547,15.656 2.047,12.094C4.648,8.539 8.551,5.363 13.75,2.562L17.547,8.828C13.504,11.016 10.457,13.406 8.406,16C6.352,18.602 5.328,21.336 5.328,24.203C5.328,26.734 5.891,29.039 7.016,31.125C8.148,33.219 9.676,34.859 11.594,36.047C13.508,37.242 15.594,37.844 17.844,37.844C20.102,37.844 22.207,37.211 24.156,35.953C26.102,34.691 28.117,32.863 30.203,30.469C32.297,28.07 35.734,23.898 40.516,17.953C42.641,15.285 44.52,13.219 46.156,11.75C47.801,10.281 49.562,9.164 51.438,8.406C53.32,7.656 55.598,7.281 58.266,7.281C61.547,7.281 64.504,8.066 67.141,9.641C69.773,11.211 71.828,13.363 73.297,16.094C74.766,18.832 75.5,21.844 75.5,25.125C75.5,29.227 74.453,32.766 72.359,35.734C70.273,38.711 67.32,41.609 63.5,44.422L58.875,38.469C60.926,36.895 62.566,35.492 63.797,34.266C65.035,33.035 66.031,31.648 66.781,30.109C67.531,28.566 67.906,26.836 67.906,24.922C67.906,22.867 67.477,21.086 66.625,19.578C65.77,18.078 64.625,16.93 63.188,16.141C61.75,15.359 60.211,14.969 58.578,14.969C56.242,14.969 54.066,15.648 52.047,17.016C50.035,18.391 48.07,20.379 46.156,22.984C42.188,28.453 38.906,32.672 36.312,35.641C33.719,38.617 30.914,41.016 27.906,42.828C24.895,44.641 21.578,45.547 17.953,45.547C14.535,45.547 11.301,44.641 8.25,42.828C5.207,41.016 2.766,38.535 0.922,35.391C-0.922,32.242 -1.844,28.723 -1.844,24.828Z" style="fill:rgb(30,30,30);fill-rule:nonzero;"/>
            </g>
        </g>
        <g transform="matrix(1.333333,0,0,1.333333,1636.166667,769.333378)">
            <g transform="matrix(1.048485,0,0,1.076021,-19.855949,25.254661)">
                <path d="M0,88.625L0,81.453L50.062,74.672L52.719,74.266L50.156,73.031L0,48.219L0,46.359L50.266,21.234L53.031,19.906L49.953,19.484L0,12.828L0,5.641L73.656,16.109L73.656,17.328L15.594,46.156L13.234,47.281L15.688,48.516L73.656,76.938L73.656,78.172L0,88.625Z" style="fill:rgb(30,30,30);fill-rule:nonzero;"/>
            </g>
        </g>
        <g transform="matrix(1.333333,0,0,1.333333,1636.166667,769.333378)">
            <g transform="matrix(1.048485,0,0,1.076021,-19.855949,126.675366)">
                <path d="M0,63.078L24.203,51.797L24.203,19.484L0,8.203L0,0.516L73.656,34.875L73.656,36.625L0,70.781L0,63.078ZM31.188,22.766L31.188,48.516L58.781,35.703L31.188,22.766Z" style="fill:rgb(30,30,30);fill-rule:nonzero;"/>
            </g>
        </g>
        <g transform="matrix(1.333333,0,0,1.333333,1636.166667,769.333378)">
            <g transform="matrix(1.048485,0,0,1.076021,-19.855949,203.37546)">
                <path d="M73.656,29.953C73.656,38.359 71.91,44.645 68.422,48.812C64.93,52.988 60.145,55.078 54.062,55.078C49.688,55.078 46.023,54.016 43.078,51.891C40.141,49.773 37.938,46.801 36.469,42.969C35,39.145 34.266,34.672 34.266,29.547L0,56.109L0,46.984L34.266,20.922L34.266,16.312L0,16.312L0,8.922L73.656,8.922L73.656,29.953ZM41.438,29.547C41.438,35.223 42.461,39.613 44.516,42.719C46.566,45.832 49.75,47.391 54.062,47.391C57.82,47.391 60.828,46.055 63.078,43.391C65.336,40.723 66.469,36.723 66.469,31.391L66.469,16.312L41.438,16.312L41.438,29.547Z" style="fill:rgb(30,30,30);fill-rule:nonzero;"/>
            </g>
        </g>
        <g transform="matrix(1.333333,0,0,1.333333,1636.166667,769.333378)">
            <g transform="matrix(1.048485,0,0,1.076021,-19.855949,268.708528)">
                <path d="M66.469,18.266L66.469,1.641L73.656,1.641L73.656,42.062L66.469,42.062L66.469,25.641L0,25.641L0,18.266L66.469,18.266Z" style="fill:rgb(30,30,30);fill-rule:nonzero;"/>
            </g>
        </g>
        <g transform="matrix(1.333333,0,0,1.333333,-74.5,-35.999955)">
            <g transform="matrix(0.853659,0,0,0.853659,66.256098,127.189024)">
                <g transform="matrix(0.635714,0,0,0.635714,523.328571,615.364286)">
                    <g>
                        <g>
                            <g>
                                <clipPath id="_clip1">
                                    <path d="M40.992,0.082C18.773,0.082 0.762,18.094 0.762,40.312C0.762,62.535 18.773,80.547 40.992,80.547C63.215,80.547 81.227,62.535 81.227,40.312C81.227,18.094 63.215,0.082 40.992,0.082Z"/>
                                </clipPath>
                                <g clip-path="url(#_clip1)">
                                    <rect x="0.762" y="0.082" width="80.465" height="80.465" style="fill:rgb(214,66,56);fill-rule:nonzero;"/>
                                </g>
                            </g>
                        </g>
                    </g>
                </g>
            </g>
        </g>
    </g>
</svg>
