<svg xmlns="http://www.w3.org/2000/svg" xmlns:xlink="http://www.w3.org/1999/xlink" width="794" zoomAndPan="magnify" viewBox="0 0 595.5 842.249979" height="1123" preserveAspectRatio="xMidYMid meet" version="1.0"><defs><g/><clipPath id="db92265b99"><path d="M 0.015625 0 L 594.984375 0 L 594.984375 841.5 L 0.015625 841.5 Z M 0.015625 0 " clip-rule="nonzero"/></clipPath><clipPath id="66e0548b07"><path d="M 0.015625 0 L 594.984375 0 L 594.984375 841.5 L 0.015625 841.5 Z M 0.015625 0 " clip-rule="nonzero"/></clipPath><clipPath id="51aa0573ca"><path d="M 59.511719 59.496094 L 535.488281 59.496094 L 535.488281 782 L 59.511719 782 Z M 59.511719 59.496094 " clip-rule="nonzero"/></clipPath><clipPath id="bec09b71d8"><path d="M 85.75 59.496094 L 509.25 59.496094 C 523.742188 59.496094 535.488281 71.242188 535.488281 85.734375 L 535.488281 755.722656 C 535.488281 770.214844 523.742188 781.960938 509.25 781.960938 L 85.75 781.960938 C 71.257812 781.960938 59.511719 770.214844 59.511719 755.722656 L 59.511719 85.734375 C 59.511719 71.242188 71.257812 59.496094 85.75 59.496094 Z M 85.75 59.496094 " clip-rule="nonzero"/></clipPath><clipPath id="8f429a405a"><path d="M 0.511719 0.496094 L 476.488281 0.496094 L 476.488281 723 L 0.511719 723 Z M 0.511719 0.496094 " clip-rule="nonzero"/></clipPath><clipPath id="346cf65ccc"><path d="M 26.75 0.496094 L 450.25 0.496094 C 464.742188 0.496094 476.488281 12.242188 476.488281 26.734375 L 476.488281 696.722656 C 476.488281 711.214844 464.742188 722.960938 450.25 722.960938 L 26.75 722.960938 C 12.257812 722.960938 0.511719 711.214844 0.511719 696.722656 L 0.511719 26.734375 C 0.511719 12.242188 12.257812 0.496094 26.75 0.496094 Z M 26.75 0.496094 " clip-rule="nonzero"/></clipPath><clipPath id="cd7a9e5b66"><rect x="0" width="477" y="0" height="723"/></clipPath><clipPath id="3ee98ea443"><path d="M 101.582031 280.011719 L 494 280.011719 L 494 662.570312 L 101.582031 662.570312 Z M 101.582031 280.011719 " clip-rule="nonzero"/></clipPath><clipPath id="3d139b8c24"><path d="M 163.050781 280.011719 L 431.949219 280.011719 C 465.898438 280.011719 493.417969 307.53125 493.417969 341.480469 L 493.417969 601.101562 C 493.417969 635.050781 465.898438 662.570312 431.949219 662.570312 L 163.050781 662.570312 C 129.101562 662.570312 101.582031 635.050781 101.582031 601.101562 L 101.582031 341.480469 C 101.582031 307.53125 129.101562 280.011719 163.050781 280.011719 Z M 163.050781 280.011719 " clip-rule="nonzero"/></clipPath><clipPath id="172149cf68"><path d="M 0.582031 0.0117188 L 392.496094 0.0117188 L 392.496094 382.570312 L 0.582031 382.570312 Z M 0.582031 0.0117188 " clip-rule="nonzero"/></clipPath><clipPath id="27438a9adb"><path d="M 62.050781 0.0117188 L 330.949219 0.0117188 C 364.898438 0.0117188 392.417969 27.53125 392.417969 61.480469 L 392.417969 321.101562 C 392.417969 355.050781 364.898438 382.570312 330.949219 382.570312 L 62.050781 382.570312 C 28.101562 382.570312 0.582031 355.050781 0.582031 321.101562 L 0.582031 61.480469 C 0.582031 27.53125 28.101562 0.0117188 62.050781 0.0117188 Z M 62.050781 0.0117188 " clip-rule="nonzero"/></clipPath><clipPath id="e0e6cf12e6"><rect x="0" width="393" y="0" height="383"/></clipPath><clipPath id="597b44aaea"><path d="M 137.898438 534 L 235 534 L 235 631 L 137.898438 631 Z M 137.898438 534 " clip-rule="nonzero"/></clipPath><clipPath id="82f0b887ad"><path d="M 137.898438 311.691406 L 235 311.691406 L 235 409 L 137.898438 409 Z M 137.898438 311.691406 " clip-rule="nonzero"/></clipPath><clipPath id="5639ed1a96"><path d="M 360 311.691406 L 457.234375 311.691406 L 457.234375 409 L 360 409 Z M 360 311.691406 " clip-rule="nonzero"/></clipPath><clipPath id="637c7118f9"><path d="M 360 534 L 457.234375 534 L 457.234375 631 L 360 631 Z M 360 534 " clip-rule="nonzero"/></clipPath><clipPath id="e5355829e7"><rect x="0" width="227" y="0" height="212"/></clipPath><clipPath id="a046c4ed40"><path d="M 160.289062 694.804688 L 434.75 694.804688 L 434.75 732.335938 L 160.289062 732.335938 Z M 160.289062 694.804688 " clip-rule="nonzero"/></clipPath><clipPath id="884a1adcae"><path d="M 173.78125 694.804688 L 421.21875 694.804688 C 428.671875 694.804688 434.710938 700.84375 434.710938 708.296875 L 434.710938 718.84375 C 434.710938 726.296875 428.671875 732.335938 421.21875 732.335938 L 173.78125 732.335938 C 166.328125 732.335938 160.289062 726.296875 160.289062 718.84375 L 160.289062 708.296875 C 160.289062 700.84375 166.328125 694.804688 173.78125 694.804688 Z M 173.78125 694.804688 " clip-rule="nonzero"/></clipPath><clipPath id="9041dc0d5a"><path d="M 0.289062 0.804688 L 274.746094 0.804688 L 274.746094 38.335938 L 0.289062 38.335938 Z M 0.289062 0.804688 " clip-rule="nonzero"/></clipPath><clipPath id="e09f537762"><path d="M 13.78125 0.804688 L 261.21875 0.804688 C 268.671875 0.804688 274.710938 6.84375 274.710938 14.296875 L 274.710938 24.84375 C 274.710938 32.296875 268.671875 38.335938 261.21875 38.335938 L 13.78125 38.335938 C 6.328125 38.335938 0.289062 32.296875 0.289062 24.84375 L 0.289062 14.296875 C 0.289062 6.84375 6.328125 0.804688 13.78125 0.804688 Z M 13.78125 0.804688 " clip-rule="nonzero"/></clipPath><clipPath id="04577c2356"><rect x="0" width="275" y="0" height="39"/></clipPath><clipPath id="6bc32b6a46"><rect x="0" width="207" y="0" height="99"/></clipPath><clipPath id="11dc314b46"><rect x="0" width="387" y="0" height="117"/></clipPath><clipPath id="b65d97002a"><rect x="0" width="205" y="0" height="48"/></clipPath><clipPath id="1f38bae723"><path d="M 0.0859375 9 L 15 9 L 15 18 L 0.0859375 18 Z M 0.0859375 9 " clip-rule="nonzero"/></clipPath><clipPath id="1d8a25394d"><rect x="0" width="211" y="0" height="25"/></clipPath><clipPath id="50e06511e0"><rect x="0" width="595" y="0" height="842"/></clipPath></defs><g clip-path="url(#db92265b99)"><path fill="#ffffff" d="M 0.015625 0 L 594.984375 0 L 594.984375 841.5 L 0.015625 841.5 Z M 0.015625 0 " fill-opacity="1" fill-rule="nonzero"/><g transform="matrix(1, 0, 0, 1, -0.000000000000000002, 0)"><g clip-path="url(#50e06511e0)"><g clip-path="url(#66e0548b07)"><path fill="#4282aa" d="M 0.015625 0 L 595.210938 0 L 595.210938 841.816406 L 0.015625 841.816406 Z M 0.015625 0 " fill-opacity="1" fill-rule="nonzero"/></g><g clip-path="url(#51aa0573ca)"><g clip-path="url(#bec09b71d8)"><g transform="matrix(1, 0, 0, 1, 59, 59)"><g clip-path="url(#cd7a9e5b66)"><g clip-path="url(#8f429a405a)"><g clip-path="url(#346cf65ccc)"><path fill="#ffffff" d="M 0.511719 0.496094 L 476.488281 0.496094 L 476.488281 723.757812 L 0.511719 723.757812 Z M 0.511719 0.496094 " fill-opacity="1" fill-rule="nonzero"/></g></g></g></g></g></g><g clip-path="url(#3ee98ea443)"><g clip-path="url(#3d139b8c24)"><g transform="matrix(1, 0, 0, 1, 101, 280)"><g clip-path="url(#e0e6cf12e6)"><g clip-path="url(#172149cf68)"><g clip-path="url(#27438a9adb)"><path fill="#4282aa" d="M 0.582031 0.0117188 L 392.105469 0.0117188 L 392.105469 382.570312 L 0.582031 382.570312 Z M 0.582031 0.0117188 " fill-opacity="1" fill-rule="nonzero"/></g></g></g></g></g></g><g clip-path="url(#597b44aaea)"><path fill="#ffffff" d="M 148.195312 586.210938 L 148.195312 534.238281 L 137.898438 534.238281 L 137.898438 586.210938 C 137.898438 598.144531 142.546875 609.363281 150.984375 617.800781 C 159.421875 626.238281 170.640625 630.886719 182.574219 630.886719 L 234.546875 630.886719 L 234.546875 620.589844 L 182.574219 620.589844 C 163.617188 620.589844 148.195312 605.167969 148.195312 586.210938 " fill-opacity="1" fill-rule="nonzero"/></g><g clip-path="url(#82f0b887ad)"><path fill="#ffffff" d="M 148.195312 356.367188 C 148.195312 337.410156 163.617188 321.988281 182.574219 321.988281 L 234.546875 321.988281 L 234.546875 311.691406 L 182.574219 311.691406 C 170.640625 311.691406 159.421875 316.339844 150.984375 324.777344 C 142.546875 333.214844 137.898438 344.433594 137.898438 356.367188 L 137.898438 408.339844 L 148.195312 408.339844 L 148.195312 356.367188 " fill-opacity="1" fill-rule="nonzero"/></g><g clip-path="url(#5639ed1a96)"><path fill="#ffffff" d="M 444.007812 324.777344 C 435.570312 316.339844 424.351562 311.691406 412.417969 311.691406 L 360.449219 311.691406 L 360.449219 321.988281 L 412.417969 321.988281 C 431.375 321.988281 446.796875 337.410156 446.796875 356.367188 L 446.796875 408.339844 L 457.09375 408.339844 L 457.09375 356.367188 C 457.09375 344.433594 452.445312 333.214844 444.007812 324.777344 " fill-opacity="1" fill-rule="nonzero"/></g><g clip-path="url(#637c7118f9)"><path fill="#ffffff" d="M 446.796875 586.210938 C 446.796875 605.167969 431.375 620.589844 412.417969 620.589844 L 360.449219 620.589844 L 360.449219 630.886719 L 412.417969 630.886719 C 424.351562 630.886719 435.570312 626.238281 444.007812 617.800781 C 452.445312 609.363281 457.09375 598.144531 457.09375 586.210938 L 457.09375 534.238281 L 446.796875 534.238281 L 446.796875 586.210938 " fill-opacity="1" fill-rule="nonzero"/></g><g transform="matrix(1, 0, 0, 1, 184, 304)"><g clip-path="url(#e5355829e7)"><g fill="#ffffff" fill-opacity="1"><g transform="translate(1.219391, 155.56665)"><g><path d="M 60.78125 2.046875 C 50.164062 2.046875 40.738281 -0.21875 32.5 -4.75 C 24.269531 -9.28125 17.84375 -15.535156 13.21875 -23.515625 C 8.59375 -31.503906 6.28125 -40.710938 6.28125 -51.140625 C 6.28125 -61.554688 8.59375 -70.757812 13.21875 -78.75 C 17.84375 -86.738281 24.269531 -93 32.5 -97.53125 C 40.738281 -102.0625 50.164062 -104.328125 60.78125 -104.328125 C 71.5 -104.328125 80.945312 -102.0625 89.125 -97.53125 C 97.3125 -93 103.738281 -86.738281 108.40625 -78.75 C 113.082031 -70.757812 115.421875 -61.554688 115.421875 -51.140625 C 115.421875 -39.929688 112.671875 -30.066406 107.171875 -21.546875 C 101.671875 -13.023438 94.289062 -6.769531 85.03125 -2.78125 L 86.203125 0 C 87.273438 2.332031 88.367188 4.109375 89.484375 5.328125 C 90.609375 6.546875 92.117188 7.398438 94.015625 7.890625 C 95.921875 8.378906 98.429688 8.625 101.546875 8.625 L 109.578125 8.625 L 109.578125 26.59375 L 96.578125 26.59375 C 81.773438 26.59375 71.691406 20.257812 66.328125 7.59375 L 64 1.90625 Z M 29.953125 -51.140625 C 29.953125 -45.003906 31.265625 -39.597656 33.890625 -34.921875 C 36.523438 -30.242188 40.15625 -26.585938 44.78125 -23.953125 C 49.40625 -21.328125 54.738281 -20.015625 60.78125 -20.015625 C 66.914062 -20.015625 72.296875 -21.328125 76.921875 -23.953125 C 81.546875 -26.585938 85.148438 -30.242188 87.734375 -34.921875 C 90.316406 -39.597656 91.609375 -45.003906 91.609375 -51.140625 C 91.609375 -57.273438 90.316406 -62.679688 87.734375 -67.359375 C 85.148438 -72.035156 81.546875 -75.6875 76.921875 -78.3125 C 72.296875 -80.945312 66.914062 -82.265625 60.78125 -82.265625 C 54.738281 -82.265625 49.40625 -80.945312 44.78125 -78.3125 C 40.15625 -75.6875 36.523438 -72.035156 33.890625 -67.359375 C 31.265625 -62.679688 29.953125 -57.273438 29.953125 -51.140625 Z M 29.953125 -51.140625 "/></g></g></g><g fill="#ffffff" fill-opacity="1"><g transform="translate(122.917868, 155.56665)"><g><path d="M 12.265625 0 L 12.265625 -102.28125 L 55.953125 -102.28125 C 63.753906 -102.28125 70.523438 -100.863281 76.265625 -98.03125 C 82.015625 -95.207031 86.445312 -91.164062 89.5625 -85.90625 C 92.675781 -80.644531 94.234375 -74.363281 94.234375 -67.0625 C 94.234375 -59.5625 92.53125 -53.109375 89.125 -47.703125 C 85.71875 -42.296875 80.945312 -38.226562 74.8125 -35.5 L 96 0 L 69.109375 0 L 50.84375 -31.859375 L 35.5 -31.859375 L 35.5 0 Z M 35.21875 -51.4375 L 52.890625 -51.4375 C 58.640625 -51.4375 63.046875 -52.773438 66.109375 -55.453125 C 69.179688 -58.128906 70.71875 -61.953125 70.71875 -66.921875 C 70.71875 -71.890625 69.179688 -75.710938 66.109375 -78.390625 C 63.046875 -81.066406 58.640625 -82.40625 52.890625 -82.40625 L 35.21875 -82.40625 Z M 35.21875 -51.4375 "/></g></g></g></g></g><g clip-path="url(#a046c4ed40)"><g clip-path="url(#884a1adcae)"><g transform="matrix(1, 0, 0, 1, 160, 694)"><g clip-path="url(#04577c2356)"><g clip-path="url(#9041dc0d5a)"><g clip-path="url(#e09f537762)"><path fill="#4282aa" d="M 0.289062 0.804688 L 274.75 0.804688 L 274.75 38.335938 L 0.289062 38.335938 Z M 0.289062 0.804688 " fill-opacity="1" fill-rule="nonzero"/></g></g></g></g></g></g><g transform="matrix(1, 0, 0, 1, 194, 476)"><g clip-path="url(#6bc32b6a46)"><g fill="#ffffff" fill-opacity="1"><g transform="translate(1.175938, 72.10081)"><g><path d="M 27.453125 0.953125 C 22.660156 0.953125 18.410156 -0.0976562 14.703125 -2.203125 C 11.003906 -4.304688 8.113281 -7.207031 6.03125 -10.90625 C 3.957031 -14.613281 2.921875 -18.890625 2.921875 -23.734375 C 2.921875 -28.566406 3.957031 -32.835938 6.03125 -36.546875 C 8.113281 -40.253906 10.992188 -43.15625 14.671875 -45.25 C 18.359375 -47.351562 22.597656 -48.40625 27.390625 -48.40625 C 31.410156 -48.40625 35.09375 -47.632812 38.4375 -46.09375 C 41.78125 -44.5625 44.59375 -42.394531 46.875 -39.59375 C 49.164062 -36.789062 50.757812 -33.488281 51.65625 -29.6875 L 40.546875 -29.6875 C 39.640625 -32.3125 38.03125 -34.378906 35.71875 -35.890625 C 33.414062 -37.410156 30.753906 -38.171875 27.734375 -38.171875 C 25.066406 -38.171875 22.679688 -37.5625 20.578125 -36.34375 C 18.472656 -35.125 16.832031 -33.425781 15.65625 -31.25 C 14.476562 -29.082031 13.890625 -26.578125 13.890625 -23.734375 C 13.890625 -20.878906 14.476562 -18.367188 15.65625 -16.203125 C 16.832031 -14.035156 18.457031 -12.335938 20.53125 -11.109375 C 22.613281 -9.890625 24.988281 -9.28125 27.65625 -9.28125 C 30.78125 -9.28125 33.515625 -10.082031 35.859375 -11.6875 C 38.210938 -13.300781 39.882812 -15.460938 40.875 -18.171875 L 52 -18.171875 C 51.226562 -14.328125 49.691406 -10.96875 47.390625 -8.09375 C 45.085938 -5.226562 42.226562 -3.003906 38.8125 -1.421875 C 35.394531 0.160156 31.609375 0.953125 27.453125 0.953125 Z M 27.453125 0.953125 "/></g></g></g><g fill="#ffffff" fill-opacity="1"><g transform="translate(55.893752, 72.10081)"><g><path d="M 28.203125 0.953125 C 23.273438 0.953125 18.898438 -0.0976562 15.078125 -2.203125 C 11.265625 -4.304688 8.285156 -7.207031 6.140625 -10.90625 C 3.992188 -14.613281 2.921875 -18.890625 2.921875 -23.734375 C 2.921875 -28.566406 3.992188 -32.835938 6.140625 -36.546875 C 8.285156 -40.253906 11.265625 -43.15625 15.078125 -45.25 C 18.898438 -47.351562 23.273438 -48.40625 28.203125 -48.40625 C 33.171875 -48.40625 37.550781 -47.351562 41.34375 -45.25 C 45.144531 -43.15625 48.128906 -40.253906 50.296875 -36.546875 C 52.472656 -32.835938 53.5625 -28.566406 53.5625 -23.734375 C 53.5625 -18.890625 52.472656 -14.613281 50.296875 -10.90625 C 48.128906 -7.207031 45.144531 -4.304688 41.34375 -2.203125 C 37.550781 -0.0976562 33.171875 0.953125 28.203125 0.953125 Z M 13.890625 -23.734375 C 13.890625 -20.878906 14.5 -18.367188 15.71875 -16.203125 C 16.945312 -14.035156 18.632812 -12.335938 20.78125 -11.109375 C 22.925781 -9.890625 25.398438 -9.28125 28.203125 -9.28125 C 31.046875 -9.28125 33.539062 -9.890625 35.6875 -11.109375 C 37.84375 -12.335938 39.519531 -14.035156 40.71875 -16.203125 C 41.914062 -18.367188 42.515625 -20.878906 42.515625 -23.734375 C 42.515625 -26.578125 41.914062 -29.082031 40.71875 -31.25 C 39.519531 -33.425781 37.84375 -35.125 35.6875 -36.34375 C 33.539062 -37.5625 31.046875 -38.171875 28.203125 -38.171875 C 25.398438 -38.171875 22.925781 -37.5625 20.78125 -36.34375 C 18.632812 -35.125 16.945312 -33.425781 15.71875 -31.25 C 14.5 -29.082031 13.890625 -26.578125 13.890625 -23.734375 Z M 13.890625 -23.734375 "/></g></g></g><g fill="#ffffff" fill-opacity="1"><g transform="translate(112.374467, 72.10081)"><g><path d="M 5.6875 0 L 5.6875 -47.453125 L 24.46875 -47.453125 C 29.488281 -47.453125 33.875 -46.457031 37.625 -44.46875 C 41.375 -42.476562 44.285156 -39.695312 46.359375 -36.125 C 48.441406 -32.5625 49.484375 -28.429688 49.484375 -23.734375 C 49.484375 -18.984375 48.441406 -14.832031 46.359375 -11.28125 C 44.285156 -7.738281 41.375 -4.972656 37.625 -2.984375 C 33.875 -0.992188 29.488281 0 24.46875 0 Z M 16.46875 -9.890625 L 24.265625 -9.890625 C 27.066406 -9.890625 29.53125 -10.46875 31.65625 -11.625 C 33.78125 -12.78125 35.441406 -14.394531 36.640625 -16.46875 C 37.835938 -18.550781 38.4375 -20.972656 38.4375 -23.734375 C 38.4375 -26.535156 37.835938 -28.960938 36.640625 -31.015625 C 35.441406 -33.078125 33.769531 -34.679688 31.625 -35.828125 C 29.476562 -36.984375 26.984375 -37.5625 24.140625 -37.5625 L 16.46875 -37.5625 Z M 16.46875 -9.890625 "/></g></g></g><g fill="#ffffff" fill-opacity="1"><g transform="translate(164.719137, 72.10081)"><g><path d="M 5.6875 0 L 5.6875 -47.453125 L 36.875 -47.453125 L 36.875 -38.375 L 16.40625 -38.375 L 16.40625 -28.546875 L 35.046875 -28.546875 L 35.046875 -19.53125 L 16.40625 -19.53125 L 16.40625 -9.15625 L 37.625 -9.15625 L 37.625 0 Z M 5.6875 0 "/></g></g></g></g></g><g transform="matrix(1, 0, 0, 1, 104, 119)"><g clip-path="url(#11dc314b46)"><g fill="#4282aa" fill-opacity="1"><g transform="translate(0.880268, 86.2273)"><g><path d="M 3.015625 -61.84375 C 3.015625 -68.425781 4.582031 -73.484375 7.71875 -77.015625 C 10.863281 -80.546875 15.578125 -82.3125 21.859375 -82.3125 C 28.128906 -82.3125 32.832031 -80.546875 35.96875 -77.015625 C 39.113281 -73.484375 40.6875 -68.425781 40.6875 -61.84375 L 40.6875 -59.28125 L 28.59375 -59.28125 L 28.59375 -62.65625 C 28.59375 -65.601562 28.03125 -67.675781 26.90625 -68.875 C 25.78125 -70.082031 24.210938 -70.6875 22.203125 -70.6875 C 20.191406 -70.6875 18.625 -70.082031 17.5 -68.875 C 16.375 -67.675781 15.8125 -65.601562 15.8125 -62.65625 C 15.8125 -59.863281 16.429688 -57.398438 17.671875 -55.265625 C 18.910156 -53.140625 20.457031 -51.128906 22.3125 -49.234375 C 24.175781 -47.335938 26.171875 -45.4375 28.296875 -43.53125 C 30.429688 -41.632812 32.425781 -39.5625 34.28125 -37.3125 C 36.144531 -35.0625 37.695312 -32.503906 38.9375 -29.640625 C 40.175781 -26.773438 40.796875 -23.40625 40.796875 -19.53125 C 40.796875 -12.945312 39.1875 -7.890625 35.96875 -4.359375 C 32.757812 -0.828125 28.015625 0.9375 21.734375 0.9375 C 15.460938 0.9375 10.71875 -0.828125 7.5 -4.359375 C 4.28125 -7.890625 2.671875 -12.945312 2.671875 -19.53125 L 2.671875 -24.53125 L 14.765625 -24.53125 L 14.765625 -18.71875 C 14.765625 -15.769531 15.363281 -13.710938 16.5625 -12.546875 C 17.769531 -11.390625 19.378906 -10.8125 21.390625 -10.8125 C 23.398438 -10.8125 25.003906 -11.390625 26.203125 -12.546875 C 27.410156 -13.710938 28.015625 -15.769531 28.015625 -18.71875 C 28.015625 -21.507812 27.394531 -23.96875 26.15625 -26.09375 C 24.914062 -28.226562 23.363281 -30.242188 21.5 -32.140625 C 19.644531 -34.035156 17.648438 -35.929688 15.515625 -37.828125 C 13.390625 -39.734375 11.394531 -41.8125 9.53125 -44.0625 C 7.675781 -46.3125 6.125 -48.867188 4.875 -51.734375 C 3.632812 -54.597656 3.015625 -57.96875 3.015625 -61.84375 Z M 3.015625 -61.84375 "/></g></g></g><g fill="#4282aa" fill-opacity="1"><g transform="translate(44.352409, 86.2273)"><g><path d="M 41.734375 -30.34375 L 41.734375 -19.53125 C 41.734375 -12.945312 40.125 -7.890625 36.90625 -4.359375 C 33.6875 -0.828125 28.941406 0.9375 22.671875 0.9375 C 16.390625 0.9375 11.640625 -0.828125 8.421875 -4.359375 C 5.210938 -7.890625 3.609375 -12.945312 3.609375 -19.53125 L 3.609375 -61.84375 C 3.609375 -68.425781 5.210938 -73.484375 8.421875 -77.015625 C 11.640625 -80.546875 16.390625 -82.3125 22.671875 -82.3125 C 28.941406 -82.3125 33.6875 -80.546875 36.90625 -77.015625 C 40.125 -73.484375 41.734375 -68.425781 41.734375 -61.84375 L 41.734375 -53.9375 L 29.640625 -53.9375 L 29.640625 -62.65625 C 29.640625 -65.601562 29.039062 -67.675781 27.84375 -68.875 C 26.644531 -70.082031 25.035156 -70.6875 23.015625 -70.6875 C 21.003906 -70.6875 19.394531 -70.082031 18.1875 -68.875 C 16.988281 -67.675781 16.390625 -65.601562 16.390625 -62.65625 L 16.390625 -18.71875 C 16.390625 -15.769531 16.988281 -13.710938 18.1875 -12.546875 C 19.394531 -11.390625 21.003906 -10.8125 23.015625 -10.8125 C 25.035156 -10.8125 26.644531 -11.390625 27.84375 -12.546875 C 29.039062 -13.710938 29.640625 -15.769531 29.640625 -18.71875 L 29.640625 -30.34375 Z M 41.734375 -30.34375 "/></g></g></g><g fill="#4282aa" fill-opacity="1"><g transform="translate(89.219378, 86.2273)"><g><path d="M 46.03125 0 L 33.125 0 L 30.921875 -14.765625 L 15.234375 -14.765625 L 13.015625 0 L 1.28125 0 L 14.296875 -81.375 L 33.015625 -81.375 Z M 16.859375 -25.8125 L 29.171875 -25.8125 L 23.015625 -66.953125 Z M 16.859375 -25.8125 "/></g></g></g><g fill="#4282aa" fill-opacity="1"><g transform="translate(136.527278, 86.2273)"><g><path d="M 16.046875 -58.9375 L 16.046875 0 L 4.53125 0 L 4.53125 -81.375 L 20.578125 -81.375 L 33.71875 -32.671875 L 33.71875 -81.375 L 45.109375 -81.375 L 45.109375 0 L 31.96875 0 Z M 16.046875 -58.9375 "/></g></g></g><g fill="#4282aa" fill-opacity="1"><g transform="translate(186.159892, 86.2273)"><g/></g></g><g fill="#4282aa" fill-opacity="1"><g transform="translate(204.176411, 86.2273)"><g><path d="M 17.4375 0 L 4.65625 0 L 4.65625 -81.375 L 17.4375 -81.375 L 17.4375 -46.5 L 31.96875 -46.5 L 31.96875 -81.375 L 44.984375 -81.375 L 44.984375 0 L 31.96875 0 L 31.96875 -34.875 L 17.4375 -34.875 Z M 17.4375 0 "/></g></g></g><g fill="#4282aa" fill-opacity="1"><g transform="translate(253.809025, 86.2273)"><g><path d="M 17.4375 -47.078125 L 34.984375 -47.078125 L 34.984375 -35.453125 L 17.4375 -35.453125 L 17.4375 -11.625 L 39.53125 -11.625 L 39.53125 0 L 4.65625 0 L 4.65625 -81.375 L 39.53125 -81.375 L 39.53125 -69.75 L 17.4375 -69.75 Z M 17.4375 -47.078125 "/></g></g></g><g fill="#4282aa" fill-opacity="1"><g transform="translate(296.583741, 86.2273)"><g><path d="M 31.390625 0 C 31.234375 -0.539062 31.078125 -1.039062 30.921875 -1.5 C 30.765625 -1.96875 30.628906 -2.550781 30.515625 -3.25 C 30.398438 -3.945312 30.320312 -4.835938 30.28125 -5.921875 C 30.238281 -7.015625 30.21875 -8.375 30.21875 -10 L 30.21875 -22.78125 C 30.21875 -26.582031 29.554688 -29.253906 28.234375 -30.796875 C 26.921875 -32.347656 24.796875 -33.125 21.859375 -33.125 L 17.4375 -33.125 L 17.4375 0 L 4.65625 0 L 4.65625 -81.375 L 23.953125 -81.375 C 30.609375 -81.375 35.425781 -79.820312 38.40625 -76.71875 C 41.394531 -73.625 42.890625 -68.9375 42.890625 -62.65625 L 42.890625 -56.265625 C 42.890625 -47.890625 40.101562 -42.382812 34.53125 -39.75 C 37.78125 -38.4375 40.003906 -36.285156 41.203125 -33.296875 C 42.410156 -30.316406 43.015625 -26.695312 43.015625 -22.4375 L 43.015625 -9.875 C 43.015625 -7.863281 43.09375 -6.101562 43.25 -4.59375 C 43.40625 -3.082031 43.789062 -1.550781 44.40625 0 Z M 17.4375 -69.75 L 17.4375 -44.75 L 22.4375 -44.75 C 24.84375 -44.75 26.722656 -45.367188 28.078125 -46.609375 C 29.429688 -47.847656 30.109375 -50.097656 30.109375 -53.359375 L 30.109375 -61.375 C 30.109375 -64.320312 29.582031 -66.453125 28.53125 -67.765625 C 27.488281 -69.085938 25.84375 -69.75 23.59375 -69.75 Z M 17.4375 -69.75 "/></g></g></g><g fill="#4282aa" fill-opacity="1"><g transform="translate(343.31048, 86.2273)"><g><path d="M 17.4375 -47.078125 L 34.984375 -47.078125 L 34.984375 -35.453125 L 17.4375 -35.453125 L 17.4375 -11.625 L 39.53125 -11.625 L 39.53125 0 L 4.65625 0 L 4.65625 -81.375 L 39.53125 -81.375 L 39.53125 -69.75 L 17.4375 -69.75 Z M 17.4375 -47.078125 "/></g></g></g></g></g><g transform="matrix(1, 0, 0, 1, 195, 561)"><g clip-path="url(#b65d97002a)"><g fill="#ffffff" fill-opacity="1"><g transform="translate(1.449413, 34.934854)"><g><path d="M 3.3125 0 L 3.3125 -22.75 L 11.015625 -22.75 C 12.722656 -22.75 14.210938 -22.429688 15.484375 -21.796875 C 16.753906 -21.171875 17.734375 -20.289062 18.421875 -19.15625 C 19.117188 -18.019531 19.46875 -16.671875 19.46875 -15.109375 C 19.46875 -13.546875 19.117188 -12.195312 18.421875 -11.0625 C 17.734375 -9.925781 16.753906 -9.039062 15.484375 -8.40625 C 14.210938 -7.78125 12.722656 -7.46875 11.015625 -7.46875 L 6.171875 -7.46875 L 6.171875 0 Z M 6.171875 -10.140625 L 10.953125 -10.140625 C 14.679688 -10.140625 16.546875 -11.785156 16.546875 -15.078125 C 16.546875 -18.367188 14.679688 -20.015625 10.953125 -20.015625 L 6.171875 -20.015625 Z M 6.171875 -10.140625 "/></g></g></g><g fill="#ffffff" fill-opacity="1"><g transform="translate(22.2093, 34.934854)"><g><path d="M 3.3125 0 L 3.3125 -22.75 L 6.171875 -22.75 L 6.171875 -2.734375 L 17.21875 -2.734375 L 17.21875 0 Z M 3.3125 0 "/></g></g></g><g fill="#ffffff" fill-opacity="1"><g transform="translate(40.435109, 34.934854)"><g><path d="M 0.546875 0 L 9.90625 -22.75 L 12.578125 -22.75 L 21.9375 0 L 18.921875 0 L 16.765625 -5.171875 L 5.6875 -5.171875 L 3.609375 0 Z M 6.796875 -7.828125 L 15.703125 -7.828125 L 11.25 -18.75 Z M 6.796875 -7.828125 "/></g></g></g><g fill="#ffffff" fill-opacity="1"><g transform="translate(62.916861, 34.934854)"><g><path d="M 13.390625 0.421875 C 11.722656 0.421875 10.179688 0.128906 8.765625 -0.453125 C 7.359375 -1.035156 6.140625 -1.851562 5.109375 -2.90625 C 4.085938 -3.957031 3.296875 -5.203125 2.734375 -6.640625 C 2.171875 -8.085938 1.890625 -9.664062 1.890625 -11.375 C 1.890625 -13.082031 2.171875 -14.65625 2.734375 -16.09375 C 3.296875 -17.539062 4.085938 -18.789062 5.109375 -19.84375 C 6.140625 -20.894531 7.359375 -21.710938 8.765625 -22.296875 C 10.179688 -22.878906 11.722656 -23.171875 13.390625 -23.171875 C 15.191406 -23.171875 16.84375 -22.835938 18.34375 -22.171875 C 19.851562 -21.515625 21.144531 -20.570312 22.21875 -19.34375 C 23.289062 -18.125 24.070312 -16.679688 24.5625 -15.015625 L 21.515625 -15.015625 C 20.929688 -16.660156 19.914062 -17.953125 18.46875 -18.890625 C 17.03125 -19.835938 15.367188 -20.3125 13.484375 -20.3125 C 11.796875 -20.3125 10.300781 -19.929688 9 -19.171875 C 7.695312 -18.410156 6.671875 -17.359375 5.921875 -16.015625 C 5.179688 -14.671875 4.8125 -13.125 4.8125 -11.375 C 4.8125 -9.625 5.179688 -8.078125 5.921875 -6.734375 C 6.671875 -5.390625 7.695312 -4.335938 9 -3.578125 C 10.300781 -2.816406 11.796875 -2.4375 13.484375 -2.4375 C 15.410156 -2.4375 17.117188 -2.929688 18.609375 -3.921875 C 20.109375 -4.921875 21.15625 -6.28125 21.75 -8 L 24.765625 -8 C 24.304688 -6.300781 23.53125 -4.820312 22.4375 -3.5625 C 21.34375 -2.3125 20.019531 -1.332031 18.46875 -0.625 C 16.925781 0.0703125 15.234375 0.421875 13.390625 0.421875 Z M 13.390625 0.421875 "/></g></g></g><g fill="#ffffff" fill-opacity="1"><g transform="translate(89.427134, 34.934854)"><g><path d="M 3.3125 0 L 3.3125 -22.75 L 17.125 -22.75 L 17.125 -20.078125 L 6.171875 -20.078125 L 6.171875 -12.90625 L 16.3125 -12.90625 L 16.3125 -10.265625 L 6.171875 -10.265625 L 6.171875 -2.671875 L 17.484375 -2.671875 L 17.484375 0 Z M 3.3125 0 "/></g></g></g><g fill="#ffffff" fill-opacity="1"><g transform="translate(109.017444, 34.934854)"><g><path d="M 3.3125 0 L 3.3125 -22.75 L 5.984375 -22.75 L 14.921875 -9.265625 L 23.796875 -22.75 L 26.453125 -22.75 L 26.453125 0 L 23.59375 0 L 23.59375 -17.390625 L 16.0625 -6.046875 L 13.71875 -6.046875 L 6.171875 -17.421875 L 6.171875 0 Z M 3.3125 0 "/></g></g></g><g fill="#ffffff" fill-opacity="1"><g transform="translate(138.77653, 34.934854)"><g><path d="M 3.3125 0 L 3.3125 -22.75 L 17.125 -22.75 L 17.125 -20.078125 L 6.171875 -20.078125 L 6.171875 -12.90625 L 16.3125 -12.90625 L 16.3125 -10.265625 L 6.171875 -10.265625 L 6.171875 -2.671875 L 17.484375 -2.671875 L 17.484375 0 Z M 3.3125 0 "/></g></g></g><g fill="#ffffff" fill-opacity="1"><g transform="translate(158.366841, 34.934854)"><g><path d="M 3.3125 0 L 3.3125 -22.75 L 6.015625 -22.75 L 18.59375 -4.9375 L 18.59375 -22.75 L 21.390625 -22.75 L 21.390625 0 L 18.71875 0 L 6.140625 -17.8125 L 6.140625 0 Z M 3.3125 0 "/></g></g></g><g fill="#ffffff" fill-opacity="1"><g transform="translate(183.057792, 34.934854)"><g><path d="M 8.8125 0 L 8.8125 -20.015625 L 1.109375 -20.015625 L 1.109375 -22.75 L 19.34375 -22.75 L 19.34375 -20.015625 L 11.671875 -20.015625 L 11.671875 0 Z M 8.8125 0 "/></g></g></g></g></g><g transform="matrix(1, 0, 0, 1, 192, 701)"><g clip-path="url(#1d8a25394d)"><g clip-path="url(#1f38bae723)"><g fill="#ffffff" fill-opacity="1"><g transform="translate(0.342094, 17.826725)"><g><path d="M 3.3125 0 L 0.28125 -8.453125 L 1.71875 -8.453125 L 3.078125 -4.625 L 3.984375 -2.03125 L 4.984375 -4.625 L 6.4375 -8.453125 L 7.6875 -8.453125 L 10.15625 -2.046875 L 11.0625 -4.625 L 12.421875 -8.453125 L 13.859375 -8.453125 L 10.828125 0 L 9.53125 0 L 8.171875 -3.484375 L 7.0625 -6.4375 L 4.625 0 Z M 3.3125 0 "/></g></g></g></g><g fill="#ffffff" fill-opacity="1"><g transform="translate(14.466386, 17.826725)"><g><path d="M 3.3125 0 L 0.28125 -8.453125 L 1.71875 -8.453125 L 3.078125 -4.625 L 3.984375 -2.03125 L 4.984375 -4.625 L 6.4375 -8.453125 L 7.6875 -8.453125 L 10.15625 -2.046875 L 11.0625 -4.625 L 12.421875 -8.453125 L 13.859375 -8.453125 L 10.828125 0 L 9.53125 0 L 8.171875 -3.484375 L 7.0625 -6.4375 L 4.625 0 Z M 3.3125 0 "/></g></g></g><g fill="#ffffff" fill-opacity="1"><g transform="translate(28.590679, 17.826725)"><g><path d="M 3.3125 0 L 0.28125 -8.453125 L 1.71875 -8.453125 L 3.078125 -4.625 L 3.984375 -2.03125 L 4.984375 -4.625 L 6.4375 -8.453125 L 7.6875 -8.453125 L 10.15625 -2.046875 L 11.0625 -4.625 L 12.421875 -8.453125 L 13.859375 -8.453125 L 10.828125 0 L 9.53125 0 L 8.171875 -3.484375 L 7.0625 -6.4375 L 4.625 0 Z M 3.3125 0 "/></g></g></g><g fill="#ffffff" fill-opacity="1"><g transform="translate(42.714971, 17.826725)"><g><path d="M 2.078125 0.125 C 1.753906 0.125 1.492188 0.0234375 1.296875 -0.171875 C 1.097656 -0.378906 1 -0.632812 1 -0.9375 C 1 -1.257812 1.097656 -1.515625 1.296875 -1.703125 C 1.492188 -1.898438 1.753906 -2 2.078125 -2 C 2.421875 -2 2.691406 -1.898438 2.890625 -1.703125 C 3.085938 -1.515625 3.1875 -1.257812 3.1875 -0.9375 C 3.1875 -0.632812 3.085938 -0.378906 2.890625 -0.171875 C 2.691406 0.0234375 2.421875 0.125 2.078125 0.125 Z M 2.078125 0.125 "/></g></g></g><g fill="#ffffff" fill-opacity="1"><g transform="translate(46.896935, 17.826725)"><g><path d="M 1.515625 0 L 1.515625 -8.453125 L 2.640625 -8.453125 L 2.796875 -6.984375 C 3.097656 -7.492188 3.472656 -7.863281 3.921875 -8.09375 C 4.378906 -8.332031 4.96875 -8.453125 5.6875 -8.453125 L 6.453125 -8.453125 L 6.453125 -7.1875 L 5.609375 -7.1875 C 5.109375 -7.1875 4.648438 -7.082031 4.234375 -6.875 C 3.816406 -6.664062 3.484375 -6.320312 3.234375 -5.84375 C 2.992188 -5.363281 2.875 -4.722656 2.875 -3.921875 L 2.875 0 Z M 1.515625 0 "/></g></g></g><g fill="#ffffff" fill-opacity="1"><g transform="translate(53.991625, 17.826725)"><g><path d="M 5.171875 0.21875 C 4.328125 0.21875 3.578125 0.03125 2.921875 -0.34375 C 2.273438 -0.71875 1.765625 -1.242188 1.390625 -1.921875 C 1.023438 -2.597656 0.84375 -3.367188 0.84375 -4.234375 C 0.84375 -5.097656 1.023438 -5.863281 1.390625 -6.53125 C 1.765625 -7.195312 2.28125 -7.71875 2.9375 -8.09375 C 3.59375 -8.46875 4.34375 -8.65625 5.1875 -8.65625 C 6.09375 -8.65625 6.875 -8.441406 7.53125 -8.015625 C 8.195312 -7.597656 8.707031 -7.015625 9.0625 -6.265625 C 9.414062 -5.523438 9.578125 -4.660156 9.546875 -3.671875 L 2.234375 -3.671875 C 2.335938 -2.878906 2.65625 -2.25 3.1875 -1.78125 C 3.71875 -1.3125 4.382812 -1.078125 5.1875 -1.078125 C 5.75 -1.078125 6.253906 -1.195312 6.703125 -1.4375 C 7.160156 -1.675781 7.519531 -2.015625 7.78125 -2.453125 L 9.328125 -2.453125 C 8.992188 -1.628906 8.457031 -0.976562 7.71875 -0.5 C 6.976562 -0.0195312 6.128906 0.21875 5.171875 0.21875 Z M 2.25 -4.890625 L 8.171875 -4.890625 C 8.035156 -5.660156 7.695312 -6.265625 7.15625 -6.703125 C 6.613281 -7.148438 5.957031 -7.375 5.1875 -7.375 C 4.40625 -7.375 3.75 -7.144531 3.21875 -6.6875 C 2.6875 -6.238281 2.363281 -5.640625 2.25 -4.890625 Z M 2.25 -4.890625 "/></g></g></g><g fill="#ffffff" fill-opacity="1"><g transform="translate(64.340761, 17.826725)"><g><path d="M 4.28125 0.125 C 3.257812 0.125 2.460938 -0.101562 1.890625 -0.5625 C 1.316406 -1.019531 1.03125 -1.644531 1.03125 -2.4375 C 1.03125 -3.207031 1.296875 -3.820312 1.828125 -4.28125 C 2.359375 -4.738281 3.0625 -4.96875 3.9375 -4.96875 L 7.390625 -4.96875 L 7.390625 -5.28125 C 7.390625 -5.9375 7.179688 -6.453125 6.765625 -6.828125 C 6.359375 -7.203125 5.796875 -7.390625 5.078125 -7.390625 C 4.535156 -7.390625 4.0625 -7.265625 3.65625 -7.015625 C 3.257812 -6.773438 2.988281 -6.453125 2.84375 -6.046875 L 1.46875 -6.046875 C 1.644531 -6.859375 2.054688 -7.492188 2.703125 -7.953125 C 3.347656 -8.421875 4.132812 -8.65625 5.0625 -8.65625 C 5.800781 -8.65625 6.445312 -8.515625 7 -8.234375 C 7.550781 -7.960938 7.984375 -7.578125 8.296875 -7.078125 C 8.609375 -6.585938 8.765625 -6.019531 8.765625 -5.375 L 8.765625 0 L 7.640625 0 L 7.484375 -1.171875 C 6.710938 -0.304688 5.644531 0.125 4.28125 0.125 Z M 2.390625 -2.453125 C 2.390625 -2.046875 2.5625 -1.71875 2.90625 -1.46875 C 3.257812 -1.21875 3.734375 -1.09375 4.328125 -1.09375 C 4.910156 -1.09375 5.429688 -1.207031 5.890625 -1.4375 C 6.347656 -1.664062 6.710938 -1.976562 6.984375 -2.375 C 7.253906 -2.78125 7.394531 -3.242188 7.40625 -3.765625 L 3.984375 -3.765625 C 3.515625 -3.765625 3.128906 -3.644531 2.828125 -3.40625 C 2.535156 -3.175781 2.390625 -2.859375 2.390625 -2.453125 Z M 2.390625 -2.453125 "/></g></g></g><g fill="#ffffff" fill-opacity="1"><g transform="translate(74.429538, 17.826725)"><g><path d="M 1.515625 0 L 1.515625 -12.046875 L 2.875 -12.046875 L 2.875 0 Z M 1.515625 0 "/></g></g></g><g fill="#ffffff" fill-opacity="1"><g transform="translate(78.823038, 17.826725)"><g><path d="M 1.515625 0 L 1.515625 -12.046875 L 2.875 -12.046875 L 2.875 0 Z M 1.515625 0 "/></g></g></g><g fill="#ffffff" fill-opacity="1"><g transform="translate(83.216539, 17.826725)"><g><path d="M 1.21875 3.25 L 1.21875 1.96875 L 2.046875 1.96875 C 2.585938 1.96875 2.984375 1.890625 3.234375 1.734375 C 3.484375 1.578125 3.695312 1.265625 3.875 0.796875 L 4.265625 -0.203125 L 0.265625 -8.453125 L 1.796875 -8.453125 L 3.703125 -4.46875 L 4.9375 -1.84375 L 5.953125 -4.46875 L 7.53125 -8.453125 L 8.984375 -8.453125 L 5.109375 1.3125 C 4.910156 1.820312 4.679688 2.21875 4.421875 2.5 C 4.171875 2.789062 3.867188 2.988281 3.515625 3.09375 C 3.160156 3.195312 2.71875 3.25 2.1875 3.25 Z M 1.21875 3.25 "/></g></g></g><g fill="#ffffff" fill-opacity="1"><g transform="translate(92.45916, 17.826725)"><g><path d="M 5.296875 3.46875 C 4.210938 3.46875 3.3125 3.203125 2.59375 2.671875 C 1.882812 2.148438 1.453125 1.4375 1.296875 0.53125 L 2.6875 0.53125 C 2.8125 1.039062 3.101562 1.445312 3.5625 1.75 C 4.019531 2.050781 4.597656 2.203125 5.296875 2.203125 C 6.179688 2.203125 6.867188 1.960938 7.359375 1.484375 C 7.847656 1.003906 8.09375 0.332031 8.09375 -0.53125 L 8.09375 -1.328125 C 7.71875 -0.941406 7.269531 -0.632812 6.75 -0.40625 C 6.226562 -0.1875 5.664062 -0.078125 5.0625 -0.078125 C 4.257812 -0.078125 3.539062 -0.265625 2.90625 -0.640625 C 2.269531 -1.015625 1.765625 -1.523438 1.390625 -2.171875 C 1.023438 -2.816406 0.84375 -3.550781 0.84375 -4.375 C 0.84375 -5.195312 1.023438 -5.925781 1.390625 -6.5625 C 1.765625 -7.207031 2.269531 -7.71875 2.90625 -8.09375 C 3.539062 -8.46875 4.257812 -8.65625 5.0625 -8.65625 C 5.707031 -8.65625 6.296875 -8.535156 6.828125 -8.296875 C 7.367188 -8.054688 7.820312 -7.726562 8.1875 -7.3125 L 8.34375 -8.453125 L 9.453125 -8.453125 L 9.453125 -0.484375 C 9.453125 0.304688 9.28125 1 8.9375 1.59375 C 8.601562 2.1875 8.125 2.644531 7.5 2.96875 C 6.875 3.300781 6.140625 3.46875 5.296875 3.46875 Z M 2.21875 -4.375 C 2.21875 -3.800781 2.34375 -3.289062 2.59375 -2.84375 C 2.851562 -2.394531 3.207031 -2.046875 3.65625 -1.796875 C 4.113281 -1.546875 4.628906 -1.421875 5.203125 -1.421875 C 5.796875 -1.421875 6.316406 -1.546875 6.765625 -1.796875 C 7.210938 -2.046875 7.5625 -2.394531 7.8125 -2.84375 C 8.070312 -3.289062 8.203125 -3.800781 8.203125 -4.375 C 8.203125 -4.957031 8.070312 -5.46875 7.8125 -5.90625 C 7.5625 -6.351562 7.210938 -6.703125 6.765625 -6.953125 C 6.316406 -7.210938 5.796875 -7.34375 5.203125 -7.34375 C 4.628906 -7.34375 4.113281 -7.210938 3.65625 -6.953125 C 3.207031 -6.703125 2.851562 -6.351562 2.59375 -5.90625 C 2.34375 -5.46875 2.21875 -4.957031 2.21875 -4.375 Z M 2.21875 -4.375 "/></g></g></g><g fill="#ffffff" fill-opacity="1"><g transform="translate(103.426648, 17.826725)"><g><path d="M 1.515625 0 L 1.515625 -8.453125 L 2.640625 -8.453125 L 2.796875 -6.984375 C 3.097656 -7.492188 3.472656 -7.863281 3.921875 -8.09375 C 4.378906 -8.332031 4.96875 -8.453125 5.6875 -8.453125 L 6.453125 -8.453125 L 6.453125 -7.1875 L 5.609375 -7.1875 C 5.109375 -7.1875 4.648438 -7.082031 4.234375 -6.875 C 3.816406 -6.664062 3.484375 -6.320312 3.234375 -5.84375 C 2.992188 -5.363281 2.875 -4.722656 2.875 -3.921875 L 2.875 0 Z M 1.515625 0 "/></g></g></g><g fill="#ffffff" fill-opacity="1"><g transform="translate(110.521337, 17.826725)"><g><path d="M 5.171875 0.21875 C 4.328125 0.21875 3.578125 0.03125 2.921875 -0.34375 C 2.273438 -0.71875 1.765625 -1.242188 1.390625 -1.921875 C 1.023438 -2.597656 0.84375 -3.367188 0.84375 -4.234375 C 0.84375 -5.097656 1.023438 -5.863281 1.390625 -6.53125 C 1.765625 -7.195312 2.28125 -7.71875 2.9375 -8.09375 C 3.59375 -8.46875 4.34375 -8.65625 5.1875 -8.65625 C 6.09375 -8.65625 6.875 -8.441406 7.53125 -8.015625 C 8.195312 -7.597656 8.707031 -7.015625 9.0625 -6.265625 C 9.414062 -5.523438 9.578125 -4.660156 9.546875 -3.671875 L 2.234375 -3.671875 C 2.335938 -2.878906 2.65625 -2.25 3.1875 -1.78125 C 3.71875 -1.3125 4.382812 -1.078125 5.1875 -1.078125 C 5.75 -1.078125 6.253906 -1.195312 6.703125 -1.4375 C 7.160156 -1.675781 7.519531 -2.015625 7.78125 -2.453125 L 9.328125 -2.453125 C 8.992188 -1.628906 8.457031 -0.976562 7.71875 -0.5 C 6.976562 -0.0195312 6.128906 0.21875 5.171875 0.21875 Z M 2.25 -4.890625 L 8.171875 -4.890625 C 8.035156 -5.660156 7.695312 -6.265625 7.15625 -6.703125 C 6.613281 -7.148438 5.957031 -7.375 5.1875 -7.375 C 4.40625 -7.375 3.75 -7.144531 3.21875 -6.6875 C 2.6875 -6.238281 2.363281 -5.640625 2.25 -4.890625 Z M 2.25 -4.890625 "/></g></g></g><g fill="#ffffff" fill-opacity="1"><g transform="translate(120.870474, 17.826725)"><g><path d="M 4.28125 0.125 C 3.257812 0.125 2.460938 -0.101562 1.890625 -0.5625 C 1.316406 -1.019531 1.03125 -1.644531 1.03125 -2.4375 C 1.03125 -3.207031 1.296875 -3.820312 1.828125 -4.28125 C 2.359375 -4.738281 3.0625 -4.96875 3.9375 -4.96875 L 7.390625 -4.96875 L 7.390625 -5.28125 C 7.390625 -5.9375 7.179688 -6.453125 6.765625 -6.828125 C 6.359375 -7.203125 5.796875 -7.390625 5.078125 -7.390625 C 4.535156 -7.390625 4.0625 -7.265625 3.65625 -7.015625 C 3.257812 -6.773438 2.988281 -6.453125 2.84375 -6.046875 L 1.46875 -6.046875 C 1.644531 -6.859375 2.054688 -7.492188 2.703125 -7.953125 C 3.347656 -8.421875 4.132812 -8.65625 5.0625 -8.65625 C 5.800781 -8.65625 6.445312 -8.515625 7 -8.234375 C 7.550781 -7.960938 7.984375 -7.578125 8.296875 -7.078125 C 8.609375 -6.585938 8.765625 -6.019531 8.765625 -5.375 L 8.765625 0 L 7.640625 0 L 7.484375 -1.171875 C 6.710938 -0.304688 5.644531 0.125 4.28125 0.125 Z M 2.390625 -2.453125 C 2.390625 -2.046875 2.5625 -1.71875 2.90625 -1.46875 C 3.257812 -1.21875 3.734375 -1.09375 4.328125 -1.09375 C 4.910156 -1.09375 5.429688 -1.207031 5.890625 -1.4375 C 6.347656 -1.664062 6.710938 -1.976562 6.984375 -2.375 C 7.253906 -2.78125 7.394531 -3.242188 7.40625 -3.765625 L 3.984375 -3.765625 C 3.515625 -3.765625 3.128906 -3.644531 2.828125 -3.40625 C 2.535156 -3.175781 2.390625 -2.859375 2.390625 -2.453125 Z M 2.390625 -2.453125 "/></g></g></g><g fill="#ffffff" fill-opacity="1"><g transform="translate(130.959239, 17.826725)"><g><path d="M 5.15625 0 C 4.226562 0 3.503906 -0.265625 2.984375 -0.796875 C 2.472656 -1.328125 2.21875 -2.078125 2.21875 -3.046875 L 2.21875 -7.203125 L 0.4375 -7.203125 L 0.4375 -8.453125 L 1.28125 -8.453125 C 1.675781 -8.453125 1.945312 -8.515625 2.09375 -8.640625 C 2.25 -8.773438 2.347656 -9.03125 2.390625 -9.40625 L 2.53125 -10.546875 L 3.578125 -10.546875 L 3.578125 -8.453125 L 6.3125 -8.453125 L 6.3125 -7.203125 L 3.578125 -7.203125 L 3.578125 -3.109375 C 3.578125 -1.910156 4.125 -1.3125 5.21875 -1.3125 L 6.4375 -1.3125 L 6.4375 0 Z M 5.15625 0 "/></g></g></g><g fill="#ffffff" fill-opacity="1"><g transform="translate(138.184115, 17.826725)"><g><path d="M 4.578125 0.21875 C 3.472656 0.21875 2.582031 -0.046875 1.90625 -0.578125 C 1.238281 -1.109375 0.894531 -1.800781 0.875 -2.65625 L 2.234375 -2.65625 C 2.253906 -2.144531 2.46875 -1.742188 2.875 -1.453125 C 3.289062 -1.160156 3.863281 -1.015625 4.59375 -1.015625 C 5.226562 -1.015625 5.726562 -1.125 6.09375 -1.34375 C 6.46875 -1.5625 6.65625 -1.863281 6.65625 -2.25 C 6.65625 -2.625 6.460938 -2.929688 6.078125 -3.171875 C 5.691406 -3.410156 5.085938 -3.601562 4.265625 -3.75 C 3.179688 -3.925781 2.375 -4.222656 1.84375 -4.640625 C 1.320312 -5.054688 1.0625 -5.59375 1.0625 -6.25 C 1.0625 -7.007812 1.347656 -7.597656 1.921875 -8.015625 C 2.503906 -8.441406 3.304688 -8.65625 4.328125 -8.65625 C 5.367188 -8.65625 6.203125 -8.425781 6.828125 -7.96875 C 7.453125 -7.507812 7.789062 -6.863281 7.84375 -6.03125 L 6.5 -6.03125 C 6.457031 -6.488281 6.25 -6.835938 5.875 -7.078125 C 5.5 -7.328125 4.988281 -7.453125 4.34375 -7.453125 C 3.738281 -7.453125 3.265625 -7.347656 2.921875 -7.140625 C 2.578125 -6.929688 2.40625 -6.632812 2.40625 -6.25 C 2.40625 -5.894531 2.578125 -5.613281 2.921875 -5.40625 C 3.273438 -5.207031 3.890625 -5.023438 4.765625 -4.859375 C 6.929688 -4.429688 8.015625 -3.550781 8.015625 -2.21875 C 8.015625 -1.488281 7.703125 -0.898438 7.078125 -0.453125 C 6.453125 -0.00390625 5.617188 0.21875 4.578125 0.21875 Z M 4.578125 0.21875 "/></g></g></g><g fill="#ffffff" fill-opacity="1"><g transform="translate(147.068751, 17.826725)"><g><path d="M 1.515625 0 L 1.515625 -8.453125 L 2.875 -8.453125 L 2.875 0 Z M 1.09375 -10.90625 C 1.09375 -11.21875 1.191406 -11.472656 1.390625 -11.671875 C 1.585938 -11.878906 1.859375 -11.984375 2.203125 -11.984375 C 2.535156 -11.984375 2.796875 -11.878906 2.984375 -11.671875 C 3.179688 -11.472656 3.28125 -11.21875 3.28125 -10.90625 C 3.28125 -10.601562 3.179688 -10.347656 2.984375 -10.140625 C 2.796875 -9.941406 2.535156 -9.84375 2.203125 -9.84375 C 1.859375 -9.84375 1.585938 -9.941406 1.390625 -10.140625 C 1.191406 -10.347656 1.09375 -10.601562 1.09375 -10.90625 Z M 1.09375 -10.90625 "/></g></g></g><g fill="#ffffff" fill-opacity="1"><g transform="translate(151.462251, 17.826725)"><g><path d="M 5.15625 0 C 4.226562 0 3.503906 -0.265625 2.984375 -0.796875 C 2.472656 -1.328125 2.21875 -2.078125 2.21875 -3.046875 L 2.21875 -7.203125 L 0.4375 -7.203125 L 0.4375 -8.453125 L 1.28125 -8.453125 C 1.675781 -8.453125 1.945312 -8.515625 2.09375 -8.640625 C 2.25 -8.773438 2.347656 -9.03125 2.390625 -9.40625 L 2.53125 -10.546875 L 3.578125 -10.546875 L 3.578125 -8.453125 L 6.3125 -8.453125 L 6.3125 -7.203125 L 3.578125 -7.203125 L 3.578125 -3.109375 C 3.578125 -1.910156 4.125 -1.3125 5.21875 -1.3125 L 6.4375 -1.3125 L 6.4375 0 Z M 5.15625 0 "/></g></g></g><g fill="#ffffff" fill-opacity="1"><g transform="translate(158.687127, 17.826725)"><g><path d="M 5.171875 0.21875 C 4.328125 0.21875 3.578125 0.03125 2.921875 -0.34375 C 2.273438 -0.71875 1.765625 -1.242188 1.390625 -1.921875 C 1.023438 -2.597656 0.84375 -3.367188 0.84375 -4.234375 C 0.84375 -5.097656 1.023438 -5.863281 1.390625 -6.53125 C 1.765625 -7.195312 2.28125 -7.71875 2.9375 -8.09375 C 3.59375 -8.46875 4.34375 -8.65625 5.1875 -8.65625 C 6.09375 -8.65625 6.875 -8.441406 7.53125 -8.015625 C 8.195312 -7.597656 8.707031 -7.015625 9.0625 -6.265625 C 9.414062 -5.523438 9.578125 -4.660156 9.546875 -3.671875 L 2.234375 -3.671875 C 2.335938 -2.878906 2.65625 -2.25 3.1875 -1.78125 C 3.71875 -1.3125 4.382812 -1.078125 5.1875 -1.078125 C 5.75 -1.078125 6.253906 -1.195312 6.703125 -1.4375 C 7.160156 -1.675781 7.519531 -2.015625 7.78125 -2.453125 L 9.328125 -2.453125 C 8.992188 -1.628906 8.457031 -0.976562 7.71875 -0.5 C 6.976562 -0.0195312 6.128906 0.21875 5.171875 0.21875 Z M 2.25 -4.890625 L 8.171875 -4.890625 C 8.035156 -5.660156 7.695312 -6.265625 7.15625 -6.703125 C 6.613281 -7.148438 5.957031 -7.375 5.1875 -7.375 C 4.40625 -7.375 3.75 -7.144531 3.21875 -6.6875 C 2.6875 -6.238281 2.363281 -5.640625 2.25 -4.890625 Z M 2.25 -4.890625 "/></g></g></g><g fill="#ffffff" fill-opacity="1"><g transform="translate(169.036263, 17.826725)"><g><path d="M 2.078125 0.125 C 1.753906 0.125 1.492188 0.0234375 1.296875 -0.171875 C 1.097656 -0.378906 1 -0.632812 1 -0.9375 C 1 -1.257812 1.097656 -1.515625 1.296875 -1.703125 C 1.492188 -1.898438 1.753906 -2 2.078125 -2 C 2.421875 -2 2.691406 -1.898438 2.890625 -1.703125 C 3.085938 -1.515625 3.1875 -1.257812 3.1875 -0.9375 C 3.1875 -0.632812 3.085938 -0.378906 2.890625 -0.171875 C 2.691406 0.0234375 2.421875 0.125 2.078125 0.125 Z M 2.078125 0.125 "/></g></g></g><g fill="#ffffff" fill-opacity="1"><g transform="translate(173.218222, 17.826725)"><g><path d="M 5.1875 0.21875 C 4.34375 0.21875 3.59375 0.03125 2.9375 -0.34375 C 2.289062 -0.726562 1.78125 -1.257812 1.40625 -1.9375 C 1.03125 -2.613281 0.84375 -3.378906 0.84375 -4.234375 C 0.84375 -5.085938 1.03125 -5.847656 1.40625 -6.515625 C 1.78125 -7.179688 2.289062 -7.703125 2.9375 -8.078125 C 3.59375 -8.460938 4.34375 -8.65625 5.1875 -8.65625 C 5.894531 -8.65625 6.539062 -8.519531 7.125 -8.25 C 7.71875 -7.988281 8.210938 -7.625 8.609375 -7.15625 C 9.015625 -6.6875 9.285156 -6.128906 9.421875 -5.484375 L 8.046875 -5.484375 C 7.796875 -6.066406 7.414062 -6.523438 6.90625 -6.859375 C 6.40625 -7.191406 5.832031 -7.359375 5.1875 -7.359375 C 4.613281 -7.359375 4.101562 -7.222656 3.65625 -6.953125 C 3.207031 -6.691406 2.851562 -6.320312 2.59375 -5.84375 C 2.34375 -5.375 2.21875 -4.835938 2.21875 -4.234375 C 2.21875 -3.628906 2.34375 -3.085938 2.59375 -2.609375 C 2.851562 -2.140625 3.207031 -1.769531 3.65625 -1.5 C 4.101562 -1.238281 4.613281 -1.109375 5.1875 -1.109375 C 5.875 -1.109375 6.472656 -1.289062 6.984375 -1.65625 C 7.503906 -2.019531 7.867188 -2.503906 8.078125 -3.109375 L 9.53125 -3.109375 C 9.238281 -2.085938 8.707031 -1.273438 7.9375 -0.671875 C 7.175781 -0.078125 6.257812 0.21875 5.1875 0.21875 Z M 5.1875 0.21875 "/></g></g></g><g fill="#ffffff" fill-opacity="1"><g transform="translate(183.534821, 17.826725)"><g><path d="M 5.328125 0.21875 C 4.441406 0.21875 3.660156 0.03125 2.984375 -0.34375 C 2.316406 -0.726562 1.789062 -1.257812 1.40625 -1.9375 C 1.03125 -2.613281 0.84375 -3.378906 0.84375 -4.234375 C 0.84375 -5.097656 1.03125 -5.859375 1.40625 -6.515625 C 1.789062 -7.179688 2.316406 -7.703125 2.984375 -8.078125 C 3.660156 -8.460938 4.441406 -8.65625 5.328125 -8.65625 C 6.203125 -8.65625 6.972656 -8.460938 7.640625 -8.078125 C 8.316406 -7.703125 8.84375 -7.179688 9.21875 -6.515625 C 9.601562 -5.859375 9.796875 -5.097656 9.796875 -4.234375 C 9.796875 -3.378906 9.601562 -2.613281 9.21875 -1.9375 C 8.84375 -1.257812 8.316406 -0.726562 7.640625 -0.34375 C 6.972656 0.03125 6.203125 0.21875 5.328125 0.21875 Z M 2.21875 -4.234375 C 2.21875 -3.617188 2.347656 -3.070312 2.609375 -2.59375 C 2.878906 -2.125 3.242188 -1.757812 3.703125 -1.5 C 4.171875 -1.238281 4.710938 -1.109375 5.328125 -1.109375 C 5.929688 -1.109375 6.46875 -1.238281 6.9375 -1.5 C 7.40625 -1.757812 7.769531 -2.125 8.03125 -2.59375 C 8.300781 -3.070312 8.4375 -3.617188 8.4375 -4.234375 C 8.4375 -4.847656 8.300781 -5.390625 8.03125 -5.859375 C 7.769531 -6.328125 7.40625 -6.691406 6.9375 -6.953125 C 6.46875 -7.222656 5.929688 -7.359375 5.328125 -7.359375 C 4.710938 -7.359375 4.171875 -7.222656 3.703125 -6.953125 C 3.242188 -6.691406 2.878906 -6.328125 2.609375 -5.859375 C 2.347656 -5.390625 2.21875 -4.847656 2.21875 -4.234375 Z M 2.21875 -4.234375 "/></g></g></g><g fill="#ffffff" fill-opacity="1"><g transform="translate(194.176844, 17.826725)"><g><path d="M 1.515625 0 L 1.515625 -8.453125 L 2.640625 -8.453125 L 2.765625 -7.390625 C 3.421875 -8.234375 4.335938 -8.65625 5.515625 -8.65625 C 6.191406 -8.65625 6.785156 -8.515625 7.296875 -8.234375 C 7.804688 -7.953125 8.203125 -7.539062 8.484375 -7 C 9.171875 -8.101562 10.21875 -8.65625 11.625 -8.65625 C 12.6875 -8.65625 13.535156 -8.3125 14.171875 -7.625 C 14.804688 -6.945312 15.125 -6.015625 15.125 -4.828125 L 15.125 0 L 13.75 0 L 13.75 -4.609375 C 13.75 -5.441406 13.539062 -6.109375 13.125 -6.609375 C 12.707031 -7.109375 12.148438 -7.359375 11.453125 -7.359375 C 10.722656 -7.359375 10.128906 -7.097656 9.671875 -6.578125 C 9.222656 -6.054688 9 -5.363281 9 -4.5 L 9 0 L 7.640625 0 L 7.640625 -4.609375 C 7.640625 -5.441406 7.425781 -6.109375 7 -6.609375 C 6.582031 -7.109375 6.023438 -7.359375 5.328125 -7.359375 C 4.597656 -7.359375 4.003906 -7.097656 3.546875 -6.578125 C 3.097656 -6.054688 2.875 -5.363281 2.875 -4.5 L 2.875 0 Z M 1.515625 0 "/></g></g></g></g></g><g fill="#101d25" fill-opacity="1"><g transform="translate(150.409736, 240.534345)"><g><path d="M 12.21875 0.375 C 10.164062 0.375 8.34375 -0.0703125 6.75 -0.96875 C 5.15625 -1.875 3.910156 -3.117188 3.015625 -4.703125 C 2.128906 -6.296875 1.6875 -8.125 1.6875 -10.1875 C 1.6875 -12.257812 2.128906 -14.082031 3.015625 -15.65625 C 3.910156 -17.238281 5.15625 -18.484375 6.75 -19.390625 C 8.34375 -20.296875 10.164062 -20.75 12.21875 -20.75 C 14.289062 -20.75 16.117188 -20.296875 17.703125 -19.390625 C 19.285156 -18.484375 20.523438 -17.238281 21.421875 -15.65625 C 22.328125 -14.082031 22.78125 -12.257812 22.78125 -10.1875 C 22.78125 -8.125 22.328125 -6.296875 21.421875 -4.703125 C 20.523438 -3.117188 19.285156 -1.875 17.703125 -0.96875 C 16.117188 -0.0703125 14.289062 0.375 12.21875 0.375 Z M 4.3125 -10.1875 C 4.3125 -8.613281 4.644531 -7.222656 5.3125 -6.015625 C 5.976562 -4.816406 6.90625 -3.878906 8.09375 -3.203125 C 9.289062 -2.523438 10.664062 -2.1875 12.21875 -2.1875 C 13.789062 -2.1875 15.164062 -2.523438 16.34375 -3.203125 C 17.53125 -3.878906 18.457031 -4.816406 19.125 -6.015625 C 19.800781 -7.222656 20.140625 -8.613281 20.140625 -10.1875 C 20.140625 -11.769531 19.800781 -13.15625 19.125 -14.34375 C 18.457031 -15.539062 17.53125 -16.476562 16.34375 -17.15625 C 15.164062 -17.84375 13.789062 -18.1875 12.21875 -18.1875 C 10.664062 -18.1875 9.289062 -17.84375 8.09375 -17.15625 C 6.90625 -16.476562 5.976562 -15.539062 5.3125 -14.34375 C 4.644531 -13.15625 4.3125 -11.769531 4.3125 -10.1875 Z M 4.3125 -10.1875 "/></g></g></g><g fill="#101d25" fill-opacity="1"><g transform="translate(174.849002, 240.534345)"><g><path d="M 2.703125 0 L 2.703125 -15.09375 L 4.71875 -15.09375 L 5 -12.484375 C 5.539062 -13.390625 6.210938 -14.050781 7.015625 -14.46875 C 7.828125 -14.882812 8.875 -15.09375 10.15625 -15.09375 L 11.515625 -15.09375 L 11.515625 -12.828125 L 10.03125 -12.828125 C 9.125 -12.828125 8.300781 -12.640625 7.5625 -12.265625 C 6.820312 -11.898438 6.234375 -11.289062 5.796875 -10.4375 C 5.367188 -9.59375 5.15625 -8.453125 5.15625 -7.015625 L 5.15625 0 Z M 2.703125 0 "/></g></g></g><g fill="#101d25" fill-opacity="1"><g transform="translate(187.534148, 240.534345)"><g><path d="M 9.21875 0.375 C 7.726562 0.375 6.398438 0.03125 5.234375 -0.65625 C 4.066406 -1.34375 3.15625 -2.28125 2.5 -3.46875 C 1.84375 -4.664062 1.515625 -6.03125 1.515625 -7.5625 C 1.515625 -9.09375 1.84375 -10.445312 2.5 -11.625 C 3.15625 -12.8125 4.066406 -13.75 5.234375 -14.4375 C 6.398438 -15.132812 7.726562 -15.484375 9.21875 -15.484375 C 10.40625 -15.484375 11.492188 -15.265625 12.484375 -14.828125 C 13.472656 -14.390625 14.304688 -13.769531 14.984375 -12.96875 L 14.984375 -21.53125 L 17.421875 -21.53125 L 17.421875 0 L 15.421875 0 L 15.125 -2.328125 C 14.445312 -1.492188 13.597656 -0.832031 12.578125 -0.34375 C 11.566406 0.132812 10.445312 0.375 9.21875 0.375 Z M 3.953125 -7.5625 C 3.953125 -6.476562 4.1875 -5.515625 4.65625 -4.671875 C 5.132812 -3.828125 5.789062 -3.164062 6.625 -2.6875 C 7.46875 -2.21875 8.429688 -1.984375 9.515625 -1.984375 C 10.617188 -1.984375 11.585938 -2.21875 12.421875 -2.6875 C 13.253906 -3.164062 13.90625 -3.828125 14.375 -4.671875 C 14.84375 -5.515625 15.078125 -6.476562 15.078125 -7.5625 C 15.078125 -8.644531 14.84375 -9.609375 14.375 -10.453125 C 13.90625 -11.296875 13.253906 -11.957031 12.421875 -12.4375 C 11.585938 -12.914062 10.617188 -13.15625 9.515625 -13.15625 C 8.429688 -13.15625 7.46875 -12.914062 6.625 -12.4375 C 5.789062 -11.957031 5.132812 -11.296875 4.65625 -10.453125 C 4.1875 -9.609375 3.953125 -8.644531 3.953125 -7.5625 Z M 3.953125 -7.5625 "/></g></g></g><g fill="#101d25" fill-opacity="1"><g transform="translate(207.66745, 240.534345)"><g><path d="M 9.25 0.375 C 7.738281 0.375 6.398438 0.0390625 5.234375 -0.625 C 4.066406 -1.289062 3.15625 -2.222656 2.5 -3.421875 C 1.84375 -4.628906 1.515625 -6.007812 1.515625 -7.5625 C 1.515625 -9.113281 1.84375 -10.484375 2.5 -11.671875 C 3.15625 -12.867188 4.070312 -13.800781 5.25 -14.46875 C 6.425781 -15.144531 7.769531 -15.484375 9.28125 -15.484375 C 10.894531 -15.484375 12.289062 -15.101562 13.46875 -14.34375 C 14.65625 -13.582031 15.5625 -12.535156 16.1875 -11.203125 C 16.820312 -9.878906 17.109375 -8.335938 17.046875 -6.578125 L 3.984375 -6.578125 C 4.179688 -5.160156 4.753906 -4.03125 5.703125 -3.1875 C 6.648438 -2.34375 7.84375 -1.921875 9.28125 -1.921875 C 10.269531 -1.921875 11.171875 -2.132812 11.984375 -2.5625 C 12.796875 -2.988281 13.4375 -3.597656 13.90625 -4.390625 L 16.671875 -4.390625 C 16.066406 -2.921875 15.101562 -1.757812 13.78125 -0.90625 C 12.46875 -0.0507812 10.957031 0.375 9.25 0.375 Z M 4.015625 -8.734375 L 14.609375 -8.734375 C 14.359375 -10.109375 13.75 -11.191406 12.78125 -11.984375 C 11.820312 -12.773438 10.65625 -13.171875 9.28125 -13.171875 C 7.882812 -13.171875 6.707031 -12.765625 5.75 -11.953125 C 4.800781 -11.140625 4.222656 -10.066406 4.015625 -8.734375 Z M 4.015625 -8.734375 "/></g></g></g><g fill="#101d25" fill-opacity="1"><g transform="translate(226.17147, 240.534345)"><g><path d="M 2.703125 0 L 2.703125 -15.09375 L 4.71875 -15.09375 L 5 -12.484375 C 5.539062 -13.390625 6.210938 -14.050781 7.015625 -14.46875 C 7.828125 -14.882812 8.875 -15.09375 10.15625 -15.09375 L 11.515625 -15.09375 L 11.515625 -12.828125 L 10.03125 -12.828125 C 9.125 -12.828125 8.300781 -12.640625 7.5625 -12.265625 C 6.820312 -11.898438 6.234375 -11.289062 5.796875 -10.4375 C 5.367188 -9.59375 5.15625 -8.453125 5.15625 -7.015625 L 5.15625 0 Z M 2.703125 0 "/></g></g></g><g fill="#101d25" fill-opacity="1"><g transform="translate(238.856616, 240.534345)"><g/></g></g><g fill="#101d25" fill-opacity="1"><g transform="translate(246.072016, 240.534345)"><g><path d="M 0.5 0 L 8.875 -20.359375 L 11.265625 -20.359375 L 19.640625 0 L 16.9375 0 L 15.015625 -4.625 L 5.09375 -4.625 L 3.234375 0 Z M 6.078125 -7.015625 L 14.046875 -7.015625 L 10.0625 -16.78125 Z M 6.078125 -7.015625 "/></g></g></g><g fill="#101d25" fill-opacity="1"><g transform="translate(266.205319, 240.534345)"><g><path d="M 2.703125 0 L 2.703125 -15.09375 L 4.71875 -15.09375 L 4.96875 -12.890625 C 5.632812 -13.796875 6.4375 -14.453125 7.375 -14.859375 C 8.3125 -15.273438 9.285156 -15.484375 10.296875 -15.484375 C 12.316406 -15.484375 13.890625 -14.84375 15.015625 -13.5625 C 16.140625 -12.28125 16.703125 -10.5625 16.703125 -8.40625 L 16.703125 0 L 14.25 0 L 14.25 -8.171875 C 14.25 -9.703125 13.863281 -10.914062 13.09375 -11.8125 C 12.332031 -12.707031 11.296875 -13.15625 9.984375 -13.15625 C 9.046875 -13.15625 8.210938 -12.925781 7.484375 -12.46875 C 6.765625 -12.007812 6.195312 -11.363281 5.78125 -10.53125 C 5.363281 -9.695312 5.15625 -8.726562 5.15625 -7.625 L 5.15625 0 Z M 2.703125 0 "/></g></g></g><g fill="#101d25" fill-opacity="1"><g transform="translate(285.320311, 240.534345)"><g><path d="M 9.21875 0.375 C 7.726562 0.375 6.398438 0.03125 5.234375 -0.65625 C 4.066406 -1.34375 3.15625 -2.28125 2.5 -3.46875 C 1.84375 -4.664062 1.515625 -6.03125 1.515625 -7.5625 C 1.515625 -9.09375 1.84375 -10.445312 2.5 -11.625 C 3.15625 -12.8125 4.066406 -13.75 5.234375 -14.4375 C 6.398438 -15.132812 7.726562 -15.484375 9.21875 -15.484375 C 10.40625 -15.484375 11.492188 -15.265625 12.484375 -14.828125 C 13.472656 -14.390625 14.304688 -13.769531 14.984375 -12.96875 L 14.984375 -21.53125 L 17.421875 -21.53125 L 17.421875 0 L 15.421875 0 L 15.125 -2.328125 C 14.445312 -1.492188 13.597656 -0.832031 12.578125 -0.34375 C 11.566406 0.132812 10.445312 0.375 9.21875 0.375 Z M 3.953125 -7.5625 C 3.953125 -6.476562 4.1875 -5.515625 4.65625 -4.671875 C 5.132812 -3.828125 5.789062 -3.164062 6.625 -2.6875 C 7.46875 -2.21875 8.429688 -1.984375 9.515625 -1.984375 C 10.617188 -1.984375 11.585938 -2.21875 12.421875 -2.6875 C 13.253906 -3.164062 13.90625 -3.828125 14.375 -4.671875 C 14.84375 -5.515625 15.078125 -6.476562 15.078125 -7.5625 C 15.078125 -8.644531 14.84375 -9.609375 14.375 -10.453125 C 13.90625 -11.296875 13.253906 -11.957031 12.421875 -12.4375 C 11.585938 -12.914062 10.617188 -13.15625 9.515625 -13.15625 C 8.429688 -13.15625 7.46875 -12.914062 6.625 -12.4375 C 5.789062 -11.957031 5.132812 -11.296875 4.65625 -10.453125 C 4.1875 -9.609375 3.953125 -8.644531 3.953125 -7.5625 Z M 3.953125 -7.5625 "/></g></g></g><g fill="#101d25" fill-opacity="1"><g transform="translate(305.453614, 240.534345)"><g/></g></g><g fill="#101d25" fill-opacity="1"><g transform="translate(312.669014, 240.534345)"><g><path d="M 2.96875 0 L 2.96875 -20.359375 L 9.859375 -20.359375 C 11.390625 -20.359375 12.722656 -20.078125 13.859375 -19.515625 C 14.992188 -18.953125 15.867188 -18.160156 16.484375 -17.140625 C 17.109375 -16.128906 17.421875 -14.925781 17.421875 -13.53125 C 17.421875 -12.132812 17.109375 -10.925781 16.484375 -9.90625 C 15.867188 -8.882812 14.992188 -8.09375 13.859375 -7.53125 C 12.722656 -6.96875 11.390625 -6.6875 9.859375 -6.6875 L 5.53125 -6.6875 L 5.53125 0 Z M 5.53125 -9.078125 L 9.796875 -9.078125 C 13.140625 -9.078125 14.8125 -10.550781 14.8125 -13.5 C 14.8125 -16.445312 13.140625 -17.921875 9.796875 -17.921875 L 5.53125 -17.921875 Z M 5.53125 -9.078125 "/></g></g></g><g fill="#101d25" fill-opacity="1"><g transform="translate(331.260307, 240.534345)"><g><path d="M 7.65625 0.234375 C 5.832031 0.234375 4.40625 -0.175781 3.375 -1 C 2.34375 -1.820312 1.828125 -2.941406 1.828125 -4.359375 C 1.828125 -5.742188 2.300781 -6.84375 3.25 -7.65625 C 4.207031 -8.46875 5.472656 -8.875 7.046875 -8.875 L 13.203125 -8.875 L 13.203125 -9.421875 C 13.203125 -10.609375 12.832031 -11.535156 12.09375 -12.203125 C 11.363281 -12.867188 10.359375 -13.203125 9.078125 -13.203125 C 8.109375 -13.203125 7.265625 -12.984375 6.546875 -12.546875 C 5.828125 -12.117188 5.34375 -11.535156 5.09375 -10.796875 L 2.625 -10.796875 C 2.945312 -12.242188 3.6875 -13.382812 4.84375 -14.21875 C 6 -15.0625 7.398438 -15.484375 9.046875 -15.484375 C 10.367188 -15.484375 11.523438 -15.234375 12.515625 -14.734375 C 13.503906 -14.242188 14.273438 -13.554688 14.828125 -12.671875 C 15.378906 -11.785156 15.65625 -10.757812 15.65625 -9.59375 L 15.65625 0 L 13.640625 0 L 13.390625 -2.09375 C 12.003906 -0.539062 10.09375 0.234375 7.65625 0.234375 Z M 4.28125 -4.390625 C 4.28125 -3.648438 4.585938 -3.054688 5.203125 -2.609375 C 5.828125 -2.171875 6.671875 -1.953125 7.734375 -1.953125 C 8.785156 -1.953125 9.71875 -2.15625 10.53125 -2.5625 C 11.34375 -2.96875 11.988281 -3.53125 12.46875 -4.25 C 12.957031 -4.96875 13.210938 -5.789062 13.234375 -6.71875 L 7.125 -6.71875 C 6.289062 -6.71875 5.609375 -6.507812 5.078125 -6.09375 C 4.546875 -5.675781 4.28125 -5.109375 4.28125 -4.390625 Z M 4.28125 -4.390625 "/></g></g></g><g fill="#101d25" fill-opacity="1"><g transform="translate(349.298825, 240.534345)"><g><path d="M 2.1875 5.8125 L 2.1875 3.515625 L 3.671875 3.515625 C 4.640625 3.515625 5.34375 3.375 5.78125 3.09375 C 6.226562 2.8125 6.609375 2.253906 6.921875 1.421875 L 7.625 -0.34375 L 0.46875 -15.09375 L 3.203125 -15.09375 L 6.609375 -7.96875 L 8.8125 -3.28125 L 10.640625 -7.96875 L 13.46875 -15.09375 L 16.0625 -15.09375 L 9.140625 2.359375 C 8.785156 3.265625 8.378906 3.96875 7.921875 4.46875 C 7.472656 4.976562 6.925781 5.328125 6.28125 5.515625 C 5.644531 5.710938 4.851562 5.8125 3.90625 5.8125 Z M 2.1875 5.8125 "/></g></g></g><g fill="#101d25" fill-opacity="1"><g transform="translate(365.824399, 240.534345)"><g/></g></g><g fill="#101d25" fill-opacity="1"><g transform="translate(373.039811, 240.534345)"><g><path d="M 16.328125 0 L 16.328125 -9.171875 L 5.53125 -9.171875 L 5.53125 0 L 2.96875 0 L 2.96875 -20.359375 L 5.53125 -20.359375 L 5.53125 -11.609375 L 16.328125 -11.609375 L 16.328125 -20.359375 L 18.875 -20.359375 L 18.875 0 Z M 16.328125 0 "/></g></g></g><g fill="#101d25" fill-opacity="1"><g transform="translate(394.889693, 240.534345)"><g><path d="M 9.25 0.375 C 7.738281 0.375 6.398438 0.0390625 5.234375 -0.625 C 4.066406 -1.289062 3.15625 -2.222656 2.5 -3.421875 C 1.84375 -4.628906 1.515625 -6.007812 1.515625 -7.5625 C 1.515625 -9.113281 1.84375 -10.484375 2.5 -11.671875 C 3.15625 -12.867188 4.070312 -13.800781 5.25 -14.46875 C 6.425781 -15.144531 7.769531 -15.484375 9.28125 -15.484375 C 10.894531 -15.484375 12.289062 -15.101562 13.46875 -14.34375 C 14.65625 -13.582031 15.5625 -12.535156 16.1875 -11.203125 C 16.820312 -9.878906 17.109375 -8.335938 17.046875 -6.578125 L 3.984375 -6.578125 C 4.179688 -5.160156 4.753906 -4.03125 5.703125 -3.1875 C 6.648438 -2.34375 7.84375 -1.921875 9.28125 -1.921875 C 10.269531 -1.921875 11.171875 -2.132812 11.984375 -2.5625 C 12.796875 -2.988281 13.4375 -3.597656 13.90625 -4.390625 L 16.671875 -4.390625 C 16.066406 -2.921875 15.101562 -1.757812 13.78125 -0.90625 C 12.46875 -0.0507812 10.957031 0.375 9.25 0.375 Z M 4.015625 -8.734375 L 14.609375 -8.734375 C 14.359375 -10.109375 13.75 -11.191406 12.78125 -11.984375 C 11.820312 -12.773438 10.65625 -13.171875 9.28125 -13.171875 C 7.882812 -13.171875 6.707031 -12.765625 5.75 -11.953125 C 4.800781 -11.140625 4.222656 -10.066406 4.015625 -8.734375 Z M 4.015625 -8.734375 "/></g></g></g><g fill="#101d25" fill-opacity="1"><g transform="translate(413.393712, 240.534345)"><g><path d="M 2.703125 0 L 2.703125 -15.09375 L 4.71875 -15.09375 L 5 -12.484375 C 5.539062 -13.390625 6.210938 -14.050781 7.015625 -14.46875 C 7.828125 -14.882812 8.875 -15.09375 10.15625 -15.09375 L 11.515625 -15.09375 L 11.515625 -12.828125 L 10.03125 -12.828125 C 9.125 -12.828125 8.300781 -12.640625 7.5625 -12.265625 C 6.820312 -11.898438 6.234375 -11.289062 5.796875 -10.4375 C 5.367188 -9.59375 5.15625 -8.453125 5.15625 -7.015625 L 5.15625 0 Z M 2.703125 0 "/></g></g></g><g fill="#101d25" fill-opacity="1"><g transform="translate(426.078834, 240.534345)"><g><path d="M 9.25 0.375 C 7.738281 0.375 6.398438 0.0390625 5.234375 -0.625 C 4.066406 -1.289062 3.15625 -2.222656 2.5 -3.421875 C 1.84375 -4.628906 1.515625 -6.007812 1.515625 -7.5625 C 1.515625 -9.113281 1.84375 -10.484375 2.5 -11.671875 C 3.15625 -12.867188 4.070312 -13.800781 5.25 -14.46875 C 6.425781 -15.144531 7.769531 -15.484375 9.28125 -15.484375 C 10.894531 -15.484375 12.289062 -15.101562 13.46875 -14.34375 C 14.65625 -13.582031 15.5625 -12.535156 16.1875 -11.203125 C 16.820312 -9.878906 17.109375 -8.335938 17.046875 -6.578125 L 3.984375 -6.578125 C 4.179688 -5.160156 4.753906 -4.03125 5.703125 -3.1875 C 6.648438 -2.34375 7.84375 -1.921875 9.28125 -1.921875 C 10.269531 -1.921875 11.171875 -2.132812 11.984375 -2.5625 C 12.796875 -2.988281 13.4375 -3.597656 13.90625 -4.390625 L 16.671875 -4.390625 C 16.066406 -2.921875 15.101562 -1.757812 13.78125 -0.90625 C 12.46875 -0.0507812 10.957031 0.375 9.25 0.375 Z M 4.015625 -8.734375 L 14.609375 -8.734375 C 14.359375 -10.109375 13.75 -11.191406 12.78125 -11.984375 C 11.820312 -12.773438 10.65625 -13.171875 9.28125 -13.171875 C 7.882812 -13.171875 6.707031 -12.765625 5.75 -11.953125 C 4.800781 -11.140625 4.222656 -10.066406 4.015625 -8.734375 Z M 4.015625 -8.734375 "/></g></g></g></g></g></g></svg>