<svg xmlns="http://www.w3.org/2000/svg" xmlns:xlink="http://www.w3.org/1999/xlink" width="397" zoomAndPan="magnify" viewBox="0 0 297.75 419.249996" height="559" preserveAspectRatio="xMidYMid meet" version="1.0"><defs><g/><clipPath id="61834c8fba"><path d="M 0.140625 0 L 257.199219 0 L 257.199219 301 L 0.140625 301 Z M 0.140625 0 " clip-rule="nonzero"/></clipPath><clipPath id="57952a4b76"><rect x="0" width="258" y="0" height="301"/></clipPath><clipPath id="c4efba4715"><path d="M 98.78125 327.679688 L 153.398438 327.679688 L 153.398438 381.550781 L 98.78125 381.550781 Z M 98.78125 327.679688 " clip-rule="nonzero"/></clipPath><clipPath id="306bbf30d3"><path d="M 106.261719 327.679688 L 145.917969 327.679688 C 150.046875 327.679688 153.398438 331.03125 153.398438 335.160156 L 153.398438 373.789062 C 153.398438 377.917969 150.046875 381.269531 145.917969 381.269531 L 106.261719 381.269531 C 102.132812 381.269531 98.78125 377.917969 98.78125 373.789062 L 98.78125 335.160156 C 98.78125 331.03125 102.132812 327.679688 106.261719 327.679688 Z M 106.261719 327.679688 " clip-rule="nonzero"/></clipPath><clipPath id="d2333afcfe"><rect x="0" width="193" y="0" height="26"/></clipPath><clipPath id="1ef5828bca"><rect x="0" width="36" y="0" height="34"/></clipPath><clipPath id="d3e5fde7b5"><rect x="0" width="34" y="0" height="17"/></clipPath><clipPath id="34c629f006"><rect x="0" width="258" y="0" height="388"/></clipPath></defs><g transform="matrix(1, 0, 0, 1, 23, 0.000000000000000917)"><g clip-path="url(#34c629f006)"><g clip-path="url(#61834c8fba)"><g transform="matrix(1, 0, 0, 1, 0, 0.000000000000000917)"><g clip-path="url(#57952a4b76)"><g fill="#3d3b3a" fill-opacity="1"><g transform="translate(53.382328, 216.765866)"><g><path d="M 25.34375 -68.546875 C 25.632812 -69.265625 26.078125 -69.550781 26.671875 -69.40625 C 27.273438 -69.257812 27.425781 -68.828125 27.125 -68.109375 C 25.28125 -63.847656 23.175781 -59.390625 20.8125 -54.734375 C 18.457031 -50.078125 15.894531 -45.796875 13.125 -41.890625 C 10.050781 -37.640625 6.796875 -34.515625 3.359375 -32.515625 C -0.0664062 -30.523438 -3.21875 -29.992188 -6.09375 -30.921875 C -8.976562 -31.859375 -11.253906 -34.550781 -12.921875 -39 C -14.585938 -43.445312 -15.210938 -49.929688 -14.796875 -58.453125 C -14.566406 -62.804688 -14.070312 -67.222656 -13.3125 -71.703125 C -12.550781 -76.191406 -11.601562 -80.675781 -10.46875 -85.15625 C -7.664062 -95.519531 -4.578125 -103.6875 -1.203125 -109.65625 C 2.171875 -115.625 5.289062 -119.515625 8.15625 -121.328125 C 11.019531 -123.148438 13.132812 -122.90625 14.5 -120.59375 C 15.875 -118.28125 15.925781 -113.9375 14.65625 -107.5625 C 13.382812 -101.1875 10.265625 -92.847656 5.296875 -82.546875 C 3.191406 -78.222656 0.972656 -74.179688 -1.359375 -70.421875 C -3.691406 -66.660156 -5.726562 -63.550781 -7.46875 -61.09375 C -9.207031 -58.644531 -10.34375 -57.171875 -10.875 -56.671875 C -11.039062 -48.304688 -10.035156 -42.425781 -7.859375 -39.03125 C -5.691406 -35.632812 -2.914062 -34.410156 0.46875 -35.359375 C 3.851562 -36.316406 7.34375 -39.03125 10.9375 -43.5 C 13.695312 -47.03125 16.328125 -51.113281 18.828125 -55.75 C 21.328125 -60.394531 23.5 -64.660156 25.34375 -68.546875 Z M -6.59375 -85.46875 C -8.46875 -77.644531 -9.78125 -69.992188 -10.53125 -62.515625 C -5.445312 -69.003906 -1.066406 -75.941406 2.609375 -83.328125 C 7.078125 -92.117188 10 -99.335938 11.375 -104.984375 C 12.75 -110.640625 13.070312 -114.550781 12.34375 -116.71875 C 11.625 -118.894531 10.207031 -119.28125 8.09375 -117.875 C 5.988281 -116.46875 3.597656 -113.09375 0.921875 -107.75 C -1.753906 -102.414062 -4.257812 -94.988281 -6.59375 -85.46875 Z M -6.59375 -85.46875 "/></g></g></g><g fill="#3d3b3a" fill-opacity="1"><g transform="translate(91.460052, 208.12878)"><g><path d="M 34.203125 -70.265625 C 34.734375 -70.859375 35.21875 -71.015625 35.65625 -70.734375 C 36.09375 -70.460938 36.097656 -70 35.671875 -69.34375 C 30.929688 -62.175781 26.109375 -56.398438 21.203125 -52.015625 C 16.304688 -47.628906 10.367188 -44.316406 3.390625 -42.078125 C 1.910156 -38.179688 0.015625 -35.148438 -2.296875 -32.984375 C -4.617188 -30.816406 -6.925781 -29.539062 -9.21875 -29.15625 C -11.507812 -28.78125 -13.523438 -29.332031 -15.265625 -30.8125 C -17.015625 -32.289062 -18.050781 -34.769531 -18.375 -38.25 C -18.53125 -41.03125 -18.253906 -43.953125 -17.546875 -47.015625 C -18.066406 -49.710938 -17.878906 -52.304688 -16.984375 -54.796875 C -16.097656 -57.285156 -14.78125 -59.523438 -13.03125 -61.515625 C -11.289062 -63.515625 -9.367188 -65.03125 -7.265625 -66.0625 C -5.160156 -67.101562 -3.132812 -67.46875 -1.1875 -67.15625 C 0.75 -66.851562 2.367188 -65.703125 3.671875 -63.703125 C 4.972656 -61.703125 5.628906 -58.59375 5.640625 -54.375 C 5.546875 -53.132812 5.429688 -51.867188 5.296875 -50.578125 C 5.171875 -49.296875 4.945312 -47.957031 4.625 -46.5625 C 11.101562 -48.507812 16.492188 -51.441406 20.796875 -55.359375 C 25.109375 -59.285156 29.578125 -64.253906 34.203125 -70.265625 Z M 2.53125 -53.265625 C 2.414062 -57.910156 1.191406 -60.835938 -1.140625 -62.046875 C -3.472656 -63.253906 -5.804688 -62.976562 -8.140625 -61.21875 C -7.335938 -61.03125 -6.976562 -60.503906 -7.0625 -59.640625 C -7.144531 -58.773438 -7.582031 -58.019531 -8.375 -57.375 C -9.570312 -56.457031 -10.566406 -55.179688 -11.359375 -53.546875 C -12.160156 -51.921875 -12.785156 -50.398438 -13.234375 -48.984375 C -12.640625 -47.242188 -11.546875 -46.0625 -9.953125 -45.4375 C -8.359375 -44.820312 -6.53125 -44.601562 -4.46875 -44.78125 C -2.40625 -44.96875 -0.390625 -45.285156 1.578125 -45.734375 C 1.929688 -47.035156 2.175781 -48.304688 2.3125 -49.546875 C 2.457031 -50.796875 2.53125 -52.035156 2.53125 -53.265625 Z M -14.296875 -41.984375 C -14.335938 -38.421875 -13.519531 -35.941406 -11.84375 -34.546875 C -10.164062 -33.148438 -8.203125 -32.984375 -5.953125 -34.046875 C -3.710938 -35.117188 -1.742188 -37.484375 -0.046875 -41.140625 C -2.617188 -40.472656 -5.191406 -40.125 -7.765625 -40.09375 C -10.335938 -40.070312 -12.515625 -40.703125 -14.296875 -41.984375 Z M -14.296875 -41.984375 "/></g></g></g><g fill="#3d3b3a" fill-opacity="1"><g transform="translate(137.554136, 197.67336)"><g><path d="M 40.796875 -71.625 C 41.335938 -72.5 41.84375 -72.726562 42.3125 -72.3125 C 42.78125 -71.90625 42.800781 -71.421875 42.375 -70.859375 C 38.707031 -65.535156 35.007812 -61.300781 31.28125 -58.15625 C 27.550781 -55.007812 24.019531 -52.710938 20.6875 -51.265625 C 17.363281 -49.816406 14.453125 -49.019531 11.953125 -48.875 C 9.453125 -48.726562 7.609375 -49.023438 6.421875 -49.765625 C 5.703125 -47.546875 4.710938 -44.960938 3.453125 -42.015625 C 2.203125 -39.066406 0.742188 -36.4375 -0.921875 -34.125 C -2.597656 -31.820312 -4.457031 -30.441406 -6.5 -29.984375 C -8.914062 -29.441406 -10.773438 -30.191406 -12.078125 -32.234375 C -13.390625 -34.273438 -14.265625 -37.09375 -14.703125 -40.6875 C -15.148438 -44.289062 -15.242188 -48.113281 -14.984375 -52.15625 C -14.734375 -56.195312 -14.191406 -59.859375 -13.359375 -63.140625 C -12.929688 -64.628906 -12.097656 -65.421875 -10.859375 -65.515625 C -9.617188 -65.609375 -9.125 -64.972656 -9.375 -63.609375 C -9.65625 -61.953125 -9.921875 -59.832031 -10.171875 -57.25 C -10.429688 -54.664062 -10.613281 -51.957031 -10.71875 -49.125 C -10.832031 -46.289062 -10.753906 -43.660156 -10.484375 -41.234375 C -10.210938 -38.816406 -9.707031 -36.894531 -8.96875 -35.46875 C -8.226562 -34.050781 -7.128906 -33.457031 -5.671875 -33.6875 C -4.691406 -33.90625 -3.648438 -34.679688 -2.546875 -36.015625 C -1.453125 -37.347656 -0.410156 -38.941406 0.578125 -40.796875 C 1.566406 -42.660156 2.453125 -44.546875 3.234375 -46.453125 C 4.015625 -48.359375 4.597656 -49.921875 4.984375 -51.140625 C 3.734375 -52.535156 3.078125 -54.492188 3.015625 -57.015625 C 2.953125 -59.535156 3.347656 -62.015625 4.203125 -64.453125 C 5.191406 -67.109375 6.367188 -68.734375 7.734375 -69.328125 C 9.097656 -69.921875 9.8125 -69.238281 9.875 -67.28125 C 9.96875 -65.238281 9.789062 -63.046875 9.34375 -60.703125 C 8.894531 -58.359375 8.363281 -56.035156 7.75 -53.734375 C 8.78125 -52.472656 10.984375 -52.035156 14.359375 -52.421875 C 17.742188 -52.816406 21.785156 -54.503906 26.484375 -57.484375 C 31.191406 -60.472656 35.960938 -65.1875 40.796875 -71.625 Z M 6.5625 -62.734375 C 6.414062 -61.753906 6.304688 -60.789062 6.234375 -59.84375 C 6.171875 -58.90625 6.203125 -57.929688 6.328125 -56.921875 C 6.535156 -58.097656 6.644531 -59.175781 6.65625 -60.15625 C 6.664062 -61.144531 6.632812 -62.003906 6.5625 -62.734375 Z M 6.5625 -62.734375 "/></g></g><g transform="translate(190.595743, 185.642049)"><g><path d="M 29.03125 -68.96875 C 29.445312 -69.613281 29.910156 -69.832031 30.421875 -69.625 C 30.941406 -69.414062 30.992188 -68.984375 30.578125 -68.328125 C 27.640625 -63.078125 24.382812 -57.703125 20.8125 -52.203125 C 17.238281 -46.703125 13.1875 -41.941406 8.65625 -37.921875 C 4.945312 -34.554688 1.367188 -32.203125 -2.078125 -30.859375 C -5.523438 -29.515625 -8.570312 -29.21875 -11.21875 -29.96875 C -13.875 -30.726562 -15.828125 -32.507812 -17.078125 -35.3125 C -18.328125 -38.125 -18.570312 -42.003906 -17.8125 -46.953125 C -16.957031 -52.671875 -15.050781 -57.691406 -12.09375 -62.015625 C -9.144531 -66.335938 -6.078125 -69.328125 -2.890625 -70.984375 C -0.316406 -72.410156 1.695312 -72.585938 3.15625 -71.515625 C 4.613281 -70.453125 5.257812 -68.726562 5.09375 -66.34375 C 4.9375 -63.96875 3.675781 -61.390625 1.3125 -58.609375 C -0.757812 -56.160156 -3.160156 -54.25 -5.890625 -52.875 C -8.617188 -51.507812 -11.3125 -50.484375 -13.96875 -49.796875 C -15.25 -43.878906 -14.941406 -39.632812 -13.046875 -37.0625 C -11.160156 -34.5 -8.390625 -33.535156 -4.734375 -34.171875 C -1.078125 -34.816406 2.859375 -36.984375 7.078125 -40.671875 C 11.210938 -44.316406 15.140625 -48.757812 18.859375 -54 C 22.578125 -59.25 25.96875 -64.238281 29.03125 -68.96875 Z M -2.40625 -67.609375 C -4 -66.773438 -5.769531 -65.195312 -7.71875 -62.875 C -9.675781 -60.550781 -11.304688 -57.703125 -12.609375 -54.328125 C -10.660156 -54.847656 -8.601562 -55.613281 -6.4375 -56.625 C -4.28125 -57.632812 -2.476562 -59.050781 -1.03125 -60.875 C 0.832031 -62.988281 1.617188 -64.898438 1.328125 -66.609375 C 1.035156 -68.316406 -0.207031 -68.648438 -2.40625 -67.609375 Z M -2.40625 -67.609375 "/></g></g></g></g></g></g><g clip-path="url(#c4efba4715)"><g clip-path="url(#306bbf30d3)"><path stroke-linecap="butt" transform="matrix(0.748165, 0, 0, 0.748165, 98.782056, 327.681213)" fill="none" stroke-linejoin="miter" d="M 9.997339 -0.00203845 L 63.001995 -0.00203845 C 68.520702 -0.00203845 73.00041 4.477669 73.00041 9.996377 L 73.00041 61.627882 C 73.00041 67.14659 68.520702 71.626298 63.001995 71.626298 L 9.997339 71.626298 C 4.478631 71.626298 -0.00107675 67.14659 -0.00107675 61.627882 L -0.00107675 9.996377 C -0.00107675 4.477669 4.478631 -0.00203845 9.997339 -0.00203845 Z M 9.997339 -0.00203845 " stroke="#3d3b3a" stroke-width="4" stroke-opacity="1" stroke-miterlimit="4"/></g></g><g fill="#373434" fill-opacity="1"><g transform="translate(68.512803, 71.835968)"><g><path d="M 4.421875 -7.125 C 3.566406 -7.125 2.890625 -6.835938 2.390625 -6.265625 C 1.890625 -5.691406 1.640625 -4.90625 1.640625 -3.90625 C 1.640625 -2.882812 1.878906 -2.09375 2.359375 -1.53125 C 2.835938 -0.976562 3.519531 -0.703125 4.40625 -0.703125 C 4.957031 -0.703125 5.582031 -0.800781 6.28125 -1 L 6.28125 -0.203125 C 5.738281 0.00390625 5.066406 0.109375 4.265625 0.109375 C 3.117188 0.109375 2.234375 -0.238281 1.609375 -0.9375 C 0.984375 -1.632812 0.671875 -2.628906 0.671875 -3.921875 C 0.671875 -4.722656 0.820312 -5.425781 1.125 -6.03125 C 1.425781 -6.644531 1.859375 -7.113281 2.421875 -7.4375 C 2.992188 -7.769531 3.664062 -7.9375 4.4375 -7.9375 C 5.25 -7.9375 5.960938 -7.785156 6.578125 -7.484375 L 6.203125 -6.703125 C 5.609375 -6.984375 5.015625 -7.125 4.421875 -7.125 Z M 4.421875 -7.125 "/></g></g></g><g fill="#373434" fill-opacity="1"><g transform="translate(79.795458, 71.835968)"><g><path d="M 5.984375 0 L 5.015625 -2.484375 L 1.875 -2.484375 L 0.921875 0 L 0 0 L 3.09375 -7.84375 L 3.859375 -7.84375 L 6.9375 0 Z M 4.734375 -3.3125 L 3.828125 -5.734375 C 3.703125 -6.035156 3.578125 -6.410156 3.453125 -6.859375 C 3.378906 -6.515625 3.269531 -6.140625 3.125 -5.734375 L 2.203125 -3.3125 Z M 4.734375 -3.3125 "/></g></g></g><g fill="#373434" fill-opacity="1"><g transform="translate(91.099483, 71.835968)"><g><path d="M 6.03125 -5.546875 C 6.03125 -4.753906 5.757812 -4.144531 5.21875 -3.71875 C 4.675781 -3.289062 3.90625 -3.078125 2.90625 -3.078125 L 1.984375 -3.078125 L 1.984375 0 L 1.078125 0 L 1.078125 -7.8125 L 3.109375 -7.8125 C 5.054688 -7.8125 6.03125 -7.054688 6.03125 -5.546875 Z M 1.984375 -3.859375 L 2.796875 -3.859375 C 3.609375 -3.859375 4.191406 -3.988281 4.546875 -4.25 C 4.910156 -4.507812 5.09375 -4.925781 5.09375 -5.5 C 5.09375 -6.019531 4.921875 -6.40625 4.578125 -6.65625 C 4.242188 -6.90625 3.71875 -7.03125 3 -7.03125 L 1.984375 -7.03125 Z M 1.984375 -3.859375 "/></g></g></g><g fill="#373434" fill-opacity="1"><g transform="translate(102.066916, 71.835968)"><g><path d="M 3.484375 0 L 2.578125 0 L 2.578125 -7.015625 L 0.09375 -7.015625 L 0.09375 -7.8125 L 5.953125 -7.8125 L 5.953125 -7.015625 L 3.484375 -7.015625 Z M 3.484375 0 "/></g></g></g><g fill="#373434" fill-opacity="1"><g transform="translate(112.500076, 71.835968)"><g><path d="M 6.984375 -7.8125 L 6.984375 -2.765625 C 6.984375 -1.867188 6.710938 -1.164062 6.171875 -0.65625 C 5.628906 -0.144531 4.890625 0.109375 3.953125 0.109375 C 3.015625 0.109375 2.285156 -0.144531 1.765625 -0.65625 C 1.253906 -1.175781 1 -1.882812 1 -2.78125 L 1 -7.8125 L 1.90625 -7.8125 L 1.90625 -2.71875 C 1.90625 -2.0625 2.082031 -1.554688 2.4375 -1.203125 C 2.789062 -0.859375 3.316406 -0.6875 4.015625 -0.6875 C 4.671875 -0.6875 5.175781 -0.863281 5.53125 -1.21875 C 5.882812 -1.570312 6.0625 -2.078125 6.0625 -2.734375 L 6.0625 -7.8125 Z M 6.984375 -7.8125 "/></g></g></g><g fill="#373434" fill-opacity="1"><g transform="translate(124.845934, 71.835968)"><g><path d="M 1.984375 -3.25 L 1.984375 0 L 1.078125 0 L 1.078125 -7.8125 L 3.21875 -7.8125 C 4.175781 -7.8125 4.882812 -7.628906 5.34375 -7.265625 C 5.800781 -6.898438 6.03125 -6.347656 6.03125 -5.609375 C 6.03125 -4.578125 5.503906 -3.878906 4.453125 -3.515625 L 6.578125 0 L 5.515625 0 L 3.609375 -3.25 Z M 1.984375 -4.03125 L 3.234375 -4.03125 C 3.867188 -4.03125 4.335938 -4.15625 4.640625 -4.40625 C 4.941406 -4.664062 5.09375 -5.050781 5.09375 -5.5625 C 5.09375 -6.082031 4.9375 -6.453125 4.625 -6.671875 C 4.320312 -6.898438 3.835938 -7.015625 3.171875 -7.015625 L 1.984375 -7.015625 Z M 1.984375 -4.03125 "/></g></g></g><g fill="#373434" fill-opacity="1"><g transform="translate(135.989677, 71.835968)"><g><path d="M 5.4375 0 L 1.078125 0 L 1.078125 -7.8125 L 5.4375 -7.8125 L 5.4375 -7.015625 L 1.984375 -7.015625 L 1.984375 -4.5 L 5.21875 -4.5 L 5.21875 -3.6875 L 1.984375 -3.6875 L 1.984375 -0.8125 L 5.4375 -0.8125 Z M 5.4375 0 "/></g></g></g><g fill="#373434" fill-opacity="1"><g transform="translate(146.454893, 71.835968)"><g/></g></g><g fill="#373434" fill-opacity="1"><g transform="translate(153.67707, 71.835968)"><g><path d="M 3.484375 0 L 2.578125 0 L 2.578125 -7.015625 L 0.09375 -7.015625 L 0.09375 -7.8125 L 5.953125 -7.8125 L 5.953125 -7.015625 L 3.484375 -7.015625 Z M 3.484375 0 "/></g></g></g><g fill="#373434" fill-opacity="1"><g transform="translate(164.11023, 71.835968)"><g><path d="M 7.015625 0 L 6.109375 0 L 6.109375 -3.671875 L 1.984375 -3.671875 L 1.984375 0 L 1.078125 0 L 1.078125 -7.8125 L 1.984375 -7.8125 L 1.984375 -4.5 L 6.109375 -4.5 L 6.109375 -7.8125 L 7.015625 -7.8125 Z M 7.015625 0 "/></g></g></g><g fill="#373434" fill-opacity="1"><g transform="translate(176.562943, 71.835968)"><g><path d="M 5.4375 0 L 1.078125 0 L 1.078125 -7.8125 L 5.4375 -7.8125 L 5.4375 -7.015625 L 1.984375 -7.015625 L 1.984375 -4.5 L 5.21875 -4.5 L 5.21875 -3.6875 L 1.984375 -3.6875 L 1.984375 -0.8125 L 5.4375 -0.8125 Z M 5.4375 0 "/></g></g></g><g fill="#373434" fill-opacity="1"><g transform="translate(64.332049, 223.963925)"><g><path d="M 5.4375 0 L 4.5625 -2.265625 L 1.703125 -2.265625 L 0.828125 0 L 0 0 L 2.8125 -7.140625 L 3.5 -7.140625 L 6.296875 0 Z M 4.296875 -3 L 3.46875 -5.203125 C 3.363281 -5.484375 3.253906 -5.828125 3.140625 -6.234375 C 3.066406 -5.921875 2.96875 -5.578125 2.84375 -5.203125 L 2 -3 Z M 4.296875 -3 "/></g></g></g><g fill="#373434" fill-opacity="1"><g transform="translate(73.61305, 223.963925)"><g><path d="M 6.53125 0 L 5.578125 0 L 1.703125 -5.96875 L 1.65625 -5.96875 C 1.707031 -5.257812 1.734375 -4.613281 1.734375 -4.03125 L 1.734375 0 L 0.984375 0 L 0.984375 -7.109375 L 1.90625 -7.109375 L 5.78125 -1.171875 L 5.828125 -1.171875 C 5.816406 -1.253906 5.800781 -1.53125 5.78125 -2 C 5.757812 -2.476562 5.75 -2.820312 5.75 -3.03125 L 5.75 -7.109375 L 6.53125 -7.109375 Z M 6.53125 0 "/></g></g></g><g fill="#373434" fill-opacity="1"><g transform="translate(84.098724, 223.963925)"><g><path d="M 6.640625 -3.625 C 6.640625 -2.445312 6.320312 -1.546875 5.6875 -0.921875 C 5.050781 -0.304688 4.132812 0 2.9375 0 L 0.984375 0 L 0.984375 -7.109375 L 3.15625 -7.109375 C 4.257812 -7.109375 5.113281 -6.800781 5.71875 -6.1875 C 6.332031 -5.570312 6.640625 -4.71875 6.640625 -3.625 Z M 5.78125 -3.59375 C 5.78125 -4.519531 5.546875 -5.21875 5.078125 -5.6875 C 4.609375 -6.15625 3.914062 -6.390625 3 -6.390625 L 1.796875 -6.390625 L 1.796875 -0.71875 L 2.8125 -0.71875 C 3.789062 -0.71875 4.53125 -0.957031 5.03125 -1.4375 C 5.53125 -1.925781 5.78125 -2.644531 5.78125 -3.59375 Z M 5.78125 -3.59375 "/></g></g></g><g fill="#373434" fill-opacity="1"><g transform="translate(94.336668, 223.963925)"><g/></g></g><g fill="#373434" fill-opacity="1"><g transform="translate(99.906502, 223.963925)"><g><path d="M 4.984375 -1.890625 C 4.984375 -1.265625 4.753906 -0.773438 4.296875 -0.421875 C 3.847656 -0.078125 3.234375 0.09375 2.453125 0.09375 C 1.617188 0.09375 0.972656 -0.015625 0.515625 -0.234375 L 0.515625 -1.03125 C 0.804688 -0.90625 1.125 -0.804688 1.46875 -0.734375 C 1.8125 -0.660156 2.148438 -0.625 2.484375 -0.625 C 3.035156 -0.625 3.453125 -0.726562 3.734375 -0.9375 C 4.015625 -1.144531 4.15625 -1.4375 4.15625 -1.8125 C 4.15625 -2.0625 4.101562 -2.265625 4 -2.421875 C 3.90625 -2.578125 3.738281 -2.71875 3.5 -2.84375 C 3.269531 -2.976562 2.921875 -3.132812 2.453125 -3.3125 C 1.785156 -3.539062 1.3125 -3.816406 1.03125 -4.140625 C 0.75 -4.460938 0.609375 -4.882812 0.609375 -5.40625 C 0.609375 -5.957031 0.8125 -6.394531 1.21875 -6.71875 C 1.632812 -7.039062 2.179688 -7.203125 2.859375 -7.203125 C 3.566406 -7.203125 4.21875 -7.070312 4.8125 -6.8125 L 4.546875 -6.09375 C 3.960938 -6.34375 3.394531 -6.46875 2.84375 -6.46875 C 2.40625 -6.46875 2.0625 -6.375 1.8125 -6.1875 C 1.5625 -6 1.4375 -5.738281 1.4375 -5.40625 C 1.4375 -5.15625 1.484375 -4.953125 1.578125 -4.796875 C 1.671875 -4.640625 1.820312 -4.492188 2.03125 -4.359375 C 2.25 -4.234375 2.582031 -4.09375 3.03125 -3.9375 C 3.769531 -3.664062 4.28125 -3.378906 4.5625 -3.078125 C 4.84375 -2.773438 4.984375 -2.378906 4.984375 -1.890625 Z M 4.984375 -1.890625 "/></g></g></g><g fill="#373434" fill-opacity="1"><g transform="translate(108.352005, 223.963925)"><g><path d="M 6.375 0 L 5.546875 0 L 5.546875 -3.34375 L 1.796875 -3.34375 L 1.796875 0 L 0.984375 0 L 0.984375 -7.109375 L 1.796875 -7.109375 L 1.796875 -4.078125 L 5.546875 -4.078125 L 5.546875 -7.109375 L 6.375 -7.109375 Z M 6.375 0 "/></g></g></g><g fill="#373434" fill-opacity="1"><g transform="translate(118.677385, 223.963925)"><g><path d="M 5.4375 0 L 4.5625 -2.265625 L 1.703125 -2.265625 L 0.828125 0 L 0 0 L 2.8125 -7.140625 L 3.5 -7.140625 L 6.296875 0 Z M 4.296875 -3 L 3.46875 -5.203125 C 3.363281 -5.484375 3.253906 -5.828125 3.140625 -6.234375 C 3.066406 -5.921875 2.96875 -5.578125 2.84375 -5.203125 L 2 -3 Z M 4.296875 -3 "/></g></g></g><g fill="#373434" fill-opacity="1"><g transform="translate(127.958387, 223.963925)"><g><path d="M 1.796875 -2.953125 L 1.796875 0 L 0.984375 0 L 0.984375 -7.109375 L 2.921875 -7.109375 C 3.796875 -7.109375 4.441406 -6.941406 4.859375 -6.609375 C 5.273438 -6.273438 5.484375 -5.769531 5.484375 -5.09375 C 5.484375 -4.15625 5.003906 -3.519531 4.046875 -3.1875 L 5.984375 0 L 5 0 L 3.28125 -2.953125 Z M 1.796875 -3.671875 L 2.9375 -3.671875 C 3.519531 -3.671875 3.945312 -3.785156 4.21875 -4.015625 C 4.488281 -4.242188 4.625 -4.585938 4.625 -5.046875 C 4.625 -5.523438 4.484375 -5.863281 4.203125 -6.0625 C 3.929688 -6.269531 3.488281 -6.375 2.875 -6.375 L 1.796875 -6.375 Z M 1.796875 -3.671875 "/></g></g></g><g fill="#373434" fill-opacity="1"><g transform="translate(137.093662, 223.963925)"><g><path d="M 4.9375 0 L 0.984375 0 L 0.984375 -7.109375 L 4.9375 -7.109375 L 4.9375 -6.375 L 1.796875 -6.375 L 1.796875 -4.078125 L 4.75 -4.078125 L 4.75 -3.359375 L 1.796875 -3.359375 L 1.796875 -0.734375 L 4.9375 -0.734375 Z M 4.9375 0 "/></g></g></g><g fill="#373434" fill-opacity="1"><g transform="translate(145.612034, 223.963925)"><g/></g></g><g fill="#373434" fill-opacity="1"><g transform="translate(151.181868, 223.963925)"><g><path d="M 2.78125 -3.546875 L 4.6875 -7.109375 L 5.578125 -7.109375 L 3.203125 -2.75 L 3.203125 0 L 2.359375 0 L 2.359375 -2.71875 L 0 -7.109375 L 0.90625 -7.109375 Z M 2.78125 -3.546875 "/></g></g></g><g fill="#373434" fill-opacity="1"><g transform="translate(159.7391, 223.963925)"><g><path d="M 7.140625 -3.5625 C 7.140625 -2.425781 6.851562 -1.53125 6.28125 -0.875 C 5.707031 -0.226562 4.910156 0.09375 3.890625 0.09375 C 2.835938 0.09375 2.023438 -0.222656 1.453125 -0.859375 C 0.890625 -1.503906 0.609375 -2.410156 0.609375 -3.578125 C 0.609375 -4.734375 0.890625 -5.628906 1.453125 -6.265625 C 2.023438 -6.898438 2.835938 -7.21875 3.890625 -7.21875 C 4.910156 -7.21875 5.707031 -6.890625 6.28125 -6.234375 C 6.851562 -5.585938 7.140625 -4.695312 7.140625 -3.5625 Z M 1.484375 -3.5625 C 1.484375 -2.601562 1.6875 -1.875 2.09375 -1.375 C 2.507812 -0.875 3.109375 -0.625 3.890625 -0.625 C 4.671875 -0.625 5.257812 -0.867188 5.65625 -1.359375 C 6.0625 -1.859375 6.265625 -2.59375 6.265625 -3.5625 C 6.265625 -4.519531 6.0625 -5.242188 5.65625 -5.734375 C 5.257812 -6.234375 4.671875 -6.484375 3.890625 -6.484375 C 3.109375 -6.484375 2.507812 -6.234375 2.09375 -5.734375 C 1.6875 -5.234375 1.484375 -4.507812 1.484375 -3.5625 Z M 1.484375 -3.5625 "/></g></g></g><g fill="#373434" fill-opacity="1"><g transform="translate(170.472515, 223.963925)"><g><path d="M 6.34375 -7.109375 L 6.34375 -2.5 C 6.34375 -1.695312 6.097656 -1.0625 5.609375 -0.59375 C 5.117188 -0.132812 4.445312 0.09375 3.59375 0.09375 C 2.738281 0.09375 2.078125 -0.132812 1.609375 -0.59375 C 1.140625 -1.0625 0.90625 -1.707031 0.90625 -2.53125 L 0.90625 -7.109375 L 1.734375 -7.109375 L 1.734375 -2.46875 C 1.734375 -1.875 1.894531 -1.414062 2.21875 -1.09375 C 2.539062 -0.78125 3.015625 -0.625 3.640625 -0.625 C 4.242188 -0.625 4.707031 -0.78125 5.03125 -1.09375 C 5.351562 -1.414062 5.515625 -1.878906 5.515625 -2.484375 L 5.515625 -7.109375 Z M 6.34375 -7.109375 "/></g></g></g><g fill="#373434" fill-opacity="1"><g transform="translate(180.700744, 223.963925)"><g><path d="M 1.796875 -2.953125 L 1.796875 0 L 0.984375 0 L 0.984375 -7.109375 L 2.921875 -7.109375 C 3.796875 -7.109375 4.441406 -6.941406 4.859375 -6.609375 C 5.273438 -6.273438 5.484375 -5.769531 5.484375 -5.09375 C 5.484375 -4.15625 5.003906 -3.519531 4.046875 -3.1875 L 5.984375 0 L 5 0 L 3.28125 -2.953125 Z M 1.796875 -3.671875 L 2.9375 -3.671875 C 3.519531 -3.671875 3.945312 -3.785156 4.21875 -4.015625 C 4.488281 -4.242188 4.625 -4.585938 4.625 -5.046875 C 4.625 -5.523438 4.484375 -5.863281 4.203125 -6.0625 C 3.929688 -6.269531 3.488281 -6.375 2.875 -6.375 L 1.796875 -6.375 Z M 1.796875 -3.671875 "/></g></g></g><g fill="#373434" fill-opacity="1"><g transform="translate(64.939933, 239.675397)"><g><path d="M 5.484375 -5.03125 C 5.484375 -4.3125 5.238281 -3.757812 4.75 -3.375 C 4.257812 -2.988281 3.554688 -2.796875 2.640625 -2.796875 L 1.796875 -2.796875 L 1.796875 0 L 0.984375 0 L 0.984375 -7.109375 L 2.8125 -7.109375 C 4.59375 -7.109375 5.484375 -6.414062 5.484375 -5.03125 Z M 1.796875 -3.5 L 2.546875 -3.5 C 3.273438 -3.5 3.800781 -3.617188 4.125 -3.859375 C 4.457031 -4.097656 4.625 -4.476562 4.625 -5 C 4.625 -5.46875 4.46875 -5.816406 4.15625 -6.046875 C 3.851562 -6.273438 3.375 -6.390625 2.71875 -6.390625 L 1.796875 -6.390625 Z M 1.796875 -3.5 "/></g></g></g><g fill="#373434" fill-opacity="1"><g transform="translate(73.914914, 239.675397)"><g><path d="M 6.375 0 L 5.546875 0 L 5.546875 -3.34375 L 1.796875 -3.34375 L 1.796875 0 L 0.984375 0 L 0.984375 -7.109375 L 1.796875 -7.109375 L 1.796875 -4.078125 L 5.546875 -4.078125 L 5.546875 -7.109375 L 6.375 -7.109375 Z M 6.375 0 "/></g></g></g><g fill="#373434" fill-opacity="1"><g transform="translate(84.240295, 239.675397)"><g><path d="M 7.140625 -3.5625 C 7.140625 -2.425781 6.851562 -1.53125 6.28125 -0.875 C 5.707031 -0.226562 4.910156 0.09375 3.890625 0.09375 C 2.835938 0.09375 2.023438 -0.222656 1.453125 -0.859375 C 0.890625 -1.503906 0.609375 -2.410156 0.609375 -3.578125 C 0.609375 -4.734375 0.890625 -5.628906 1.453125 -6.265625 C 2.023438 -6.898438 2.835938 -7.21875 3.890625 -7.21875 C 4.910156 -7.21875 5.707031 -6.890625 6.28125 -6.234375 C 6.851562 -5.585938 7.140625 -4.695312 7.140625 -3.5625 Z M 1.484375 -3.5625 C 1.484375 -2.601562 1.6875 -1.875 2.09375 -1.375 C 2.507812 -0.875 3.109375 -0.625 3.890625 -0.625 C 4.671875 -0.625 5.257812 -0.867188 5.65625 -1.359375 C 6.0625 -1.859375 6.265625 -2.59375 6.265625 -3.5625 C 6.265625 -4.519531 6.0625 -5.242188 5.65625 -5.734375 C 5.257812 -6.234375 4.671875 -6.484375 3.890625 -6.484375 C 3.109375 -6.484375 2.507812 -6.234375 2.09375 -5.734375 C 1.6875 -5.234375 1.484375 -4.507812 1.484375 -3.5625 Z M 1.484375 -3.5625 "/></g></g></g><g fill="#373434" fill-opacity="1"><g transform="translate(94.973709, 239.675397)"><g><path d="M 3.15625 0 L 2.34375 0 L 2.34375 -6.375 L 0.09375 -6.375 L 0.09375 -7.109375 L 5.40625 -7.109375 L 5.40625 -6.375 L 3.15625 -6.375 Z M 3.15625 0 "/></g></g></g><g fill="#373434" fill-opacity="1"><g transform="translate(103.462936, 239.675397)"><g><path d="M 7.140625 -3.5625 C 7.140625 -2.425781 6.851562 -1.53125 6.28125 -0.875 C 5.707031 -0.226562 4.910156 0.09375 3.890625 0.09375 C 2.835938 0.09375 2.023438 -0.222656 1.453125 -0.859375 C 0.890625 -1.503906 0.609375 -2.410156 0.609375 -3.578125 C 0.609375 -4.734375 0.890625 -5.628906 1.453125 -6.265625 C 2.023438 -6.898438 2.835938 -7.21875 3.890625 -7.21875 C 4.910156 -7.21875 5.707031 -6.890625 6.28125 -6.234375 C 6.851562 -5.585938 7.140625 -4.695312 7.140625 -3.5625 Z M 1.484375 -3.5625 C 1.484375 -2.601562 1.6875 -1.875 2.09375 -1.375 C 2.507812 -0.875 3.109375 -0.625 3.890625 -0.625 C 4.671875 -0.625 5.257812 -0.867188 5.65625 -1.359375 C 6.0625 -1.859375 6.265625 -2.59375 6.265625 -3.5625 C 6.265625 -4.519531 6.0625 -5.242188 5.65625 -5.734375 C 5.257812 -6.234375 4.671875 -6.484375 3.890625 -6.484375 C 3.109375 -6.484375 2.507812 -6.234375 2.09375 -5.734375 C 1.6875 -5.234375 1.484375 -4.507812 1.484375 -3.5625 Z M 1.484375 -3.5625 "/></g></g></g><g fill="#373434" fill-opacity="1"><g transform="translate(114.19635, 239.675397)"><g><path d="M 4.984375 -1.890625 C 4.984375 -1.265625 4.753906 -0.773438 4.296875 -0.421875 C 3.847656 -0.078125 3.234375 0.09375 2.453125 0.09375 C 1.617188 0.09375 0.972656 -0.015625 0.515625 -0.234375 L 0.515625 -1.03125 C 0.804688 -0.90625 1.125 -0.804688 1.46875 -0.734375 C 1.8125 -0.660156 2.148438 -0.625 2.484375 -0.625 C 3.035156 -0.625 3.453125 -0.726562 3.734375 -0.9375 C 4.015625 -1.144531 4.15625 -1.4375 4.15625 -1.8125 C 4.15625 -2.0625 4.101562 -2.265625 4 -2.421875 C 3.90625 -2.578125 3.738281 -2.71875 3.5 -2.84375 C 3.269531 -2.976562 2.921875 -3.132812 2.453125 -3.3125 C 1.785156 -3.539062 1.3125 -3.816406 1.03125 -4.140625 C 0.75 -4.460938 0.609375 -4.882812 0.609375 -5.40625 C 0.609375 -5.957031 0.8125 -6.394531 1.21875 -6.71875 C 1.632812 -7.039062 2.179688 -7.203125 2.859375 -7.203125 C 3.566406 -7.203125 4.21875 -7.070312 4.8125 -6.8125 L 4.546875 -6.09375 C 3.960938 -6.34375 3.394531 -6.46875 2.84375 -6.46875 C 2.40625 -6.46875 2.0625 -6.375 1.8125 -6.1875 C 1.5625 -6 1.4375 -5.738281 1.4375 -5.40625 C 1.4375 -5.15625 1.484375 -4.953125 1.578125 -4.796875 C 1.671875 -4.640625 1.820312 -4.492188 2.03125 -4.359375 C 2.25 -4.234375 2.582031 -4.09375 3.03125 -3.9375 C 3.769531 -3.664062 4.28125 -3.378906 4.5625 -3.078125 C 4.84375 -2.773438 4.984375 -2.378906 4.984375 -1.890625 Z M 4.984375 -1.890625 "/></g></g></g><g fill="#373434" fill-opacity="1"><g transform="translate(122.641854, 239.675397)"><g/></g></g><g fill="#373434" fill-opacity="1"><g transform="translate(128.211687, 239.675397)"><g><path d="M 7.171875 0 L 6.359375 0 L 4.921875 -4.765625 C 4.859375 -4.972656 4.785156 -5.234375 4.703125 -5.546875 C 4.617188 -5.867188 4.570312 -6.066406 4.5625 -6.140625 C 4.5 -5.703125 4.390625 -5.234375 4.234375 -4.734375 L 2.84375 0 L 2.015625 0 L 0.125 -7.109375 L 1 -7.109375 L 2.125 -2.71875 C 2.28125 -2.101562 2.394531 -1.546875 2.46875 -1.046875 C 2.550781 -1.640625 2.679688 -2.21875 2.859375 -2.78125 L 4.125 -7.109375 L 5 -7.109375 L 6.34375 -2.75 C 6.5 -2.25 6.628906 -1.679688 6.734375 -1.046875 C 6.796875 -1.503906 6.910156 -2.0625 7.078125 -2.71875 L 8.203125 -7.109375 L 9.078125 -7.109375 Z M 7.171875 0 "/></g></g></g><g fill="#373434" fill-opacity="1"><g transform="translate(140.407219, 239.675397)"><g><path d="M 0.984375 0 L 0.984375 -7.109375 L 1.796875 -7.109375 L 1.796875 0 Z M 0.984375 0 "/></g></g></g><g fill="#373434" fill-opacity="1"><g transform="translate(146.166503, 239.675397)"><g><path d="M 3.15625 0 L 2.34375 0 L 2.34375 -6.375 L 0.09375 -6.375 L 0.09375 -7.109375 L 5.40625 -7.109375 L 5.40625 -6.375 L 3.15625 -6.375 Z M 3.15625 0 "/></g></g></g><g fill="#373434" fill-opacity="1"><g transform="translate(154.655729, 239.675397)"><g><path d="M 6.375 0 L 5.546875 0 L 5.546875 -3.34375 L 1.796875 -3.34375 L 1.796875 0 L 0.984375 0 L 0.984375 -7.109375 L 1.796875 -7.109375 L 1.796875 -4.078125 L 5.546875 -4.078125 L 5.546875 -7.109375 L 6.375 -7.109375 Z M 6.375 0 "/></g></g></g><g fill="#373434" fill-opacity="1"><g transform="translate(164.98111, 239.675397)"><g/></g></g><g fill="#373434" fill-opacity="1"><g transform="translate(170.550943, 239.675397)"><g><path d="M 6.34375 -7.109375 L 6.34375 -2.5 C 6.34375 -1.695312 6.097656 -1.0625 5.609375 -0.59375 C 5.117188 -0.132812 4.445312 0.09375 3.59375 0.09375 C 2.738281 0.09375 2.078125 -0.132812 1.609375 -0.59375 C 1.140625 -1.0625 0.90625 -1.707031 0.90625 -2.53125 L 0.90625 -7.109375 L 1.734375 -7.109375 L 1.734375 -2.46875 C 1.734375 -1.875 1.894531 -1.414062 2.21875 -1.09375 C 2.539062 -0.78125 3.015625 -0.625 3.640625 -0.625 C 4.242188 -0.625 4.707031 -0.78125 5.03125 -1.09375 C 5.351562 -1.414062 5.515625 -1.878906 5.515625 -2.484375 L 5.515625 -7.109375 Z M 6.34375 -7.109375 "/></g></g></g><g fill="#373434" fill-opacity="1"><g transform="translate(180.779173, 239.675397)"><g><path d="M 4.984375 -1.890625 C 4.984375 -1.265625 4.753906 -0.773438 4.296875 -0.421875 C 3.847656 -0.078125 3.234375 0.09375 2.453125 0.09375 C 1.617188 0.09375 0.972656 -0.015625 0.515625 -0.234375 L 0.515625 -1.03125 C 0.804688 -0.90625 1.125 -0.804688 1.46875 -0.734375 C 1.8125 -0.660156 2.148438 -0.625 2.484375 -0.625 C 3.035156 -0.625 3.453125 -0.726562 3.734375 -0.9375 C 4.015625 -1.144531 4.15625 -1.4375 4.15625 -1.8125 C 4.15625 -2.0625 4.101562 -2.265625 4 -2.421875 C 3.90625 -2.578125 3.738281 -2.71875 3.5 -2.84375 C 3.269531 -2.976562 2.921875 -3.132812 2.453125 -3.3125 C 1.785156 -3.539062 1.3125 -3.816406 1.03125 -4.140625 C 0.75 -4.460938 0.609375 -4.882812 0.609375 -5.40625 C 0.609375 -5.957031 0.8125 -6.394531 1.21875 -6.71875 C 1.632812 -7.039062 2.179688 -7.203125 2.859375 -7.203125 C 3.566406 -7.203125 4.21875 -7.070312 4.8125 -6.8125 L 4.546875 -6.09375 C 3.960938 -6.34375 3.394531 -6.46875 2.84375 -6.46875 C 2.40625 -6.46875 2.0625 -6.375 1.8125 -6.1875 C 1.5625 -6 1.4375 -5.738281 1.4375 -5.40625 C 1.4375 -5.15625 1.484375 -4.953125 1.578125 -4.796875 C 1.671875 -4.640625 1.820312 -4.492188 2.03125 -4.359375 C 2.25 -4.234375 2.582031 -4.09375 3.03125 -3.9375 C 3.769531 -3.664062 4.28125 -3.378906 4.5625 -3.078125 C 4.84375 -2.773438 4.984375 -2.378906 4.984375 -1.890625 Z M 4.984375 -1.890625 "/></g></g></g><g transform="matrix(1, 0, 0, 1, 30, 271)"><g clip-path="url(#d2333afcfe)"><g fill="#373434" fill-opacity="1"><g transform="translate(0.96742, 10.154826)"><g><path d="M 3.21875 -1.359375 C 3.21875 -0.898438 3.054688 -0.539062 2.734375 -0.28125 C 2.410156 -0.03125 1.957031 0.09375 1.375 0.09375 C 0.875 0.09375 0.425781 -0.0078125 0.03125 -0.21875 L 0.03125 -0.90625 C 0.238281 -0.78125 0.457031 -0.679688 0.6875 -0.609375 C 0.925781 -0.546875 1.144531 -0.515625 1.34375 -0.515625 C 1.71875 -0.515625 2 -0.585938 2.1875 -0.734375 C 2.375 -0.878906 2.46875 -1.066406 2.46875 -1.296875 C 2.46875 -1.460938 2.414062 -1.601562 2.3125 -1.71875 C 2.207031 -1.832031 1.984375 -1.988281 1.640625 -2.1875 C 1.265625 -2.394531 1 -2.597656 0.84375 -2.796875 C 0.6875 -3.003906 0.609375 -3.25 0.609375 -3.53125 C 0.609375 -3.9375 0.753906 -4.257812 1.046875 -4.5 C 1.335938 -4.75 1.726562 -4.875 2.21875 -4.875 C 2.707031 -4.875 3.1875 -4.769531 3.65625 -4.5625 L 3.421875 -3.953125 L 3.171875 -4.0625 C 2.878906 -4.1875 2.5625 -4.25 2.21875 -4.25 C 1.945312 -4.25 1.734375 -4.1875 1.578125 -4.0625 C 1.421875 -3.9375 1.34375 -3.773438 1.34375 -3.578125 C 1.34375 -3.410156 1.394531 -3.269531 1.5 -3.15625 C 1.601562 -3.039062 1.816406 -2.890625 2.140625 -2.703125 C 2.453125 -2.523438 2.675781 -2.375 2.8125 -2.25 C 2.945312 -2.125 3.046875 -1.988281 3.109375 -1.84375 C 3.179688 -1.695312 3.21875 -1.535156 3.21875 -1.359375 Z M 3.21875 -1.359375 "/></g></g></g><g fill="#373434" fill-opacity="1"><g transform="translate(7.040616, 10.154826)"><g><path d="M 2.21875 0.09375 C 1.644531 0.09375 1.203125 -0.0625 0.890625 -0.375 C 0.578125 -0.6875 0.421875 -1.128906 0.421875 -1.703125 C 0.421875 -2.285156 0.53125 -2.820312 0.75 -3.3125 C 0.96875 -3.800781 1.265625 -4.179688 1.640625 -4.453125 C 2.023438 -4.734375 2.453125 -4.875 2.921875 -4.875 C 3.328125 -4.875 3.71875 -4.800781 4.09375 -4.65625 L 3.890625 -4.046875 C 3.546875 -4.191406 3.226562 -4.265625 2.9375 -4.265625 C 2.613281 -4.265625 2.316406 -4.148438 2.046875 -3.921875 C 1.773438 -3.703125 1.5625 -3.394531 1.40625 -3 C 1.257812 -2.601562 1.1875 -2.171875 1.1875 -1.703125 C 1.1875 -1.328125 1.28125 -1.035156 1.46875 -0.828125 C 1.664062 -0.617188 1.929688 -0.515625 2.265625 -0.515625 C 2.484375 -0.515625 2.679688 -0.539062 2.859375 -0.59375 C 3.046875 -0.65625 3.234375 -0.726562 3.421875 -0.8125 L 3.421875 -0.1875 C 3.054688 0 2.65625 0.09375 2.21875 0.09375 Z M 2.21875 0.09375 "/></g></g></g><g fill="#373434" fill-opacity="1"><g transform="translate(13.310567, 10.154826)"><g><path d="M 2.796875 -4.875 C 3.066406 -4.875 3.304688 -4.800781 3.515625 -4.65625 C 3.722656 -4.519531 3.882812 -4.316406 4 -4.046875 L 4.046875 -4.046875 L 4.34375 -4.796875 L 4.890625 -4.796875 L 3.875 0 L 3.296875 0 L 3.40625 -0.90625 L 3.375 -0.90625 C 2.851562 -0.238281 2.304688 0.09375 1.734375 0.09375 C 1.328125 0.09375 1.003906 -0.0507812 0.765625 -0.34375 C 0.535156 -0.632812 0.421875 -1.03125 0.421875 -1.53125 C 0.421875 -2.132812 0.523438 -2.695312 0.734375 -3.21875 C 0.941406 -3.738281 1.226562 -4.144531 1.59375 -4.4375 C 1.957031 -4.726562 2.359375 -4.875 2.796875 -4.875 Z M 1.96875 -0.515625 C 2.25 -0.515625 2.523438 -0.648438 2.796875 -0.921875 C 3.078125 -1.191406 3.304688 -1.539062 3.484375 -1.96875 C 3.660156 -2.40625 3.75 -2.84375 3.75 -3.28125 C 3.75 -3.582031 3.664062 -3.820312 3.5 -4 C 3.34375 -4.175781 3.128906 -4.265625 2.859375 -4.265625 C 2.554688 -4.265625 2.273438 -4.140625 2.015625 -3.890625 C 1.753906 -3.640625 1.550781 -3.296875 1.40625 -2.859375 C 1.257812 -2.429688 1.1875 -1.984375 1.1875 -1.515625 C 1.1875 -1.179688 1.253906 -0.929688 1.390625 -0.765625 C 1.523438 -0.597656 1.71875 -0.515625 1.96875 -0.515625 Z M 1.96875 -0.515625 "/></g></g></g><g fill="#373434" fill-opacity="1"><g transform="translate(20.60802, 10.154826)"><g><path d="M 3.1875 0 L 3.828125 -3.03125 C 3.890625 -3.332031 3.921875 -3.539062 3.921875 -3.65625 C 3.921875 -3.84375 3.867188 -3.988281 3.765625 -4.09375 C 3.660156 -4.207031 3.492188 -4.265625 3.265625 -4.265625 C 3.003906 -4.265625 2.75 -4.175781 2.5 -4 C 2.257812 -3.820312 2.046875 -3.570312 1.859375 -3.25 C 1.671875 -2.925781 1.53125 -2.535156 1.4375 -2.078125 L 1 0 L 0.265625 0 L 1.28125 -4.796875 L 1.890625 -4.796875 L 1.796875 -3.90625 L 1.84375 -3.90625 C 2.113281 -4.257812 2.378906 -4.507812 2.640625 -4.65625 C 2.898438 -4.800781 3.171875 -4.875 3.453125 -4.875 C 3.828125 -4.875 4.117188 -4.769531 4.328125 -4.5625 C 4.546875 -4.363281 4.65625 -4.082031 4.65625 -3.71875 C 4.65625 -3.488281 4.625 -3.226562 4.5625 -2.9375 L 3.9375 0 Z M 3.1875 0 "/></g></g></g><g fill="#373434" fill-opacity="1"><g transform="translate(28.014782, 10.154826)"><g/></g></g><g fill="#373434" fill-opacity="1"><g transform="translate(32.579517, 10.154826)"><g><path d="M 1.734375 -0.515625 C 1.890625 -0.515625 2.097656 -0.550781 2.359375 -0.625 L 2.359375 -0.0625 C 2.253906 -0.0195312 2.128906 0.015625 1.984375 0.046875 C 1.835938 0.078125 1.722656 0.09375 1.640625 0.09375 C 1.273438 0.09375 0.992188 0.00390625 0.796875 -0.171875 C 0.609375 -0.347656 0.515625 -0.609375 0.515625 -0.953125 C 0.515625 -1.140625 0.539062 -1.359375 0.59375 -1.609375 L 1.140625 -4.234375 L 0.390625 -4.234375 L 0.453125 -4.5625 L 1.265625 -4.890625 L 1.8125 -5.890625 L 2.234375 -5.890625 L 2 -4.796875 L 3.203125 -4.796875 L 3.078125 -4.234375 L 1.890625 -4.234375 L 1.328125 -1.59375 C 1.273438 -1.34375 1.25 -1.148438 1.25 -1.015625 C 1.25 -0.859375 1.289062 -0.734375 1.375 -0.640625 C 1.457031 -0.554688 1.578125 -0.515625 1.734375 -0.515625 Z M 1.734375 -0.515625 "/></g></g></g><g fill="#373434" fill-opacity="1"><g transform="translate(37.721401, 10.154826)"><g><path d="M 3.1875 0 L 3.828125 -3.03125 C 3.878906 -3.300781 3.90625 -3.492188 3.90625 -3.609375 C 3.90625 -4.046875 3.691406 -4.265625 3.265625 -4.265625 C 3.003906 -4.265625 2.75 -4.175781 2.5 -4 C 2.257812 -3.832031 2.046875 -3.582031 1.859375 -3.25 C 1.671875 -2.925781 1.53125 -2.53125 1.4375 -2.0625 L 1 0 L 0.265625 0 L 1.703125 -6.796875 L 2.4375 -6.796875 C 2.382812 -6.554688 2.332031 -6.320312 2.28125 -6.09375 C 2.238281 -5.875 2.191406 -5.648438 2.140625 -5.421875 C 2.085938 -5.191406 2.03125 -4.945312 1.96875 -4.6875 C 1.90625 -4.4375 1.835938 -4.164062 1.765625 -3.875 L 1.8125 -3.875 C 2.082031 -4.226562 2.347656 -4.484375 2.609375 -4.640625 C 2.878906 -4.796875 3.160156 -4.875 3.453125 -4.875 C 3.835938 -4.875 4.132812 -4.765625 4.34375 -4.546875 C 4.550781 -4.335938 4.65625 -4.039062 4.65625 -3.65625 C 4.65625 -3.476562 4.625 -3.238281 4.5625 -2.9375 C 4.445312 -2.375 4.234375 -1.394531 3.921875 0 Z M 3.1875 0 "/></g></g></g><g fill="#373434" fill-opacity="1"><g transform="translate(45.128163, 10.154826)"><g><path d="M 2.15625 0.09375 C 1.613281 0.09375 1.1875 -0.0625 0.875 -0.375 C 0.570312 -0.695312 0.421875 -1.140625 0.421875 -1.703125 C 0.421875 -2.253906 0.53125 -2.78125 0.75 -3.28125 C 0.96875 -3.789062 1.253906 -4.179688 1.609375 -4.453125 C 1.972656 -4.734375 2.367188 -4.875 2.796875 -4.875 C 3.242188 -4.875 3.578125 -4.773438 3.796875 -4.578125 C 4.023438 -4.390625 4.140625 -4.125 4.140625 -3.78125 C 4.140625 -3.25 3.894531 -2.832031 3.40625 -2.53125 C 2.925781 -2.238281 2.238281 -2.09375 1.34375 -2.09375 L 1.203125 -2.09375 L 1.1875 -1.75 C 1.1875 -1.363281 1.273438 -1.0625 1.453125 -0.84375 C 1.628906 -0.632812 1.90625 -0.53125 2.28125 -0.53125 C 2.46875 -0.53125 2.65625 -0.554688 2.84375 -0.609375 C 3.039062 -0.660156 3.285156 -0.753906 3.578125 -0.890625 L 3.578125 -0.265625 C 3.296875 -0.128906 3.050781 -0.0351562 2.84375 0.015625 C 2.632812 0.0664062 2.40625 0.09375 2.15625 0.09375 Z M 2.765625 -4.25 C 2.460938 -4.25 2.175781 -4.113281 1.90625 -3.84375 C 1.644531 -3.570312 1.445312 -3.191406 1.3125 -2.703125 L 1.359375 -2.703125 C 2.023438 -2.703125 2.535156 -2.785156 2.890625 -2.953125 C 3.242188 -3.128906 3.421875 -3.382812 3.421875 -3.71875 C 3.421875 -3.875 3.363281 -4 3.25 -4.09375 C 3.144531 -4.195312 2.984375 -4.25 2.765625 -4.25 Z M 2.765625 -4.25 "/></g></g></g><g fill="#373434" fill-opacity="1"><g transform="translate(51.782881, 10.154826)"><g/></g></g><g fill="#373434" fill-opacity="1"><g transform="translate(56.347615, 10.154826)"><g><path d="M 2.21875 0.09375 C 1.644531 0.09375 1.203125 -0.0625 0.890625 -0.375 C 0.578125 -0.6875 0.421875 -1.128906 0.421875 -1.703125 C 0.421875 -2.285156 0.53125 -2.820312 0.75 -3.3125 C 0.96875 -3.800781 1.265625 -4.179688 1.640625 -4.453125 C 2.023438 -4.734375 2.453125 -4.875 2.921875 -4.875 C 3.328125 -4.875 3.71875 -4.800781 4.09375 -4.65625 L 3.890625 -4.046875 C 3.546875 -4.191406 3.226562 -4.265625 2.9375 -4.265625 C 2.613281 -4.265625 2.316406 -4.148438 2.046875 -3.921875 C 1.773438 -3.703125 1.5625 -3.394531 1.40625 -3 C 1.257812 -2.601562 1.1875 -2.171875 1.1875 -1.703125 C 1.1875 -1.328125 1.28125 -1.035156 1.46875 -0.828125 C 1.664062 -0.617188 1.929688 -0.515625 2.265625 -0.515625 C 2.484375 -0.515625 2.679688 -0.539062 2.859375 -0.59375 C 3.046875 -0.65625 3.234375 -0.726562 3.421875 -0.8125 L 3.421875 -0.1875 C 3.054688 0 2.65625 0.09375 2.21875 0.09375 Z M 2.21875 0.09375 "/></g></g></g><g fill="#373434" fill-opacity="1"><g transform="translate(62.617567, 10.154826)"><g><path d="M 2.8125 -4.859375 C 3.363281 -4.859375 3.800781 -4.691406 4.125 -4.359375 C 4.445312 -4.035156 4.609375 -3.582031 4.609375 -3 C 4.609375 -2.457031 4.5 -1.941406 4.28125 -1.453125 C 4.070312 -0.960938 3.785156 -0.585938 3.421875 -0.328125 C 3.066406 -0.0664062 2.664062 0.0625 2.21875 0.0625 C 1.65625 0.0625 1.210938 -0.0976562 0.890625 -0.421875 C 0.578125 -0.753906 0.421875 -1.207031 0.421875 -1.78125 C 0.421875 -2.332031 0.523438 -2.847656 0.734375 -3.328125 C 0.953125 -3.816406 1.242188 -4.191406 1.609375 -4.453125 C 1.972656 -4.722656 2.375 -4.859375 2.8125 -4.859375 Z M 3.84375 -3.109375 C 3.84375 -3.441406 3.75 -3.710938 3.5625 -3.921875 C 3.382812 -4.128906 3.140625 -4.234375 2.828125 -4.234375 C 2.515625 -4.234375 2.226562 -4.125 1.96875 -3.90625 C 1.71875 -3.695312 1.523438 -3.398438 1.390625 -3.015625 C 1.253906 -2.628906 1.1875 -2.203125 1.1875 -1.734375 C 1.1875 -1.347656 1.273438 -1.050781 1.453125 -0.84375 C 1.640625 -0.632812 1.90625 -0.53125 2.25 -0.53125 C 2.550781 -0.53125 2.820312 -0.632812 3.0625 -0.84375 C 3.3125 -1.0625 3.503906 -1.367188 3.640625 -1.765625 C 3.773438 -2.160156 3.84375 -2.609375 3.84375 -3.109375 Z M 3.84375 -3.109375 "/></g></g></g><g fill="#373434" fill-opacity="1"><g transform="translate(69.880041, 10.154826)"><g><path d="M 2.796875 -4.875 C 3.359375 -4.875 3.765625 -4.597656 4.015625 -4.046875 L 4.0625 -4.046875 C 4.113281 -4.492188 4.179688 -4.890625 4.265625 -5.234375 L 4.609375 -6.796875 L 5.328125 -6.796875 L 3.890625 0 L 3.28125 0 L 3.375 -0.90625 L 3.34375 -0.90625 C 3.039062 -0.550781 2.757812 -0.296875 2.5 -0.140625 C 2.25 0.015625 1.988281 0.09375 1.71875 0.09375 C 1.3125 0.09375 0.992188 -0.046875 0.765625 -0.328125 C 0.535156 -0.617188 0.421875 -1.019531 0.421875 -1.53125 C 0.421875 -2.15625 0.523438 -2.722656 0.734375 -3.234375 C 0.953125 -3.753906 1.238281 -4.15625 1.59375 -4.4375 C 1.945312 -4.726562 2.347656 -4.875 2.796875 -4.875 Z M 1.96875 -0.515625 C 2.238281 -0.515625 2.519531 -0.648438 2.8125 -0.921875 C 3.101562 -1.203125 3.332031 -1.550781 3.5 -1.96875 C 3.675781 -2.394531 3.765625 -2.828125 3.765625 -3.265625 C 3.765625 -3.585938 3.679688 -3.832031 3.515625 -4 C 3.359375 -4.175781 3.132812 -4.265625 2.84375 -4.265625 C 2.539062 -4.265625 2.265625 -4.144531 2.015625 -3.90625 C 1.765625 -3.664062 1.5625 -3.328125 1.40625 -2.890625 C 1.257812 -2.453125 1.1875 -1.992188 1.1875 -1.515625 C 1.1875 -0.847656 1.445312 -0.515625 1.96875 -0.515625 Z M 1.96875 -0.515625 "/></g></g></g><g fill="#373434" fill-opacity="1"><g transform="translate(77.286803, 10.154826)"><g><path d="M 2.15625 0.09375 C 1.613281 0.09375 1.1875 -0.0625 0.875 -0.375 C 0.570312 -0.695312 0.421875 -1.140625 0.421875 -1.703125 C 0.421875 -2.253906 0.53125 -2.78125 0.75 -3.28125 C 0.96875 -3.789062 1.253906 -4.179688 1.609375 -4.453125 C 1.972656 -4.734375 2.367188 -4.875 2.796875 -4.875 C 3.242188 -4.875 3.578125 -4.773438 3.796875 -4.578125 C 4.023438 -4.390625 4.140625 -4.125 4.140625 -3.78125 C 4.140625 -3.25 3.894531 -2.832031 3.40625 -2.53125 C 2.925781 -2.238281 2.238281 -2.09375 1.34375 -2.09375 L 1.203125 -2.09375 L 1.1875 -1.75 C 1.1875 -1.363281 1.273438 -1.0625 1.453125 -0.84375 C 1.628906 -0.632812 1.90625 -0.53125 2.28125 -0.53125 C 2.46875 -0.53125 2.65625 -0.554688 2.84375 -0.609375 C 3.039062 -0.660156 3.285156 -0.753906 3.578125 -0.890625 L 3.578125 -0.265625 C 3.296875 -0.128906 3.050781 -0.0351562 2.84375 0.015625 C 2.632812 0.0664062 2.40625 0.09375 2.15625 0.09375 Z M 2.765625 -4.25 C 2.460938 -4.25 2.175781 -4.113281 1.90625 -3.84375 C 1.644531 -3.570312 1.445312 -3.191406 1.3125 -2.703125 L 1.359375 -2.703125 C 2.023438 -2.703125 2.535156 -2.785156 2.890625 -2.953125 C 3.242188 -3.128906 3.421875 -3.382812 3.421875 -3.71875 C 3.421875 -3.875 3.363281 -4 3.25 -4.09375 C 3.144531 -4.195312 2.984375 -4.25 2.765625 -4.25 Z M 2.765625 -4.25 "/></g></g></g><g fill="#373434" fill-opacity="1"><g transform="translate(83.941521, 10.154826)"><g/></g></g><g fill="#373434" fill-opacity="1"><g transform="translate(88.506256, 10.154826)"><g><path d="M 2.796875 -4.875 C 3.066406 -4.875 3.304688 -4.800781 3.515625 -4.65625 C 3.722656 -4.519531 3.882812 -4.316406 4 -4.046875 L 4.046875 -4.046875 L 4.34375 -4.796875 L 4.890625 -4.796875 L 3.875 0 L 3.296875 0 L 3.40625 -0.90625 L 3.375 -0.90625 C 2.851562 -0.238281 2.304688 0.09375 1.734375 0.09375 C 1.328125 0.09375 1.003906 -0.0507812 0.765625 -0.34375 C 0.535156 -0.632812 0.421875 -1.03125 0.421875 -1.53125 C 0.421875 -2.132812 0.523438 -2.695312 0.734375 -3.21875 C 0.941406 -3.738281 1.226562 -4.144531 1.59375 -4.4375 C 1.957031 -4.726562 2.359375 -4.875 2.796875 -4.875 Z M 1.96875 -0.515625 C 2.25 -0.515625 2.523438 -0.648438 2.796875 -0.921875 C 3.078125 -1.191406 3.304688 -1.539062 3.484375 -1.96875 C 3.660156 -2.40625 3.75 -2.84375 3.75 -3.28125 C 3.75 -3.582031 3.664062 -3.820312 3.5 -4 C 3.34375 -4.175781 3.128906 -4.265625 2.859375 -4.265625 C 2.554688 -4.265625 2.273438 -4.140625 2.015625 -3.890625 C 1.753906 -3.640625 1.550781 -3.296875 1.40625 -2.859375 C 1.257812 -2.429688 1.1875 -1.984375 1.1875 -1.515625 C 1.1875 -1.179688 1.253906 -0.929688 1.390625 -0.765625 C 1.523438 -0.597656 1.71875 -0.515625 1.96875 -0.515625 Z M 1.96875 -0.515625 "/></g></g></g><g fill="#373434" fill-opacity="1"><g transform="translate(95.803709, 10.154826)"><g><path d="M 3.1875 0 L 3.828125 -3.03125 C 3.890625 -3.332031 3.921875 -3.539062 3.921875 -3.65625 C 3.921875 -3.84375 3.867188 -3.988281 3.765625 -4.09375 C 3.660156 -4.207031 3.492188 -4.265625 3.265625 -4.265625 C 3.003906 -4.265625 2.75 -4.175781 2.5 -4 C 2.257812 -3.820312 2.046875 -3.570312 1.859375 -3.25 C 1.671875 -2.925781 1.53125 -2.535156 1.4375 -2.078125 L 1 0 L 0.265625 0 L 1.28125 -4.796875 L 1.890625 -4.796875 L 1.796875 -3.90625 L 1.84375 -3.90625 C 2.113281 -4.257812 2.378906 -4.507812 2.640625 -4.65625 C 2.898438 -4.800781 3.171875 -4.875 3.453125 -4.875 C 3.828125 -4.875 4.117188 -4.769531 4.328125 -4.5625 C 4.546875 -4.363281 4.65625 -4.082031 4.65625 -3.71875 C 4.65625 -3.488281 4.625 -3.226562 4.5625 -2.9375 L 3.9375 0 Z M 3.1875 0 "/></g></g></g><g fill="#373434" fill-opacity="1"><g transform="translate(103.210471, 10.154826)"><g><path d="M 2.796875 -4.875 C 3.359375 -4.875 3.765625 -4.597656 4.015625 -4.046875 L 4.0625 -4.046875 C 4.113281 -4.492188 4.179688 -4.890625 4.265625 -5.234375 L 4.609375 -6.796875 L 5.328125 -6.796875 L 3.890625 0 L 3.28125 0 L 3.375 -0.90625 L 3.34375 -0.90625 C 3.039062 -0.550781 2.757812 -0.296875 2.5 -0.140625 C 2.25 0.015625 1.988281 0.09375 1.71875 0.09375 C 1.3125 0.09375 0.992188 -0.046875 0.765625 -0.328125 C 0.535156 -0.617188 0.421875 -1.019531 0.421875 -1.53125 C 0.421875 -2.15625 0.523438 -2.722656 0.734375 -3.234375 C 0.953125 -3.753906 1.238281 -4.15625 1.59375 -4.4375 C 1.945312 -4.726562 2.347656 -4.875 2.796875 -4.875 Z M 1.96875 -0.515625 C 2.238281 -0.515625 2.519531 -0.648438 2.8125 -0.921875 C 3.101562 -1.203125 3.332031 -1.550781 3.5 -1.96875 C 3.675781 -2.394531 3.765625 -2.828125 3.765625 -3.265625 C 3.765625 -3.585938 3.679688 -3.832031 3.515625 -4 C 3.359375 -4.175781 3.132812 -4.265625 2.84375 -4.265625 C 2.539062 -4.265625 2.265625 -4.144531 2.015625 -3.90625 C 1.765625 -3.664062 1.5625 -3.328125 1.40625 -2.890625 C 1.257812 -2.453125 1.1875 -1.992188 1.1875 -1.515625 C 1.1875 -0.847656 1.445312 -0.515625 1.96875 -0.515625 Z M 1.96875 -0.515625 "/></g></g></g><g fill="#373434" fill-opacity="1"><g transform="translate(110.617233, 10.154826)"><g/></g></g><g fill="#373434" fill-opacity="1"><g transform="translate(115.181968, 10.154826)"><g><path d="M 1.96875 -4.796875 L 1.3125 -1.75 C 1.257812 -1.488281 1.234375 -1.285156 1.234375 -1.140625 C 1.234375 -0.722656 1.445312 -0.515625 1.875 -0.515625 C 2.132812 -0.515625 2.382812 -0.601562 2.625 -0.78125 C 2.875 -0.957031 3.09375 -1.207031 3.28125 -1.53125 C 3.476562 -1.863281 3.625 -2.257812 3.71875 -2.71875 L 4.15625 -4.796875 L 4.890625 -4.796875 L 3.875 0 L 3.265625 0 L 3.359375 -0.890625 L 3.3125 -0.890625 C 3.03125 -0.523438 2.757812 -0.269531 2.5 -0.125 C 2.238281 0.0195312 1.96875 0.09375 1.6875 0.09375 C 1.3125 0.09375 1.019531 -0.00390625 0.8125 -0.203125 C 0.601562 -0.410156 0.5 -0.703125 0.5 -1.078125 C 0.5 -1.265625 0.53125 -1.519531 0.59375 -1.84375 L 1.234375 -4.796875 Z M 1.96875 -4.796875 "/></g></g></g><g fill="#373434" fill-opacity="1"><g transform="translate(122.58873, 10.154826)"><g><path d="M 2.375 0.09375 C 2.09375 0.09375 1.84375 0.0195312 1.625 -0.125 C 1.414062 -0.269531 1.253906 -0.476562 1.140625 -0.75 L 1.109375 -0.75 L 1.078125 -0.578125 C 1.078125 -0.503906 1.0625 -0.398438 1.03125 -0.265625 C 1.007812 -0.140625 0.84375 0.664062 0.53125 2.15625 L -0.1875 2.15625 L 1.28125 -4.796875 L 1.890625 -4.796875 L 1.78125 -3.875 L 1.8125 -3.875 C 2.332031 -4.539062 2.875 -4.875 3.4375 -4.875 C 3.832031 -4.875 4.144531 -4.726562 4.375 -4.4375 C 4.601562 -4.15625 4.71875 -3.757812 4.71875 -3.25 C 4.71875 -2.632812 4.617188 -2.066406 4.421875 -1.546875 C 4.222656 -1.035156 3.945312 -0.632812 3.59375 -0.34375 C 3.238281 -0.0507812 2.832031 0.09375 2.375 0.09375 Z M 3.203125 -4.265625 C 2.921875 -4.265625 2.632812 -4.125 2.34375 -3.84375 C 2.050781 -3.570312 1.816406 -3.222656 1.640625 -2.796875 C 1.472656 -2.378906 1.390625 -1.953125 1.390625 -1.515625 C 1.390625 -1.191406 1.46875 -0.941406 1.625 -0.765625 C 1.789062 -0.597656 2.03125 -0.515625 2.34375 -0.515625 C 2.625 -0.515625 2.890625 -0.632812 3.140625 -0.875 C 3.390625 -1.113281 3.585938 -1.445312 3.734375 -1.875 C 3.890625 -2.3125 3.96875 -2.773438 3.96875 -3.265625 C 3.96875 -3.929688 3.710938 -4.265625 3.203125 -4.265625 Z M 3.203125 -4.265625 "/></g></g></g><g fill="#373434" fill-opacity="1"><g transform="translate(129.995492, 10.154826)"><g><path d="M 0.984375 0 L 0.25 0 L 1.703125 -6.796875 L 2.4375 -6.796875 Z M 0.984375 0 "/></g></g></g><g fill="#373434" fill-opacity="1"><g transform="translate(134.507758, 10.154826)"><g><path d="M 2.8125 -4.859375 C 3.363281 -4.859375 3.800781 -4.691406 4.125 -4.359375 C 4.445312 -4.035156 4.609375 -3.582031 4.609375 -3 C 4.609375 -2.457031 4.5 -1.941406 4.28125 -1.453125 C 4.070312 -0.960938 3.785156 -0.585938 3.421875 -0.328125 C 3.066406 -0.0664062 2.664062 0.0625 2.21875 0.0625 C 1.65625 0.0625 1.210938 -0.0976562 0.890625 -0.421875 C 0.578125 -0.753906 0.421875 -1.207031 0.421875 -1.78125 C 0.421875 -2.332031 0.523438 -2.847656 0.734375 -3.328125 C 0.953125 -3.816406 1.242188 -4.191406 1.609375 -4.453125 C 1.972656 -4.722656 2.375 -4.859375 2.8125 -4.859375 Z M 3.84375 -3.109375 C 3.84375 -3.441406 3.75 -3.710938 3.5625 -3.921875 C 3.382812 -4.128906 3.140625 -4.234375 2.828125 -4.234375 C 2.515625 -4.234375 2.226562 -4.125 1.96875 -3.90625 C 1.71875 -3.695312 1.523438 -3.398438 1.390625 -3.015625 C 1.253906 -2.628906 1.1875 -2.203125 1.1875 -1.734375 C 1.1875 -1.347656 1.273438 -1.050781 1.453125 -0.84375 C 1.640625 -0.632812 1.90625 -0.53125 2.25 -0.53125 C 2.550781 -0.53125 2.820312 -0.632812 3.0625 -0.84375 C 3.3125 -1.0625 3.503906 -1.367188 3.640625 -1.765625 C 3.773438 -2.160156 3.84375 -2.609375 3.84375 -3.109375 Z M 3.84375 -3.109375 "/></g></g></g><g fill="#373434" fill-opacity="1"><g transform="translate(141.770233, 10.154826)"><g><path d="M 2.796875 -4.875 C 3.066406 -4.875 3.304688 -4.800781 3.515625 -4.65625 C 3.722656 -4.519531 3.882812 -4.316406 4 -4.046875 L 4.046875 -4.046875 L 4.34375 -4.796875 L 4.890625 -4.796875 L 3.875 0 L 3.296875 0 L 3.40625 -0.90625 L 3.375 -0.90625 C 2.851562 -0.238281 2.304688 0.09375 1.734375 0.09375 C 1.328125 0.09375 1.003906 -0.0507812 0.765625 -0.34375 C 0.535156 -0.632812 0.421875 -1.03125 0.421875 -1.53125 C 0.421875 -2.132812 0.523438 -2.695312 0.734375 -3.21875 C 0.941406 -3.738281 1.226562 -4.144531 1.59375 -4.4375 C 1.957031 -4.726562 2.359375 -4.875 2.796875 -4.875 Z M 1.96875 -0.515625 C 2.25 -0.515625 2.523438 -0.648438 2.796875 -0.921875 C 3.078125 -1.191406 3.304688 -1.539062 3.484375 -1.96875 C 3.660156 -2.40625 3.75 -2.84375 3.75 -3.28125 C 3.75 -3.582031 3.664062 -3.820312 3.5 -4 C 3.34375 -4.175781 3.128906 -4.265625 2.859375 -4.265625 C 2.554688 -4.265625 2.273438 -4.140625 2.015625 -3.890625 C 1.753906 -3.640625 1.550781 -3.296875 1.40625 -2.859375 C 1.257812 -2.429688 1.1875 -1.984375 1.1875 -1.515625 C 1.1875 -1.179688 1.253906 -0.929688 1.390625 -0.765625 C 1.523438 -0.597656 1.71875 -0.515625 1.96875 -0.515625 Z M 1.96875 -0.515625 "/></g></g></g><g fill="#373434" fill-opacity="1"><g transform="translate(149.067686, 10.154826)"><g><path d="M 2.796875 -4.875 C 3.359375 -4.875 3.765625 -4.597656 4.015625 -4.046875 L 4.0625 -4.046875 C 4.113281 -4.492188 4.179688 -4.890625 4.265625 -5.234375 L 4.609375 -6.796875 L 5.328125 -6.796875 L 3.890625 0 L 3.28125 0 L 3.375 -0.90625 L 3.34375 -0.90625 C 3.039062 -0.550781 2.757812 -0.296875 2.5 -0.140625 C 2.25 0.015625 1.988281 0.09375 1.71875 0.09375 C 1.3125 0.09375 0.992188 -0.046875 0.765625 -0.328125 C 0.535156 -0.617188 0.421875 -1.019531 0.421875 -1.53125 C 0.421875 -2.15625 0.523438 -2.722656 0.734375 -3.234375 C 0.953125 -3.753906 1.238281 -4.15625 1.59375 -4.4375 C 1.945312 -4.726562 2.347656 -4.875 2.796875 -4.875 Z M 1.96875 -0.515625 C 2.238281 -0.515625 2.519531 -0.648438 2.8125 -0.921875 C 3.101562 -1.203125 3.332031 -1.550781 3.5 -1.96875 C 3.675781 -2.394531 3.765625 -2.828125 3.765625 -3.265625 C 3.765625 -3.585938 3.679688 -3.832031 3.515625 -4 C 3.359375 -4.175781 3.132812 -4.265625 2.84375 -4.265625 C 2.539062 -4.265625 2.265625 -4.144531 2.015625 -3.90625 C 1.765625 -3.664062 1.5625 -3.328125 1.40625 -2.890625 C 1.257812 -2.453125 1.1875 -1.992188 1.1875 -1.515625 C 1.1875 -0.847656 1.445312 -0.515625 1.96875 -0.515625 Z M 1.96875 -0.515625 "/></g></g></g><g fill="#373434" fill-opacity="1"><g transform="translate(156.474449, 10.154826)"><g/></g></g><g fill="#373434" fill-opacity="1"><g transform="translate(161.039183, 10.154826)"><g><path d="M 0.421875 -4.796875 L 1.15625 -4.796875 L 1.484375 -2.40625 C 1.515625 -2.207031 1.539062 -1.910156 1.5625 -1.515625 C 1.59375 -1.128906 1.609375 -0.816406 1.609375 -0.578125 L 1.640625 -0.578125 C 1.742188 -0.828125 1.867188 -1.113281 2.015625 -1.4375 C 2.171875 -1.769531 2.285156 -2 2.359375 -2.125 L 3.78125 -4.796875 L 4.5625 -4.796875 L 1.515625 0.8125 C 1.242188 1.3125 0.972656 1.660156 0.703125 1.859375 C 0.441406 2.054688 0.125 2.15625 -0.25 2.15625 C -0.457031 2.15625 -0.660156 2.125 -0.859375 2.0625 L -0.859375 1.46875 C -0.671875 1.519531 -0.476562 1.546875 -0.28125 1.546875 C -0.0507812 1.546875 0.144531 1.472656 0.3125 1.328125 C 0.488281 1.179688 0.660156 0.960938 0.828125 0.671875 L 1.15625 0.078125 Z M 0.421875 -4.796875 "/></g></g></g><g fill="#373434" fill-opacity="1"><g transform="translate(167.41407, 10.154826)"><g><path d="M 2.8125 -4.859375 C 3.363281 -4.859375 3.800781 -4.691406 4.125 -4.359375 C 4.445312 -4.035156 4.609375 -3.582031 4.609375 -3 C 4.609375 -2.457031 4.5 -1.941406 4.28125 -1.453125 C 4.070312 -0.960938 3.785156 -0.585938 3.421875 -0.328125 C 3.066406 -0.0664062 2.664062 0.0625 2.21875 0.0625 C 1.65625 0.0625 1.210938 -0.0976562 0.890625 -0.421875 C 0.578125 -0.753906 0.421875 -1.207031 0.421875 -1.78125 C 0.421875 -2.332031 0.523438 -2.847656 0.734375 -3.328125 C 0.953125 -3.816406 1.242188 -4.191406 1.609375 -4.453125 C 1.972656 -4.722656 2.375 -4.859375 2.8125 -4.859375 Z M 3.84375 -3.109375 C 3.84375 -3.441406 3.75 -3.710938 3.5625 -3.921875 C 3.382812 -4.128906 3.140625 -4.234375 2.828125 -4.234375 C 2.515625 -4.234375 2.226562 -4.125 1.96875 -3.90625 C 1.71875 -3.695312 1.523438 -3.398438 1.390625 -3.015625 C 1.253906 -2.628906 1.1875 -2.203125 1.1875 -1.734375 C 1.1875 -1.347656 1.273438 -1.050781 1.453125 -0.84375 C 1.640625 -0.632812 1.90625 -0.53125 2.25 -0.53125 C 2.550781 -0.53125 2.820312 -0.632812 3.0625 -0.84375 C 3.3125 -1.0625 3.503906 -1.367188 3.640625 -1.765625 C 3.773438 -2.160156 3.84375 -2.609375 3.84375 -3.109375 Z M 3.84375 -3.109375 "/></g></g></g><g fill="#373434" fill-opacity="1"><g transform="translate(174.676545, 10.154826)"><g><path d="M 1.96875 -4.796875 L 1.3125 -1.75 C 1.257812 -1.488281 1.234375 -1.285156 1.234375 -1.140625 C 1.234375 -0.722656 1.445312 -0.515625 1.875 -0.515625 C 2.132812 -0.515625 2.382812 -0.601562 2.625 -0.78125 C 2.875 -0.957031 3.09375 -1.207031 3.28125 -1.53125 C 3.476562 -1.863281 3.625 -2.257812 3.71875 -2.71875 L 4.15625 -4.796875 L 4.890625 -4.796875 L 3.875 0 L 3.265625 0 L 3.359375 -0.890625 L 3.3125 -0.890625 C 3.03125 -0.523438 2.757812 -0.269531 2.5 -0.125 C 2.238281 0.0195312 1.96875 0.09375 1.6875 0.09375 C 1.3125 0.09375 1.019531 -0.00390625 0.8125 -0.203125 C 0.601562 -0.410156 0.5 -0.703125 0.5 -1.078125 C 0.5 -1.265625 0.53125 -1.519531 0.59375 -1.84375 L 1.234375 -4.796875 Z M 1.96875 -4.796875 "/></g></g></g><g fill="#373434" fill-opacity="1"><g transform="translate(182.083307, 10.154826)"><g><path d="M 3.28125 -4.875 C 3.488281 -4.875 3.664062 -4.851562 3.8125 -4.8125 L 3.65625 -4.15625 C 3.5 -4.195312 3.347656 -4.21875 3.203125 -4.21875 C 2.929688 -4.21875 2.679688 -4.128906 2.453125 -3.953125 C 2.222656 -3.773438 2.019531 -3.53125 1.84375 -3.21875 C 1.664062 -2.914062 1.535156 -2.570312 1.453125 -2.1875 L 1 0 L 0.265625 0 L 1.28125 -4.796875 L 1.890625 -4.796875 L 1.796875 -3.90625 L 1.84375 -3.90625 C 2.050781 -4.175781 2.222656 -4.375 2.359375 -4.5 C 2.492188 -4.625 2.632812 -4.71875 2.78125 -4.78125 C 2.9375 -4.84375 3.101562 -4.875 3.28125 -4.875 Z M 3.28125 -4.875 "/></g></g></g><g fill="#373434" fill-opacity="1"><g transform="translate(187.870841, 10.154826)"><g/></g></g><g fill="#373434" fill-opacity="1"><g transform="translate(5.048281, 22.094259)"><g><path d="M 2.375 0.09375 C 2.09375 0.09375 1.84375 0.0195312 1.625 -0.125 C 1.414062 -0.269531 1.253906 -0.476562 1.140625 -0.75 L 1.109375 -0.75 L 1.078125 -0.578125 C 1.078125 -0.503906 1.0625 -0.398438 1.03125 -0.265625 C 1.007812 -0.140625 0.84375 0.664062 0.53125 2.15625 L -0.1875 2.15625 L 1.28125 -4.796875 L 1.890625 -4.796875 L 1.78125 -3.875 L 1.8125 -3.875 C 2.332031 -4.539062 2.875 -4.875 3.4375 -4.875 C 3.832031 -4.875 4.144531 -4.726562 4.375 -4.4375 C 4.601562 -4.15625 4.71875 -3.757812 4.71875 -3.25 C 4.71875 -2.632812 4.617188 -2.066406 4.421875 -1.546875 C 4.222656 -1.035156 3.945312 -0.632812 3.59375 -0.34375 C 3.238281 -0.0507812 2.832031 0.09375 2.375 0.09375 Z M 3.203125 -4.265625 C 2.921875 -4.265625 2.632812 -4.125 2.34375 -3.84375 C 2.050781 -3.570312 1.816406 -3.222656 1.640625 -2.796875 C 1.472656 -2.378906 1.390625 -1.953125 1.390625 -1.515625 C 1.390625 -1.191406 1.46875 -0.941406 1.625 -0.765625 C 1.789062 -0.597656 2.03125 -0.515625 2.34375 -0.515625 C 2.625 -0.515625 2.890625 -0.632812 3.140625 -0.875 C 3.390625 -1.113281 3.585938 -1.445312 3.734375 -1.875 C 3.890625 -2.3125 3.96875 -2.773438 3.96875 -3.265625 C 3.96875 -3.929688 3.710938 -4.265625 3.203125 -4.265625 Z M 3.203125 -4.265625 "/></g></g></g><g fill="#373434" fill-opacity="1"><g transform="translate(12.455043, 22.094259)"><g><path d="M 3.1875 0 L 3.828125 -3.03125 C 3.878906 -3.300781 3.90625 -3.492188 3.90625 -3.609375 C 3.90625 -4.046875 3.691406 -4.265625 3.265625 -4.265625 C 3.003906 -4.265625 2.75 -4.175781 2.5 -4 C 2.257812 -3.832031 2.046875 -3.582031 1.859375 -3.25 C 1.671875 -2.925781 1.53125 -2.53125 1.4375 -2.0625 L 1 0 L 0.265625 0 L 1.703125 -6.796875 L 2.4375 -6.796875 C 2.382812 -6.554688 2.332031 -6.320312 2.28125 -6.09375 C 2.238281 -5.875 2.191406 -5.648438 2.140625 -5.421875 C 2.085938 -5.191406 2.03125 -4.945312 1.96875 -4.6875 C 1.90625 -4.4375 1.835938 -4.164062 1.765625 -3.875 L 1.8125 -3.875 C 2.082031 -4.226562 2.347656 -4.484375 2.609375 -4.640625 C 2.878906 -4.796875 3.160156 -4.875 3.453125 -4.875 C 3.835938 -4.875 4.132812 -4.765625 4.34375 -4.546875 C 4.550781 -4.335938 4.65625 -4.039062 4.65625 -3.65625 C 4.65625 -3.476562 4.625 -3.238281 4.5625 -2.9375 C 4.445312 -2.375 4.234375 -1.394531 3.921875 0 Z M 3.1875 0 "/></g></g></g><g fill="#373434" fill-opacity="1"><g transform="translate(19.861806, 22.094259)"><g><path d="M 2.8125 -4.859375 C 3.363281 -4.859375 3.800781 -4.691406 4.125 -4.359375 C 4.445312 -4.035156 4.609375 -3.582031 4.609375 -3 C 4.609375 -2.457031 4.5 -1.941406 4.28125 -1.453125 C 4.070312 -0.960938 3.785156 -0.585938 3.421875 -0.328125 C 3.066406 -0.0664062 2.664062 0.0625 2.21875 0.0625 C 1.65625 0.0625 1.210938 -0.0976562 0.890625 -0.421875 C 0.578125 -0.753906 0.421875 -1.207031 0.421875 -1.78125 C 0.421875 -2.332031 0.523438 -2.847656 0.734375 -3.328125 C 0.953125 -3.816406 1.242188 -4.191406 1.609375 -4.453125 C 1.972656 -4.722656 2.375 -4.859375 2.8125 -4.859375 Z M 3.84375 -3.109375 C 3.84375 -3.441406 3.75 -3.710938 3.5625 -3.921875 C 3.382812 -4.128906 3.140625 -4.234375 2.828125 -4.234375 C 2.515625 -4.234375 2.226562 -4.125 1.96875 -3.90625 C 1.71875 -3.695312 1.523438 -3.398438 1.390625 -3.015625 C 1.253906 -2.628906 1.1875 -2.203125 1.1875 -1.734375 C 1.1875 -1.347656 1.273438 -1.050781 1.453125 -0.84375 C 1.640625 -0.632812 1.90625 -0.53125 2.25 -0.53125 C 2.550781 -0.53125 2.820312 -0.632812 3.0625 -0.84375 C 3.3125 -1.0625 3.503906 -1.367188 3.640625 -1.765625 C 3.773438 -2.160156 3.84375 -2.609375 3.84375 -3.109375 Z M 3.84375 -3.109375 "/></g></g></g><g fill="#373434" fill-opacity="1"><g transform="translate(27.12428, 22.094259)"><g><path d="M 1.734375 -0.515625 C 1.890625 -0.515625 2.097656 -0.550781 2.359375 -0.625 L 2.359375 -0.0625 C 2.253906 -0.0195312 2.128906 0.015625 1.984375 0.046875 C 1.835938 0.078125 1.722656 0.09375 1.640625 0.09375 C 1.273438 0.09375 0.992188 0.00390625 0.796875 -0.171875 C 0.609375 -0.347656 0.515625 -0.609375 0.515625 -0.953125 C 0.515625 -1.140625 0.539062 -1.359375 0.59375 -1.609375 L 1.140625 -4.234375 L 0.390625 -4.234375 L 0.453125 -4.5625 L 1.265625 -4.890625 L 1.8125 -5.890625 L 2.234375 -5.890625 L 2 -4.796875 L 3.203125 -4.796875 L 3.078125 -4.234375 L 1.890625 -4.234375 L 1.328125 -1.59375 C 1.273438 -1.34375 1.25 -1.148438 1.25 -1.015625 C 1.25 -0.859375 1.289062 -0.734375 1.375 -0.640625 C 1.457031 -0.554688 1.578125 -0.515625 1.734375 -0.515625 Z M 1.734375 -0.515625 "/></g></g></g><g fill="#373434" fill-opacity="1"><g transform="translate(32.266165, 22.094259)"><g><path d="M 2.8125 -4.859375 C 3.363281 -4.859375 3.800781 -4.691406 4.125 -4.359375 C 4.445312 -4.035156 4.609375 -3.582031 4.609375 -3 C 4.609375 -2.457031 4.5 -1.941406 4.28125 -1.453125 C 4.070312 -0.960938 3.785156 -0.585938 3.421875 -0.328125 C 3.066406 -0.0664062 2.664062 0.0625 2.21875 0.0625 C 1.65625 0.0625 1.210938 -0.0976562 0.890625 -0.421875 C 0.578125 -0.753906 0.421875 -1.207031 0.421875 -1.78125 C 0.421875 -2.332031 0.523438 -2.847656 0.734375 -3.328125 C 0.953125 -3.816406 1.242188 -4.191406 1.609375 -4.453125 C 1.972656 -4.722656 2.375 -4.859375 2.8125 -4.859375 Z M 3.84375 -3.109375 C 3.84375 -3.441406 3.75 -3.710938 3.5625 -3.921875 C 3.382812 -4.128906 3.140625 -4.234375 2.828125 -4.234375 C 2.515625 -4.234375 2.226562 -4.125 1.96875 -3.90625 C 1.71875 -3.695312 1.523438 -3.398438 1.390625 -3.015625 C 1.253906 -2.628906 1.1875 -2.203125 1.1875 -1.734375 C 1.1875 -1.347656 1.273438 -1.050781 1.453125 -0.84375 C 1.640625 -0.632812 1.90625 -0.53125 2.25 -0.53125 C 2.550781 -0.53125 2.820312 -0.632812 3.0625 -0.84375 C 3.3125 -1.0625 3.503906 -1.367188 3.640625 -1.765625 C 3.773438 -2.160156 3.84375 -2.609375 3.84375 -3.109375 Z M 3.84375 -3.109375 "/></g></g></g><g fill="#373434" fill-opacity="1"><g transform="translate(39.528639, 22.094259)"><g><path d="M 3.21875 -1.359375 C 3.21875 -0.898438 3.054688 -0.539062 2.734375 -0.28125 C 2.410156 -0.03125 1.957031 0.09375 1.375 0.09375 C 0.875 0.09375 0.425781 -0.0078125 0.03125 -0.21875 L 0.03125 -0.90625 C 0.238281 -0.78125 0.457031 -0.679688 0.6875 -0.609375 C 0.925781 -0.546875 1.144531 -0.515625 1.34375 -0.515625 C 1.71875 -0.515625 2 -0.585938 2.1875 -0.734375 C 2.375 -0.878906 2.46875 -1.066406 2.46875 -1.296875 C 2.46875 -1.460938 2.414062 -1.601562 2.3125 -1.71875 C 2.207031 -1.832031 1.984375 -1.988281 1.640625 -2.1875 C 1.265625 -2.394531 1 -2.597656 0.84375 -2.796875 C 0.6875 -3.003906 0.609375 -3.25 0.609375 -3.53125 C 0.609375 -3.9375 0.753906 -4.257812 1.046875 -4.5 C 1.335938 -4.75 1.726562 -4.875 2.21875 -4.875 C 2.707031 -4.875 3.1875 -4.769531 3.65625 -4.5625 L 3.421875 -3.953125 L 3.171875 -4.0625 C 2.878906 -4.1875 2.5625 -4.25 2.21875 -4.25 C 1.945312 -4.25 1.734375 -4.1875 1.578125 -4.0625 C 1.421875 -3.9375 1.34375 -3.773438 1.34375 -3.578125 C 1.34375 -3.410156 1.394531 -3.269531 1.5 -3.15625 C 1.601562 -3.039062 1.816406 -2.890625 2.140625 -2.703125 C 2.453125 -2.523438 2.675781 -2.375 2.8125 -2.25 C 2.945312 -2.125 3.046875 -1.988281 3.109375 -1.84375 C 3.179688 -1.695312 3.21875 -1.535156 3.21875 -1.359375 Z M 3.21875 -1.359375 "/></g></g></g><g fill="#373434" fill-opacity="1"><g transform="translate(45.601835, 22.094259)"><g/></g></g><g fill="#373434" fill-opacity="1"><g transform="translate(50.166569, 22.094259)"><g><path d="M 1.734375 -0.515625 C 1.890625 -0.515625 2.097656 -0.550781 2.359375 -0.625 L 2.359375 -0.0625 C 2.253906 -0.0195312 2.128906 0.015625 1.984375 0.046875 C 1.835938 0.078125 1.722656 0.09375 1.640625 0.09375 C 1.273438 0.09375 0.992188 0.00390625 0.796875 -0.171875 C 0.609375 -0.347656 0.515625 -0.609375 0.515625 -0.953125 C 0.515625 -1.140625 0.539062 -1.359375 0.59375 -1.609375 L 1.140625 -4.234375 L 0.390625 -4.234375 L 0.453125 -4.5625 L 1.265625 -4.890625 L 1.8125 -5.890625 L 2.234375 -5.890625 L 2 -4.796875 L 3.203125 -4.796875 L 3.078125 -4.234375 L 1.890625 -4.234375 L 1.328125 -1.59375 C 1.273438 -1.34375 1.25 -1.148438 1.25 -1.015625 C 1.25 -0.859375 1.289062 -0.734375 1.375 -0.640625 C 1.457031 -0.554688 1.578125 -0.515625 1.734375 -0.515625 Z M 1.734375 -0.515625 "/></g></g></g><g fill="#373434" fill-opacity="1"><g transform="translate(55.308453, 22.094259)"><g><path d="M 2.8125 -4.859375 C 3.363281 -4.859375 3.800781 -4.691406 4.125 -4.359375 C 4.445312 -4.035156 4.609375 -3.582031 4.609375 -3 C 4.609375 -2.457031 4.5 -1.941406 4.28125 -1.453125 C 4.070312 -0.960938 3.785156 -0.585938 3.421875 -0.328125 C 3.066406 -0.0664062 2.664062 0.0625 2.21875 0.0625 C 1.65625 0.0625 1.210938 -0.0976562 0.890625 -0.421875 C 0.578125 -0.753906 0.421875 -1.207031 0.421875 -1.78125 C 0.421875 -2.332031 0.523438 -2.847656 0.734375 -3.328125 C 0.953125 -3.816406 1.242188 -4.191406 1.609375 -4.453125 C 1.972656 -4.722656 2.375 -4.859375 2.8125 -4.859375 Z M 3.84375 -3.109375 C 3.84375 -3.441406 3.75 -3.710938 3.5625 -3.921875 C 3.382812 -4.128906 3.140625 -4.234375 2.828125 -4.234375 C 2.515625 -4.234375 2.226562 -4.125 1.96875 -3.90625 C 1.71875 -3.695312 1.523438 -3.398438 1.390625 -3.015625 C 1.253906 -2.628906 1.1875 -2.203125 1.1875 -1.734375 C 1.1875 -1.347656 1.273438 -1.050781 1.453125 -0.84375 C 1.640625 -0.632812 1.90625 -0.53125 2.25 -0.53125 C 2.550781 -0.53125 2.820312 -0.632812 3.0625 -0.84375 C 3.3125 -1.0625 3.503906 -1.367188 3.640625 -1.765625 C 3.773438 -2.160156 3.84375 -2.609375 3.84375 -3.109375 Z M 3.84375 -3.109375 "/></g></g></g><g fill="#373434" fill-opacity="1"><g transform="translate(62.570928, 22.094259)"><g/></g></g><g fill="#373434" fill-opacity="1"><g transform="translate(67.135662, 22.094259)"><g><path d="M 3.21875 -1.359375 C 3.21875 -0.898438 3.054688 -0.539062 2.734375 -0.28125 C 2.410156 -0.03125 1.957031 0.09375 1.375 0.09375 C 0.875 0.09375 0.425781 -0.0078125 0.03125 -0.21875 L 0.03125 -0.90625 C 0.238281 -0.78125 0.457031 -0.679688 0.6875 -0.609375 C 0.925781 -0.546875 1.144531 -0.515625 1.34375 -0.515625 C 1.71875 -0.515625 2 -0.585938 2.1875 -0.734375 C 2.375 -0.878906 2.46875 -1.066406 2.46875 -1.296875 C 2.46875 -1.460938 2.414062 -1.601562 2.3125 -1.71875 C 2.207031 -1.832031 1.984375 -1.988281 1.640625 -2.1875 C 1.265625 -2.394531 1 -2.597656 0.84375 -2.796875 C 0.6875 -3.003906 0.609375 -3.25 0.609375 -3.53125 C 0.609375 -3.9375 0.753906 -4.257812 1.046875 -4.5 C 1.335938 -4.75 1.726562 -4.875 2.21875 -4.875 C 2.707031 -4.875 3.1875 -4.769531 3.65625 -4.5625 L 3.421875 -3.953125 L 3.171875 -4.0625 C 2.878906 -4.1875 2.5625 -4.25 2.21875 -4.25 C 1.945312 -4.25 1.734375 -4.1875 1.578125 -4.0625 C 1.421875 -3.9375 1.34375 -3.773438 1.34375 -3.578125 C 1.34375 -3.410156 1.394531 -3.269531 1.5 -3.15625 C 1.601562 -3.039062 1.816406 -2.890625 2.140625 -2.703125 C 2.453125 -2.523438 2.675781 -2.375 2.8125 -2.25 C 2.945312 -2.125 3.046875 -1.988281 3.109375 -1.84375 C 3.179688 -1.695312 3.21875 -1.535156 3.21875 -1.359375 Z M 3.21875 -1.359375 "/></g></g></g><g fill="#373434" fill-opacity="1"><g transform="translate(73.208857, 22.094259)"><g><path d="M 3.1875 0 L 3.828125 -3.03125 C 3.878906 -3.300781 3.90625 -3.492188 3.90625 -3.609375 C 3.90625 -4.046875 3.691406 -4.265625 3.265625 -4.265625 C 3.003906 -4.265625 2.75 -4.175781 2.5 -4 C 2.257812 -3.832031 2.046875 -3.582031 1.859375 -3.25 C 1.671875 -2.925781 1.53125 -2.53125 1.4375 -2.0625 L 1 0 L 0.265625 0 L 1.703125 -6.796875 L 2.4375 -6.796875 C 2.382812 -6.554688 2.332031 -6.320312 2.28125 -6.09375 C 2.238281 -5.875 2.191406 -5.648438 2.140625 -5.421875 C 2.085938 -5.191406 2.03125 -4.945312 1.96875 -4.6875 C 1.90625 -4.4375 1.835938 -4.164062 1.765625 -3.875 L 1.8125 -3.875 C 2.082031 -4.226562 2.347656 -4.484375 2.609375 -4.640625 C 2.878906 -4.796875 3.160156 -4.875 3.453125 -4.875 C 3.835938 -4.875 4.132812 -4.765625 4.34375 -4.546875 C 4.550781 -4.335938 4.65625 -4.039062 4.65625 -3.65625 C 4.65625 -3.476562 4.625 -3.238281 4.5625 -2.9375 C 4.445312 -2.375 4.234375 -1.394531 3.921875 0 Z M 3.1875 0 "/></g></g></g><g fill="#373434" fill-opacity="1"><g transform="translate(80.61562, 22.094259)"><g><path d="M 2.796875 -4.875 C 3.066406 -4.875 3.304688 -4.800781 3.515625 -4.65625 C 3.722656 -4.519531 3.882812 -4.316406 4 -4.046875 L 4.046875 -4.046875 L 4.34375 -4.796875 L 4.890625 -4.796875 L 3.875 0 L 3.296875 0 L 3.40625 -0.90625 L 3.375 -0.90625 C 2.851562 -0.238281 2.304688 0.09375 1.734375 0.09375 C 1.328125 0.09375 1.003906 -0.0507812 0.765625 -0.34375 C 0.535156 -0.632812 0.421875 -1.03125 0.421875 -1.53125 C 0.421875 -2.132812 0.523438 -2.695312 0.734375 -3.21875 C 0.941406 -3.738281 1.226562 -4.144531 1.59375 -4.4375 C 1.957031 -4.726562 2.359375 -4.875 2.796875 -4.875 Z M 1.96875 -0.515625 C 2.25 -0.515625 2.523438 -0.648438 2.796875 -0.921875 C 3.078125 -1.191406 3.304688 -1.539062 3.484375 -1.96875 C 3.660156 -2.40625 3.75 -2.84375 3.75 -3.28125 C 3.75 -3.582031 3.664062 -3.820312 3.5 -4 C 3.34375 -4.175781 3.128906 -4.265625 2.859375 -4.265625 C 2.554688 -4.265625 2.273438 -4.140625 2.015625 -3.890625 C 1.753906 -3.640625 1.550781 -3.296875 1.40625 -2.859375 C 1.257812 -2.429688 1.1875 -1.984375 1.1875 -1.515625 C 1.1875 -1.179688 1.253906 -0.929688 1.390625 -0.765625 C 1.523438 -0.597656 1.71875 -0.515625 1.96875 -0.515625 Z M 1.96875 -0.515625 "/></g></g></g><g fill="#373434" fill-opacity="1"><g transform="translate(87.913073, 22.094259)"><g><path d="M 3.28125 -4.875 C 3.488281 -4.875 3.664062 -4.851562 3.8125 -4.8125 L 3.65625 -4.15625 C 3.5 -4.195312 3.347656 -4.21875 3.203125 -4.21875 C 2.929688 -4.21875 2.679688 -4.128906 2.453125 -3.953125 C 2.222656 -3.773438 2.019531 -3.53125 1.84375 -3.21875 C 1.664062 -2.914062 1.535156 -2.570312 1.453125 -2.1875 L 1 0 L 0.265625 0 L 1.28125 -4.796875 L 1.890625 -4.796875 L 1.796875 -3.90625 L 1.84375 -3.90625 C 2.050781 -4.175781 2.222656 -4.375 2.359375 -4.5 C 2.492188 -4.625 2.632812 -4.71875 2.78125 -4.78125 C 2.9375 -4.84375 3.101562 -4.875 3.28125 -4.875 Z M 3.28125 -4.875 "/></g></g></g><g fill="#373434" fill-opacity="1"><g transform="translate(93.697693, 22.094259)"><g><path d="M 2.15625 0.09375 C 1.613281 0.09375 1.1875 -0.0625 0.875 -0.375 C 0.570312 -0.695312 0.421875 -1.140625 0.421875 -1.703125 C 0.421875 -2.253906 0.53125 -2.78125 0.75 -3.28125 C 0.96875 -3.789062 1.253906 -4.179688 1.609375 -4.453125 C 1.972656 -4.734375 2.367188 -4.875 2.796875 -4.875 C 3.242188 -4.875 3.578125 -4.773438 3.796875 -4.578125 C 4.023438 -4.390625 4.140625 -4.125 4.140625 -3.78125 C 4.140625 -3.25 3.894531 -2.832031 3.40625 -2.53125 C 2.925781 -2.238281 2.238281 -2.09375 1.34375 -2.09375 L 1.203125 -2.09375 L 1.1875 -1.75 C 1.1875 -1.363281 1.273438 -1.0625 1.453125 -0.84375 C 1.628906 -0.632812 1.90625 -0.53125 2.28125 -0.53125 C 2.46875 -0.53125 2.65625 -0.554688 2.84375 -0.609375 C 3.039062 -0.660156 3.285156 -0.753906 3.578125 -0.890625 L 3.578125 -0.265625 C 3.296875 -0.128906 3.050781 -0.0351562 2.84375 0.015625 C 2.632812 0.0664062 2.40625 0.09375 2.15625 0.09375 Z M 2.765625 -4.25 C 2.460938 -4.25 2.175781 -4.113281 1.90625 -3.84375 C 1.644531 -3.570312 1.445312 -3.191406 1.3125 -2.703125 L 1.359375 -2.703125 C 2.023438 -2.703125 2.535156 -2.785156 2.890625 -2.953125 C 3.242188 -3.128906 3.421875 -3.382812 3.421875 -3.71875 C 3.421875 -3.875 3.363281 -4 3.25 -4.09375 C 3.144531 -4.195312 2.984375 -4.25 2.765625 -4.25 Z M 2.765625 -4.25 "/></g></g></g><g fill="#373434" fill-opacity="1"><g transform="translate(100.352411, 22.094259)"><g/></g></g><g fill="#373434" fill-opacity="1"><g transform="translate(104.917145, 22.094259)"><g><path d="M 3.640625 0 L 3.5 -2.625 C 3.476562 -2.90625 3.46875 -3.160156 3.46875 -3.390625 L 3.46875 -4.0625 L 3.4375 -4.0625 L 3.21875 -3.546875 L 2.859375 -2.71875 L 1.578125 0 L 0.703125 0 L 0.515625 -4.796875 L 1.234375 -4.796875 L 1.3125 -2.1875 L 1.3125 -1.8125 C 1.3125 -1.382812 1.296875 -0.992188 1.265625 -0.640625 L 1.296875 -0.640625 C 1.429688 -0.992188 1.628906 -1.460938 1.890625 -2.046875 L 3.1875 -4.796875 L 3.984375 -4.796875 L 4.140625 -2.1875 C 4.160156 -1.695312 4.171875 -1.316406 4.171875 -1.046875 L 4.171875 -0.8125 L 4.15625 -0.640625 L 4.1875 -0.640625 C 4.269531 -0.890625 4.390625 -1.207031 4.546875 -1.59375 C 4.710938 -1.976562 5.1875 -3.046875 5.96875 -4.796875 L 6.734375 -4.796875 L 4.53125 0 Z M 3.640625 0 "/></g></g></g><g fill="#373434" fill-opacity="1"><g transform="translate(113.5744, 22.094259)"><g><path d="M 1 0 L 0.265625 0 L 1.28125 -4.796875 L 2.015625 -4.796875 Z M 1.484375 -6.015625 C 1.484375 -6.179688 1.53125 -6.316406 1.625 -6.421875 C 1.71875 -6.523438 1.835938 -6.578125 1.984375 -6.578125 C 2.242188 -6.578125 2.375 -6.441406 2.375 -6.171875 C 2.375 -6.015625 2.320312 -5.878906 2.21875 -5.765625 C 2.125 -5.660156 2.015625 -5.609375 1.890625 -5.609375 C 1.773438 -5.609375 1.675781 -5.640625 1.59375 -5.703125 C 1.519531 -5.773438 1.484375 -5.878906 1.484375 -6.015625 Z M 1.484375 -6.015625 "/></g></g></g><g fill="#373434" fill-opacity="1"><g transform="translate(118.086666, 22.094259)"><g><path d="M 1.734375 -0.515625 C 1.890625 -0.515625 2.097656 -0.550781 2.359375 -0.625 L 2.359375 -0.0625 C 2.253906 -0.0195312 2.128906 0.015625 1.984375 0.046875 C 1.835938 0.078125 1.722656 0.09375 1.640625 0.09375 C 1.273438 0.09375 0.992188 0.00390625 0.796875 -0.171875 C 0.609375 -0.347656 0.515625 -0.609375 0.515625 -0.953125 C 0.515625 -1.140625 0.539062 -1.359375 0.59375 -1.609375 L 1.140625 -4.234375 L 0.390625 -4.234375 L 0.453125 -4.5625 L 1.265625 -4.890625 L 1.8125 -5.890625 L 2.234375 -5.890625 L 2 -4.796875 L 3.203125 -4.796875 L 3.078125 -4.234375 L 1.890625 -4.234375 L 1.328125 -1.59375 C 1.273438 -1.34375 1.25 -1.148438 1.25 -1.015625 C 1.25 -0.859375 1.289062 -0.734375 1.375 -0.640625 C 1.457031 -0.554688 1.578125 -0.515625 1.734375 -0.515625 Z M 1.734375 -0.515625 "/></g></g></g><g fill="#373434" fill-opacity="1"><g transform="translate(123.22855, 22.094259)"><g><path d="M 3.1875 0 L 3.828125 -3.03125 C 3.878906 -3.300781 3.90625 -3.492188 3.90625 -3.609375 C 3.90625 -4.046875 3.691406 -4.265625 3.265625 -4.265625 C 3.003906 -4.265625 2.75 -4.175781 2.5 -4 C 2.257812 -3.832031 2.046875 -3.582031 1.859375 -3.25 C 1.671875 -2.925781 1.53125 -2.53125 1.4375 -2.0625 L 1 0 L 0.265625 0 L 1.703125 -6.796875 L 2.4375 -6.796875 C 2.382812 -6.554688 2.332031 -6.320312 2.28125 -6.09375 C 2.238281 -5.875 2.191406 -5.648438 2.140625 -5.421875 C 2.085938 -5.191406 2.03125 -4.945312 1.96875 -4.6875 C 1.90625 -4.4375 1.835938 -4.164062 1.765625 -3.875 L 1.8125 -3.875 C 2.082031 -4.226562 2.347656 -4.484375 2.609375 -4.640625 C 2.878906 -4.796875 3.160156 -4.875 3.453125 -4.875 C 3.835938 -4.875 4.132812 -4.765625 4.34375 -4.546875 C 4.550781 -4.335938 4.65625 -4.039062 4.65625 -3.65625 C 4.65625 -3.476562 4.625 -3.238281 4.5625 -2.9375 C 4.445312 -2.375 4.234375 -1.394531 3.921875 0 Z M 3.1875 0 "/></g></g></g><g fill="#373434" fill-opacity="1"><g transform="translate(130.635313, 22.094259)"><g/></g></g><g fill="#373434" fill-opacity="1"><g transform="translate(135.200047, 22.094259)"><g><path d="M 2.15625 0.09375 C 1.613281 0.09375 1.1875 -0.0625 0.875 -0.375 C 0.570312 -0.695312 0.421875 -1.140625 0.421875 -1.703125 C 0.421875 -2.253906 0.53125 -2.78125 0.75 -3.28125 C 0.96875 -3.789062 1.253906 -4.179688 1.609375 -4.453125 C 1.972656 -4.734375 2.367188 -4.875 2.796875 -4.875 C 3.242188 -4.875 3.578125 -4.773438 3.796875 -4.578125 C 4.023438 -4.390625 4.140625 -4.125 4.140625 -3.78125 C 4.140625 -3.25 3.894531 -2.832031 3.40625 -2.53125 C 2.925781 -2.238281 2.238281 -2.09375 1.34375 -2.09375 L 1.203125 -2.09375 L 1.1875 -1.75 C 1.1875 -1.363281 1.273438 -1.0625 1.453125 -0.84375 C 1.628906 -0.632812 1.90625 -0.53125 2.28125 -0.53125 C 2.46875 -0.53125 2.65625 -0.554688 2.84375 -0.609375 C 3.039062 -0.660156 3.285156 -0.753906 3.578125 -0.890625 L 3.578125 -0.265625 C 3.296875 -0.128906 3.050781 -0.0351562 2.84375 0.015625 C 2.632812 0.0664062 2.40625 0.09375 2.15625 0.09375 Z M 2.765625 -4.25 C 2.460938 -4.25 2.175781 -4.113281 1.90625 -3.84375 C 1.644531 -3.570312 1.445312 -3.191406 1.3125 -2.703125 L 1.359375 -2.703125 C 2.023438 -2.703125 2.535156 -2.785156 2.890625 -2.953125 C 3.242188 -3.128906 3.421875 -3.382812 3.421875 -3.71875 C 3.421875 -3.875 3.363281 -4 3.25 -4.09375 C 3.144531 -4.195312 2.984375 -4.25 2.765625 -4.25 Z M 2.765625 -4.25 "/></g></g></g><g fill="#373434" fill-opacity="1"><g transform="translate(141.854765, 22.094259)"><g><path d="M 0.96875 0 L 0.421875 -4.796875 L 1.15625 -4.796875 L 1.4375 -2.109375 C 1.507812 -1.359375 1.546875 -0.832031 1.546875 -0.53125 L 1.578125 -0.53125 C 1.941406 -1.332031 2.203125 -1.875 2.359375 -2.15625 L 3.78125 -4.796875 L 4.5625 -4.796875 L 1.96875 0 Z M 0.96875 0 "/></g></g></g><g fill="#373434" fill-opacity="1"><g transform="translate(148.229652, 22.094259)"><g><path d="M 2.15625 0.09375 C 1.613281 0.09375 1.1875 -0.0625 0.875 -0.375 C 0.570312 -0.695312 0.421875 -1.140625 0.421875 -1.703125 C 0.421875 -2.253906 0.53125 -2.78125 0.75 -3.28125 C 0.96875 -3.789062 1.253906 -4.179688 1.609375 -4.453125 C 1.972656 -4.734375 2.367188 -4.875 2.796875 -4.875 C 3.242188 -4.875 3.578125 -4.773438 3.796875 -4.578125 C 4.023438 -4.390625 4.140625 -4.125 4.140625 -3.78125 C 4.140625 -3.25 3.894531 -2.832031 3.40625 -2.53125 C 2.925781 -2.238281 2.238281 -2.09375 1.34375 -2.09375 L 1.203125 -2.09375 L 1.1875 -1.75 C 1.1875 -1.363281 1.273438 -1.0625 1.453125 -0.84375 C 1.628906 -0.632812 1.90625 -0.53125 2.28125 -0.53125 C 2.46875 -0.53125 2.65625 -0.554688 2.84375 -0.609375 C 3.039062 -0.660156 3.285156 -0.753906 3.578125 -0.890625 L 3.578125 -0.265625 C 3.296875 -0.128906 3.050781 -0.0351562 2.84375 0.015625 C 2.632812 0.0664062 2.40625 0.09375 2.15625 0.09375 Z M 2.765625 -4.25 C 2.460938 -4.25 2.175781 -4.113281 1.90625 -3.84375 C 1.644531 -3.570312 1.445312 -3.191406 1.3125 -2.703125 L 1.359375 -2.703125 C 2.023438 -2.703125 2.535156 -2.785156 2.890625 -2.953125 C 3.242188 -3.128906 3.421875 -3.382812 3.421875 -3.71875 C 3.421875 -3.875 3.363281 -4 3.25 -4.09375 C 3.144531 -4.195312 2.984375 -4.25 2.765625 -4.25 Z M 2.765625 -4.25 "/></g></g></g><g fill="#373434" fill-opacity="1"><g transform="translate(154.88437, 22.094259)"><g><path d="M 3.28125 -4.875 C 3.488281 -4.875 3.664062 -4.851562 3.8125 -4.8125 L 3.65625 -4.15625 C 3.5 -4.195312 3.347656 -4.21875 3.203125 -4.21875 C 2.929688 -4.21875 2.679688 -4.128906 2.453125 -3.953125 C 2.222656 -3.773438 2.019531 -3.53125 1.84375 -3.21875 C 1.664062 -2.914062 1.535156 -2.570312 1.453125 -2.1875 L 1 0 L 0.265625 0 L 1.28125 -4.796875 L 1.890625 -4.796875 L 1.796875 -3.90625 L 1.84375 -3.90625 C 2.050781 -4.175781 2.222656 -4.375 2.359375 -4.5 C 2.492188 -4.625 2.632812 -4.71875 2.78125 -4.78125 C 2.9375 -4.84375 3.101562 -4.875 3.28125 -4.875 Z M 3.28125 -4.875 "/></g></g></g><g fill="#373434" fill-opacity="1"><g transform="translate(160.66899, 22.094259)"><g><path d="M 0.421875 -4.796875 L 1.15625 -4.796875 L 1.484375 -2.40625 C 1.515625 -2.207031 1.539062 -1.910156 1.5625 -1.515625 C 1.59375 -1.128906 1.609375 -0.816406 1.609375 -0.578125 L 1.640625 -0.578125 C 1.742188 -0.828125 1.867188 -1.113281 2.015625 -1.4375 C 2.171875 -1.769531 2.285156 -2 2.359375 -2.125 L 3.78125 -4.796875 L 4.5625 -4.796875 L 1.515625 0.8125 C 1.242188 1.3125 0.972656 1.660156 0.703125 1.859375 C 0.441406 2.054688 0.125 2.15625 -0.25 2.15625 C -0.457031 2.15625 -0.660156 2.125 -0.859375 2.0625 L -0.859375 1.46875 C -0.671875 1.519531 -0.476562 1.546875 -0.28125 1.546875 C -0.0507812 1.546875 0.144531 1.472656 0.3125 1.328125 C 0.488281 1.179688 0.660156 0.960938 0.828125 0.671875 L 1.15625 0.078125 Z M 0.421875 -4.796875 "/></g></g></g><g fill="#373434" fill-opacity="1"><g transform="translate(167.043878, 22.094259)"><g><path d="M 2.8125 -4.859375 C 3.363281 -4.859375 3.800781 -4.691406 4.125 -4.359375 C 4.445312 -4.035156 4.609375 -3.582031 4.609375 -3 C 4.609375 -2.457031 4.5 -1.941406 4.28125 -1.453125 C 4.070312 -0.960938 3.785156 -0.585938 3.421875 -0.328125 C 3.066406 -0.0664062 2.664062 0.0625 2.21875 0.0625 C 1.65625 0.0625 1.210938 -0.0976562 0.890625 -0.421875 C 0.578125 -0.753906 0.421875 -1.207031 0.421875 -1.78125 C 0.421875 -2.332031 0.523438 -2.847656 0.734375 -3.328125 C 0.953125 -3.816406 1.242188 -4.191406 1.609375 -4.453125 C 1.972656 -4.722656 2.375 -4.859375 2.8125 -4.859375 Z M 3.84375 -3.109375 C 3.84375 -3.441406 3.75 -3.710938 3.5625 -3.921875 C 3.382812 -4.128906 3.140625 -4.234375 2.828125 -4.234375 C 2.515625 -4.234375 2.226562 -4.125 1.96875 -3.90625 C 1.71875 -3.695312 1.523438 -3.398438 1.390625 -3.015625 C 1.253906 -2.628906 1.1875 -2.203125 1.1875 -1.734375 C 1.1875 -1.347656 1.273438 -1.050781 1.453125 -0.84375 C 1.640625 -0.632812 1.90625 -0.53125 2.25 -0.53125 C 2.550781 -0.53125 2.820312 -0.632812 3.0625 -0.84375 C 3.3125 -1.0625 3.503906 -1.367188 3.640625 -1.765625 C 3.773438 -2.160156 3.84375 -2.609375 3.84375 -3.109375 Z M 3.84375 -3.109375 "/></g></g></g><g fill="#373434" fill-opacity="1"><g transform="translate(174.306352, 22.094259)"><g><path d="M 3.1875 0 L 3.828125 -3.03125 C 3.890625 -3.332031 3.921875 -3.539062 3.921875 -3.65625 C 3.921875 -3.84375 3.867188 -3.988281 3.765625 -4.09375 C 3.660156 -4.207031 3.492188 -4.265625 3.265625 -4.265625 C 3.003906 -4.265625 2.75 -4.175781 2.5 -4 C 2.257812 -3.820312 2.046875 -3.570312 1.859375 -3.25 C 1.671875 -2.925781 1.53125 -2.535156 1.4375 -2.078125 L 1 0 L 0.265625 0 L 1.28125 -4.796875 L 1.890625 -4.796875 L 1.796875 -3.90625 L 1.84375 -3.90625 C 2.113281 -4.257812 2.378906 -4.507812 2.640625 -4.65625 C 2.898438 -4.800781 3.171875 -4.875 3.453125 -4.875 C 3.828125 -4.875 4.117188 -4.769531 4.328125 -4.5625 C 4.546875 -4.363281 4.65625 -4.082031 4.65625 -3.71875 C 4.65625 -3.488281 4.625 -3.226562 4.5625 -2.9375 L 3.9375 0 Z M 3.1875 0 "/></g></g></g><g fill="#373434" fill-opacity="1"><g transform="translate(181.713115, 22.094259)"><g><path d="M 2.15625 0.09375 C 1.613281 0.09375 1.1875 -0.0625 0.875 -0.375 C 0.570312 -0.695312 0.421875 -1.140625 0.421875 -1.703125 C 0.421875 -2.253906 0.53125 -2.78125 0.75 -3.28125 C 0.96875 -3.789062 1.253906 -4.179688 1.609375 -4.453125 C 1.972656 -4.734375 2.367188 -4.875 2.796875 -4.875 C 3.242188 -4.875 3.578125 -4.773438 3.796875 -4.578125 C 4.023438 -4.390625 4.140625 -4.125 4.140625 -3.78125 C 4.140625 -3.25 3.894531 -2.832031 3.40625 -2.53125 C 2.925781 -2.238281 2.238281 -2.09375 1.34375 -2.09375 L 1.203125 -2.09375 L 1.1875 -1.75 C 1.1875 -1.363281 1.273438 -1.0625 1.453125 -0.84375 C 1.628906 -0.632812 1.90625 -0.53125 2.28125 -0.53125 C 2.46875 -0.53125 2.65625 -0.554688 2.84375 -0.609375 C 3.039062 -0.660156 3.285156 -0.753906 3.578125 -0.890625 L 3.578125 -0.265625 C 3.296875 -0.128906 3.050781 -0.0351562 2.84375 0.015625 C 2.632812 0.0664062 2.40625 0.09375 2.15625 0.09375 Z M 2.765625 -4.25 C 2.460938 -4.25 2.175781 -4.113281 1.90625 -3.84375 C 1.644531 -3.570312 1.445312 -3.191406 1.3125 -2.703125 L 1.359375 -2.703125 C 2.023438 -2.703125 2.535156 -2.785156 2.890625 -2.953125 C 3.242188 -3.128906 3.421875 -3.382812 3.421875 -3.71875 C 3.421875 -3.875 3.363281 -4 3.25 -4.09375 C 3.144531 -4.195312 2.984375 -4.25 2.765625 -4.25 Z M 2.765625 -4.25 "/></g></g></g></g></g><g transform="matrix(1, 0, 0, 1, 107, 330)"><g clip-path="url(#1ef5828bca)"><g fill="#3d3b3a" fill-opacity="1"><g transform="translate(1.293595, 26.233565)"><g><path d="M 17.265625 -8.609375 C 17.265625 -6.410156 16.820312 -4.582031 15.9375 -3.125 C 15.050781 -1.664062 13.804688 -0.679688 12.203125 -0.171875 L 16.28125 4.09375 L 13.375 4.09375 L 10.03125 0.21875 L 9.390625 0.234375 C 6.859375 0.234375 4.90625 -0.535156 3.53125 -2.078125 C 2.15625 -3.628906 1.46875 -5.816406 1.46875 -8.640625 C 1.46875 -11.429688 2.15625 -13.597656 3.53125 -15.140625 C 4.914062 -16.679688 6.875 -17.453125 9.40625 -17.453125 C 11.875 -17.453125 13.800781 -16.664062 15.1875 -15.09375 C 16.570312 -13.53125 17.265625 -11.367188 17.265625 -8.609375 Z M 3.578125 -8.609375 C 3.578125 -6.285156 4.070312 -4.519531 5.0625 -3.3125 C 6.0625 -2.113281 7.503906 -1.515625 9.390625 -1.515625 C 11.296875 -1.515625 12.734375 -2.113281 13.703125 -3.3125 C 14.671875 -4.507812 15.15625 -6.273438 15.15625 -8.609375 C 15.15625 -10.921875 14.671875 -12.671875 13.703125 -13.859375 C 12.734375 -15.054688 11.300781 -15.65625 9.40625 -15.65625 C 7.507812 -15.65625 6.0625 -15.054688 5.0625 -13.859375 C 4.070312 -12.660156 3.578125 -10.910156 3.578125 -8.609375 Z M 3.578125 -8.609375 "/></g></g></g><g fill="#3d3b3a" fill-opacity="1"><g transform="translate(20.034343, 26.233565)"><g><path d="M 4.359375 -7.140625 L 4.359375 0 L 2.359375 0 L 2.359375 -17.171875 L 7.078125 -17.171875 C 9.179688 -17.171875 10.734375 -16.765625 11.734375 -15.953125 C 12.742188 -15.148438 13.25 -13.941406 13.25 -12.328125 C 13.25 -10.054688 12.097656 -8.519531 9.796875 -7.71875 L 14.46875 0 L 12.109375 0 L 7.9375 -7.140625 Z M 4.359375 -8.859375 L 7.09375 -8.859375 C 8.507812 -8.859375 9.546875 -9.140625 10.203125 -9.703125 C 10.859375 -10.265625 11.1875 -11.101562 11.1875 -12.21875 C 11.1875 -13.351562 10.847656 -14.171875 10.171875 -14.671875 C 9.503906 -15.171875 8.429688 -15.421875 6.953125 -15.421875 L 4.359375 -15.421875 Z M 4.359375 -8.859375 "/></g></g></g></g></g><g transform="matrix(1, 0, 0, 1, 109, 355)"><g clip-path="url(#d3e5fde7b5)"><g fill="#3d3b3a" fill-opacity="1"><g transform="translate(0.886388, 12.520226)"><g><path d="M 4.859375 -7.8125 C 3.910156 -7.8125 3.160156 -7.5 2.609375 -6.875 C 2.066406 -6.25 1.796875 -5.390625 1.796875 -4.296875 C 1.796875 -3.171875 2.0625 -2.300781 2.59375 -1.6875 C 3.125 -1.070312 3.875 -0.765625 4.84375 -0.765625 C 5.445312 -0.765625 6.128906 -0.875 6.890625 -1.09375 L 6.890625 -0.21875 C 6.296875 0.0078125 5.5625 0.125 4.6875 0.125 C 3.425781 0.125 2.453125 -0.257812 1.765625 -1.03125 C 1.078125 -1.800781 0.734375 -2.894531 0.734375 -4.3125 C 0.734375 -5.195312 0.898438 -5.96875 1.234375 -6.625 C 1.566406 -7.289062 2.039062 -7.804688 2.65625 -8.171875 C 3.28125 -8.535156 4.019531 -8.71875 4.875 -8.71875 C 5.769531 -8.71875 6.554688 -8.550781 7.234375 -8.21875 L 6.8125 -7.359375 C 6.15625 -7.660156 5.503906 -7.8125 4.859375 -7.8125 Z M 4.859375 -7.8125 "/></g></g></g><g fill="#3d3b3a" fill-opacity="1"><g transform="translate(8.473505, 12.520226)"><g><path d="M 8.640625 -4.3125 C 8.640625 -2.9375 8.289062 -1.851562 7.59375 -1.0625 C 6.894531 -0.269531 5.925781 0.125 4.6875 0.125 C 3.425781 0.125 2.453125 -0.257812 1.765625 -1.03125 C 1.078125 -1.8125 0.734375 -2.90625 0.734375 -4.3125 C 0.734375 -5.71875 1.078125 -6.800781 1.765625 -7.5625 C 2.453125 -8.332031 3.429688 -8.71875 4.703125 -8.71875 C 5.941406 -8.71875 6.90625 -8.328125 7.59375 -7.546875 C 8.289062 -6.765625 8.640625 -5.6875 8.640625 -4.3125 Z M 1.796875 -4.3125 C 1.796875 -3.144531 2.039062 -2.257812 2.53125 -1.65625 C 3.03125 -1.0625 3.75 -0.765625 4.6875 -0.765625 C 5.644531 -0.765625 6.363281 -1.0625 6.84375 -1.65625 C 7.332031 -2.257812 7.578125 -3.144531 7.578125 -4.3125 C 7.578125 -5.46875 7.332031 -6.34375 6.84375 -6.9375 C 6.363281 -7.53125 5.648438 -7.828125 4.703125 -7.828125 C 3.753906 -7.828125 3.03125 -7.523438 2.53125 -6.921875 C 2.039062 -6.328125 1.796875 -5.457031 1.796875 -4.3125 Z M 1.796875 -4.3125 "/></g></g></g><g fill="#3d3b3a" fill-opacity="1"><g transform="translate(17.839955, 12.520226)"><g><path d="M 8.03125 -4.375 C 8.03125 -2.957031 7.644531 -1.875 6.875 -1.125 C 6.113281 -0.375 5.007812 0 3.5625 0 L 1.1875 0 L 1.1875 -8.59375 L 3.8125 -8.59375 C 5.144531 -8.59375 6.179688 -8.222656 6.921875 -7.484375 C 7.660156 -6.742188 8.03125 -5.707031 8.03125 -4.375 Z M 6.984375 -4.34375 C 6.984375 -5.457031 6.703125 -6.296875 6.140625 -6.859375 C 5.578125 -7.429688 4.738281 -7.71875 3.625 -7.71875 L 2.171875 -7.71875 L 2.171875 -0.859375 L 3.390625 -0.859375 C 4.585938 -0.859375 5.484375 -1.148438 6.078125 -1.734375 C 6.679688 -2.328125 6.984375 -3.195312 6.984375 -4.34375 Z M 6.984375 -4.34375 "/></g></g></g><g fill="#3d3b3a" fill-opacity="1"><g transform="translate(26.607421, 12.520226)"><g><path d="M 5.96875 0 L 1.1875 0 L 1.1875 -8.59375 L 5.96875 -8.59375 L 5.96875 -7.703125 L 2.171875 -7.703125 L 2.171875 -4.9375 L 5.734375 -4.9375 L 5.734375 -4.046875 L 2.171875 -4.046875 L 2.171875 -0.890625 L 5.96875 -0.890625 Z M 5.96875 0 "/></g></g></g></g></g></g></g></svg>